<?xml version="1.0" standalone="no"?>
<!DOCTYPE svg PUBLIC "-//W3C//DTD SVG 1.1//EN" "http://www.w3.org/Graphics/SVG/1.1/DTD/svg11.dtd" >
<svg>
<metadata>
Created by FontForge 20090914 at Wed Aug 11 15:59:20 2021
 By www-data
Copyright  2010 by Ryoichi Tsunekawa. All rights reserved.
</metadata>
<defs>
<font id="BebasNeueRegular" horiz-adv-x="387" >
  <font-face 
    font-family="Bebas Neue Regular"
    font-weight="400"
    font-stretch="normal"
    units-per-em="1000"
    panose-1="0 0 5 0 0 0 0 0 0 0"
    ascent="750"
    descent="-250"
    x-height="700"
    cap-height="700"
    bbox="-79 -179 831 887"
    underline-thickness="50"
    underline-position="-160"
    unicode-range="U+0020-U+F6C3"
  />
<missing-glyph horiz-adv-x="548" 
d="M50 0v700h448v-700h-448zM129 622l103 -264l-110 -281h55l92 236l92 -236h62l-110 281l103 264h-55l-86 -218l-85 218h-61z" />
    <glyph glyph-name=".notdef" horiz-adv-x="548" 
d="M50 0v700h448v-700h-448zM129 622l103 -264l-110 -281h55l92 236l92 -236h62l-110 281l103 264h-55l-86 -218l-85 218h-61z" />
    <glyph glyph-name="space" unicode=" " horiz-adv-x="155" 
 />
    <glyph glyph-name="exclam" unicode="!" horiz-adv-x="158" 
d="M50 155l-10 216v329h78v-329l-10 -216h-58zM41 97h75v-97h-75v97z" />
    <glyph glyph-name="quotedbl" unicode="&#x22;" horiz-adv-x="265" 
d="M40 700h75l-11 -189h-54zM150 700h75l-11 -189h-54z" />
    <glyph glyph-name="numbersign" unicode="#" horiz-adv-x="412" 
d="M383 472h-56l-21 -205h56l-6 -56h-56l-22 -211h-64l22 211h-91l-23 -211h-64l23 211h-58l6 56h57l22 205h-59l6 56h58l18 172h64l-18 -172h92l18 172h64l-18 -172h56zM242 267l21 205h-91l-22 -205h92z" />
    <glyph glyph-name="dollar" unicode="$" 
d="M226 753l0.000976562 -56.002c82.667 -12 124 -69.333 124 -172v-19h-73v24c0 66.667 -27 100 -81 100c-53.333 0 -80 -33.333 -80 -100c0 -24.667 5.83301 -47.167 17.5 -67.5s26.167 -37.166 43.5 -50.499l56.5 -44.5c20.333 -16.333 39.166 -32.333 56.499 -48
s31.833 -36 43.5 -61s17.5 -52.833 17.5 -83.5c0 -48.667 -10.5 -88.167 -31.5 -118.5s-52.167 -48.5 -93.5 -54.5v-53h-64v53c-42 6 -73.5 24 -94.5 54s-31.5 69.667 -31.5 119v43h73v-48c0 -66 27.333 -99 82 -99s82 33 82 99c0 28.667 -8 54.334 -24 77.001
s-35.5 42.5 -58.5 59.5l-69 52.5c-23 18 -42.5 41.167 -58.5 69.5s-24 60.5 -24 96.5c0 102 41 159.333 123 172v56h64z" />
    <glyph glyph-name="percent" unicode="%" horiz-adv-x="616" 
d="M136 704c32.667 0 57.5 -10.167 74.5 -30.5s25.5 -47.833 25.5 -82.5v-221c0 -35.333 -8.33301 -63 -25 -83s-41.667 -30 -75 -30s-58.333 10 -75 30s-25 47.667 -25 83v221c0 34.667 8.5 62.167 25.5 82.5s41.833 30.5 74.5 30.5zM420 700h47l-276 -700h-47zM136 658
c-33.333 0 -50 -21.333 -50 -64v-228c0 -42 16.667 -63 50 -63s50 21 50 63v228c0 42.667 -16.667 64 -50 64zM480 442c33.333 0 58.333 -10 75 -30s25 -47.333 25 -82v-220c0 -35.333 -8.33301 -63 -25 -83s-41.667 -30 -75 -30s-58.333 10 -75 30s-25 47.667 -25 83v220
c0 34.667 8.33301 62 25 82s41.667 30 75 30zM480 396c-33.333 0 -50 -21 -50 -63v-227c0 -42.667 16.667 -64 50 -64s50 21.333 50 64v227c0 42 -16.667 63 -50 63z" />
    <glyph glyph-name="ampersand" unicode="&#x26;" horiz-adv-x="408" 
d="M319 629l-111 -0.000976562c-60 0 -90 -33 -90 -99v-35c0 -30 7 -53 21 -69s34 -24.667 60 -26h79v78h77v-78h34v-70h-34v-241c0 -40 5 -69.667 15 -89h-79c-8 16.667 -12.333 37 -13 61c-20 -45.333 -56.667 -68 -110 -68c-42.667 0 -74.5 14.167 -95.5 42.5
s-31.5 67.833 -31.5 118.5v68c0 76.667 27.667 125.334 83 146.001c-55.333 19.333 -83 67 -83 143v16c0 115.333 55 173 165 173h113v-71zM278 329.999h-72.999c-58 -2 -87 -37.333 -87 -106v-64c0 -64 27 -96 81 -96c23.333 0 42.166 6.83301 56.499 20.5
s21.833 33.5 22.5 59.5v186z" />
    <glyph glyph-name="quotesingle" unicode="'" horiz-adv-x="151" 
d="M38 700h75l-11 -189h-54z" />
    <glyph glyph-name="parenleft" unicode="(" horiz-adv-x="241" 
d="M217 636l-23 -0.00195312c-26.667 0 -45.334 -7.16699 -56.001 -21.5s-16 -37.166 -16 -68.499v-392c0 -31.333 5.33301 -54.166 16 -68.499s29.334 -21.5 56.001 -21.5h23v-64h-28c-52.667 0 -89.834 12.167 -111.501 36.5s-32.5 63.5 -32.5 117.5v392
c0 54 10.833 93.167 32.5 117.5s58.834 36.5 111.501 36.5h28v-64z" />
    <glyph glyph-name="parenright" unicode=")" horiz-adv-x="241" 
d="M24 700l28 0.00195312c52.667 0 89.834 -12.167 111.501 -36.5s32.5 -63.5 32.5 -117.5v-392c0 -54 -10.833 -93.167 -32.5 -117.5s-58.834 -36.5 -111.501 -36.5h-28v64h23c26.667 0 45.334 7.16699 56.001 21.5s16 37.166 16 68.499v392
c0 31.333 -5.33301 54.166 -16 68.499s-29.334 21.5 -56.001 21.5h-23v64z" />
    <glyph glyph-name="asterisk" unicode="*" horiz-adv-x="395" 
d="M377 541l-156 -31l106 -117l-51 -38l-79 139l-78 -139l-51 38l105 117l-155 32l19 61l146 -64l-18 158h64l-17 -158l146 63z" />
    <glyph glyph-name="plus" unicode="+" horiz-adv-x="392" 
d="M362 322h-138v-141h-56v141h-138v56h138v139h56v-139h138v-56z" />
    <glyph glyph-name="comma" unicode="," horiz-adv-x="160" 
d="M49 -88l25 88h-29v97h75v-90l-39 -95h-32z" />
    <glyph glyph-name="hyphen" unicode="-" horiz-adv-x="265" 
d="M37 315v70h191v-70h-191z" />
    <glyph glyph-name="period" unicode="." horiz-adv-x="155" 
d="M40 97h75v-97h-75v97z" />
    <glyph glyph-name="slash" unicode="/" horiz-adv-x="376" 
d="M292 700h68l-276 -700h-68z" />
    <glyph glyph-name="zero" unicode="0" horiz-adv-x="389" 
d="M34 170v361c0 54.667 13.5 97.667 40.5 129s66.833 47 119.5 47s92.667 -15.667 120 -47s41 -74.333 41 -129v-361c0 -54.667 -13.667 -97.834 -41 -129.501s-67.333 -47.5 -120 -47.5c-52 0 -91.667 15.833 -119 47.5s-41 74.834 -41 129.501zM111 535v-370
c0 -67.333 27.667 -101 83 -101s83 33.667 83 101v370c0 68 -27.667 102 -83 102s-83 -34 -83 -102z" />
    <glyph glyph-name="one" unicode="1" horiz-adv-x="338" 
d="M183 0l-0.000976562 573c-29.333 -18 -61.666 -28 -96.999 -30v64c34.667 1.33301 60.667 10 78 26s31.333 38.333 42 67h54v-700h-77z" />
    <glyph glyph-name="two" unicode="2" 
d="M197 707c52.667 0 92.167 -15.668 118.5 -47.001s39.5 -74.666 39.5 -129.999c0 -38.667 -8.16699 -75.667 -24.5 -111s-36.166 -66.166 -59.499 -92.499l-69.5 -77c-23 -25 -42.833 -51.833 -59.5 -80.5s-25 -57.667 -25 -87v-11h230v-71h-307v60
c0 41.333 8.16699 79.666 24.5 114.999s36 65.833 59 91.5l69.5 75c23.333 24.333 43.166 52.333 59.499 84s24.5 65.5 24.5 101.5c0 73.333 -27.333 110 -82 110s-82 -34.333 -82 -103v-62h-73v57c0 55.333 13 98.833 39 130.5s65.333 47.5 118 47.5z" />
    <glyph glyph-name="three" unicode="3" 
d="M193 707c52.667 0 92.166 -15.5 118.499 -46.5s39.5 -74.167 39.5 -129.5v-18c0 -74.667 -28.333 -122.667 -85 -144c56.667 -21.333 85 -69.666 85 -144.999v-54c0 -55.333 -13.167 -98.666 -39.5 -129.999s-65.833 -47 -118.5 -47c-52 0 -91.167 15.667 -117.5 47
s-39.5 74.666 -39.5 129.999v48h73v-53c0 -67.333 27.333 -101 82 -101s82 36 82 108v54c0 67.333 -29.333 102 -88 104h-42v70h46c26.667 1.33301 47.334 10.166 62.001 26.499s22 39.5 22 69.5v32c0 72.667 -27.333 109 -82 109s-82 -34 -82 -102v-36h-73v32
c0 55.333 13.167 98.5 39.5 129.5s65.5 46.5 117.5 46.5z" />
    <glyph glyph-name="four" unicode="4" horiz-adv-x="400" 
d="M380 141h-56v-141h-76v141h-226v71l217 488h85v-488h56v-71zM248 554l-154 -342h154v342z" />
    <glyph glyph-name="five" unicode="5" 
d="M129 630l-11.001 -215c22.667 38.667 57.334 58 104.001 58c43.333 0 75.833 -14.667 97.5 -44s32.5 -70 32.5 -122v-137c0 -55.333 -13.333 -98.666 -40 -129.999s-66 -47 -118 -47s-91.167 15.667 -117.5 47s-39.5 74.666 -39.5 129.999v47h73v-52
c0 -67.333 27.333 -101 82 -101s82 33.667 82 101v136c0 67.333 -27.333 101 -82 101c-46 0 -72.333 -25 -79 -75v-16h-73l19 389h276v-70h-206z" />
    <glyph glyph-name="six" unicode="6" horiz-adv-x="389" 
d="M196 707c52.667 0 92.167 -15.332 118.5 -45.999s39.5 -73.667 39.5 -129v-13h-73v18c0 66.667 -27.667 100 -83 100c-56.667 0 -85 -37.667 -85 -113v-157c20 50 57.667 75 113 75c44 0 76.667 -14.667 98 -44s32 -70 32 -122v-106
c0 -54.667 -13.667 -97.834 -41 -129.501s-67 -47.5 -119 -47.5c-52.667 0 -92.667 15.833 -120 47.5s-41 74.834 -41 129.501v357c0 57.333 13.333 101.666 40 132.999s67 47 121 47zM196 371.001c-55.333 0 -83 -33.667 -83 -101v-105c0 -67.333 27.667 -101 83 -101
s83 33.667 83 101v105c0 67.333 -27.667 101 -83 101z" />
    <glyph glyph-name="seven" unicode="7" 
d="M94 0l179 630h-238v70h317v-68l-180 -632h-78z" />
    <glyph glyph-name="eight" unicode="8" horiz-adv-x="392" 
d="M196 707c53.333 0 94.166 -15.168 122.499 -45.501s42.5 -72.833 42.5 -127.5v-22c0 -75.333 -26.667 -123.333 -80 -144c53.333 -21.333 80 -70.666 80 -147.999v-52c0 -54.667 -14.167 -97.5 -42.5 -128.5s-69.166 -46.5 -122.499 -46.5s-94.166 15.5 -122.499 46.5
s-42.5 73.833 -42.5 128.5v52c0 76.667 27 126 81 148c-54 20.667 -81 68.667 -81 144v22c0 54.667 14.167 97.167 42.5 127.5s69.166 45.5 122.499 45.5zM196 636.999c-58.667 0 -88 -35 -88 -105v-34c0 -65.333 29.333 -98 88 -98s88 32.667 88 98v34
c0 70 -29.333 105 -88 105zM196 329.999c-58.667 0 -88 -33.667 -88 -101v-59c0 -70.667 29.333 -106 88 -106c58 0 87.333 35.333 88 106v59c0 67.333 -29.333 101 -88 101z" />
    <glyph glyph-name="nine" unicode="9" horiz-adv-x="389" 
d="M193 707c52.667 0 92.668 -15.667 120.001 -47s41 -74.333 41 -129v-357c0 -57.333 -13.333 -101.833 -40 -133.5s-67.334 -47.5 -122.001 -47.5c-52 0 -91.333 15.5 -118 46.5s-40 74.167 -40 129.5v13h73v-18c0 -66.667 27.667 -100 83 -100c57.333 0 86 37.333 86 112
v157c-19.333 -49.333 -57 -74 -113 -74c-44 0 -76.667 14.5 -98 43.5s-32 69.5 -32 121.5v107c0 54.667 13.5 97.667 40.5 129s66.833 47 119.5 47zM193.001 636c-55.333 0 -83 -33.667 -83 -101v-105c0 -67.333 27.667 -101 83 -101s83 33.667 83 101v105
c0 67.333 -27.667 101 -83 101z" />
    <glyph glyph-name="colon" unicode=":" horiz-adv-x="155" 
d="M40 478h75v-97h-75v97zM40 97h75v-97h-75v97z" />
    <glyph glyph-name="semicolon" unicode=";" horiz-adv-x="160" 
d="M45 478h75v-97h-75v97zM49 -88l25 88h-29v97h75v-90l-39 -95h-32z" />
    <glyph glyph-name="less" unicode="&#x3c;" horiz-adv-x="383" 
d="M343 252v-57l-310 127v56l310 127v-57l-237 -98z" />
    <glyph glyph-name="equal" unicode="=" horiz-adv-x="350" 
d="M37 456h276v-56h-276v56zM37 314h276v-56h-276v56z" />
    <glyph glyph-name="greater" unicode="&#x3e;" horiz-adv-x="383" 
d="M40 195v57l237 98l-237 98v57l310 -127v-56z" />
    <glyph glyph-name="question" unicode="?" horiz-adv-x="361" 
d="M182 707c52.667 0 91.834 -15.666 117.501 -46.999s38.5 -74.666 38.5 -129.999c0 -31.333 -4.83301 -60.166 -14.5 -86.499s-21.334 -48.666 -35.001 -66.999l-40.5 -54c-13.333 -17.667 -24.833 -37.334 -34.5 -59.001s-14.5 -44.834 -14.5 -69.501
c0 -12 1.66699 -24.667 5 -38h-70c-3.33301 13.333 -5 26.666 -5 39.999c0 34 6.83301 65.5 20.5 94.5s28.667 52.667 45 71s31.333 42.666 45 72.999s20.5 63.5 20.5 99.5c0 68.667 -26.667 103 -80 103s-80 -34.333 -80 -103v-62h-73v57
c0 55.333 12.833 98.833 38.5 130.5s64.5 47.5 116.5 47.5zM131 97.001h74v-97h-74v97z" />
    <glyph glyph-name="at" unicode="@" horiz-adv-x="689" 
d="M391 735c95.333 0 164.663 -25.833 207.996 -77.5s65 -121.834 65 -210.501c0 -94.667 -18.167 -170.334 -54.5 -227.001s-79.166 -85 -128.499 -85s-75.666 22.667 -78.999 68c-21.333 -46 -55.666 -68.667 -102.999 -68c-36 0.666992 -61.5 14.667 -76.5 42
s-20.167 64.333 -15.5 111l11 100c4.66699 46.667 17.5 82.834 38.5 108.501s49.5 38.167 85.5 37.5c44.667 0 73.334 -22 86.001 -66l7 62h68l-30 -287c-4 -28.667 5.66699 -43 29 -43c24 0 44.167 14.167 60.5 42.5s27.5 60 33.5 95s8.66699 70.833 8 107.5
c0 72 -17.667 128.167 -53 168.5s-89.333 60.5 -162 60.5c-96 0 -168.833 -35.667 -218.5 -107s-74.5 -165.666 -74.5 -282.999c0 -88.667 20.833 -157 62.5 -205s105.167 -72 190.5 -72c77.333 0 143 21 197 63l-6 -69c-52 -36 -117 -54 -195 -54
c-106.667 0 -186 30 -238 90s-78 143.667 -78 251c0 60.667 7.33301 117.5 22 170.5s36.5 100.333 65.5 142s67 74.5 114 98.5s100.5 36 160.5 36zM361.997 466c-22.667 0.666992 -40.333 -6.5 -53 -21.5s-20.667 -36.167 -24 -63.5l-9 -90
c-6.66699 -59.333 12.333 -89.333 57 -90c22 -0.666992 39.5 7 52.5 23s21.167 38 24.5 66l10 96c2.66699 24 -1 43.333 -11 58s-25.667 22 -47 22z" />
    <glyph glyph-name="A" unicode="A" horiz-adv-x="422" 
d="M296 141h-177l-27 -141h-72l134 700h113l134 -700h-78zM206 612l-77 -404h156z" />
    <glyph glyph-name="B" unicode="B" horiz-adv-x="392" 
d="M40 700l157 -0.000976562c53.333 0 92 -12.667 116 -38s36 -64.333 36 -117v-33c0 -38.667 -6.33301 -69.167 -19 -91.5s-33.667 -38.166 -63 -47.499c62.667 -17.333 94 -67.333 94 -150v-59c0 -109.333 -53.333 -164 -160 -164h-161v700zM118 402.999l60 0.000976562
c32.667 0 56.5 6.66699 71.5 20s22.5 37.666 22.5 72.999v41c0 31.333 -6 54.5 -18 69.5s-31.667 22.5 -59 22.5h-77v-226zM118 71h83c55.333 0 83 31.667 83 95v62c0 38 -7.66699 64.833 -23 80.5s-40.333 23.5 -75 23.5h-68v-261z" />
    <glyph glyph-name="C" unicode="C" horiz-adv-x="380" 
d="M191 707c52.667 0 92.167 -15.667 118.5 -47s39.5 -74.333 39.5 -129v-63h-74v67c0 67.333 -27.333 101 -82 101s-82 -33.667 -82 -101v-370c0 -67.333 27.333 -101 82 -101s82 33.667 82 101v91h74v-87c0 -54.667 -13.167 -97.667 -39.5 -129s-65.833 -47 -118.5 -47
c-52 0 -91.167 15.667 -117.5 47s-39.5 74.333 -39.5 129v362c0 54.667 13.167 97.667 39.5 129s65.5 47 117.5 47z" />
    <glyph glyph-name="D" unicode="D" horiz-adv-x="396" 
d="M40 700l164 -0.000976562c53.333 0 93.166 -15.167 119.499 -45.5s39.5 -73.166 39.5 -128.499v-353c0 -54.667 -13.167 -97.167 -39.5 -127.5s-66.166 -45.5 -119.499 -45.5h-164v700zM118 70.999h85c55.333 0 83 33 83 99v360c0 66 -28 99 -84 99h-84v-558z" />
    <glyph glyph-name="E" unicode="E" horiz-adv-x="360" 
d="M118 390h171v-70h-171v-249h210v-71h-288v700h288v-71h-210v-239z" />
    <glyph glyph-name="F" unicode="F" horiz-adv-x="340" 
d="M118 374h161v-71h-161v-303h-78v700h278v-71h-200v-255z" />
    <glyph glyph-name="G" unicode="G" horiz-adv-x="383" 
d="M191 707c52.667 0 92.167 -15.667 118.5 -47s39.5 -74.333 39.5 -129v-60h-74v64c0 67.333 -27.333 101 -82 101s-82 -33.667 -82 -101v-370c0 -67.333 27.333 -101 82 -101s82 33.667 82 101v140h-72v70h146v-206c0 -54.667 -13.167 -97.667 -39.5 -129
s-65.833 -47 -118.5 -47c-52 0 -91.167 15.667 -117.5 47s-39.5 74.333 -39.5 129v362c0 54.667 13.167 97.667 39.5 129s65.5 47 117.5 47z" />
    <glyph glyph-name="H" unicode="H" horiz-adv-x="408" 
d="M290 315h-172v-315h-78v700h78v-315h172v315h78v-700h-78v315z" />
    <glyph glyph-name="I" unicode="I" horiz-adv-x="158" 
d="M40 700h78v-700h-78v700z" />
    <glyph glyph-name="J" unicode="J" horiz-adv-x="255" 
d="M20 0l-0.000976562 71c8.66699 -0.666992 21.667 -1 39 -1c27.333 1.33301 47.833 9.5 61.5 24.5s20.5 39.5 20.5 73.5v532h77v-527c0 -113.333 -49.667 -171.333 -149 -174c-27.333 0 -43.666 0.333008 -48.999 1z" />
    <glyph glyph-name="K" unicode="K" horiz-adv-x="409" 
d="M309 0l-150 304l-41 -69v-235h-78v700h78v-338l186 338h79l-177 -319l183 -381h-80z" />
    <glyph glyph-name="L" unicode="L" horiz-adv-x="337" 
d="M318 0h-278v700h78v-629h200v-71z" />
    <glyph glyph-name="M" unicode="M" horiz-adv-x="523" 
d="M409 563l-111 -562h-75l-116 557v-558h-68v700h109l115 -559l111 559h109v-700h-74v563z" />
    <glyph glyph-name="N" unicode="N" horiz-adv-x="409" 
d="M109 566v-566h-70v700h99l162 -506v506h69v-700h-81z" />
    <glyph glyph-name="O" unicode="O" horiz-adv-x="389" 
d="M34 169v362c0 54.667 13.5 97.667 40.5 129s66.833 47 119.5 47s92.667 -15.667 120 -47s41 -74.333 41 -129v-362c0 -54.667 -13.667 -97.667 -41 -129s-67.333 -47 -120 -47c-52 0 -91.667 15.667 -119 47s-41 74.333 -41 129zM111 535v-370
c0 -67.333 27.667 -101 83 -101s83 33.667 83 101v370c0 67.333 -27.667 101 -83 101s-83 -33.667 -83 -101z" />
    <glyph glyph-name="P" unicode="P" horiz-adv-x="374" 
d="M40 700h153c104.667 0 157 -57 157 -171v-84c0 -112.667 -54.333 -169 -163 -169h-69v-276h-78v700zM118 346l69 -0.000976562c29.333 0 51 7.33301 65 22s21 38.667 21 72v93c0 32.667 -6.33301 56.834 -19 72.501s-33 23.5 -61 23.5h-75v-283z" />
    <glyph glyph-name="Q" unicode="Q" horiz-adv-x="402" 
d="M194 707c52.667 0 92.668 -15.667 120.001 -47s41 -74.333 41 -129v-362c0 -44.667 -9 -81 -27 -109c6.66699 -14.667 21 -22 43 -22h10v-69h-13c-42.667 0 -72.334 15 -89.001 45c-24 -14 -52.333 -21 -85 -21c-52 0 -91.667 15.667 -119 47s-41 74.333 -41 129v362
c0 54.667 13.5 97.667 40.5 129s66.833 47 119.5 47zM194.001 636c-55.333 0 -83 -33.667 -83 -101v-370c0 -67.333 27.667 -101 83 -101s83 33.667 83 101v370c0 67.333 -27.667 101 -83 101z" />
    <glyph glyph-name="R" unicode="R" horiz-adv-x="394" 
d="M40 700l156 0.000976562c54 0 93.5 -13.333 118.5 -40s37.5 -66.667 37.5 -120v-57c0 -77.333 -29 -125.333 -87 -144c58.667 -17.333 88 -66 88 -146v-109c0 -38.667 4.66699 -66.667 14 -84h-79c-8.66699 19.333 -13 47.666 -13 84.999v110
c0 38 -8.5 64.833 -25.5 80.5s-42.5 23.5 -76.5 23.5h-55v-299h-78v700zM118 370.001h58.001c33.333 0 58.166 7 74.499 21s24.5 39 24.5 75v67c0 64 -27 96 -81 96h-76v-259z" />
    <glyph glyph-name="S" unicode="S" horiz-adv-x="372" 
d="M187 707c51.333 0 90.1709 -15.501 116.504 -46.501s39.5 -73.833 39.5 -128.5v-19h-74v23c0 66.667 -26.667 100 -80 100s-80 -33 -80 -99c0 -24.667 5.83301 -47.5 17.5 -68.5s26.167 -38.667 43.5 -53l56.5 -48l56.5 -51c17.333 -16.333 31.833 -37.5 43.5 -63.5
s17.5 -54.333 17.5 -85c0 -54.667 -13.333 -97.5 -40 -128.5s-66 -46.5 -118 -46.5s-91.167 15.5 -117.5 46.5s-39.5 73.833 -39.5 128.5v40h73v-44c0 -66.667 27.333 -100 82 -100s82 33.333 82 100c0 21.333 -4.33301 41 -13 59s-19.834 34 -33.501 48
s-28.834 27.667 -45.501 41l-50 42c-16.667 14.667 -31.834 30 -45.501 46s-24.834 35.333 -33.501 58s-13 47.334 -13 74.001c0 55.333 13 98.333 39 129s64.667 46 116 46z" />
    <glyph glyph-name="T" unicode="T" horiz-adv-x="363" 
d="M220 0h-78v629h-129v71h336v-71h-129v-629z" />
    <glyph glyph-name="U" unicode="U" 
d="M114 700v-535.002c0 -67.333 27.333 -101 82 -101c54 0 81 33.667 81 101v535h73v-531c0 -55.333 -13 -98.666 -39 -129.999s-65.333 -47 -118 -47c-52 0 -91 15.833 -117 47.5s-39 74.834 -39 129.501v531h77z" />
    <glyph glyph-name="V" unicode="V" horiz-adv-x="418" 
d="M20 700h79l114 -609l113 609h72l-131 -700h-115z" />
    <glyph glyph-name="W" unicode="W" horiz-adv-x="583" 
d="M295 475l-69 -475h-107l-96 700h76l82 -596l78 595h77l77 -596l79 597h68l-95 -700h-103z" />
    <glyph glyph-name="X" unicode="X" horiz-adv-x="435" 
d="M330 0l-116 302l-117 -302h-74l141 361l-132 339h81l108 -280l109 280h73l-131 -339l140 -361h-82z" />
    <glyph glyph-name="Y" unicode="Y" horiz-adv-x="406" 
d="M164 0v251l-148 449h81l109 -344l110 344h74l-149 -449v-251h-77z" />
    <glyph glyph-name="Z" unicode="Z" horiz-adv-x="379" 
d="M347 71v-71h-318v70l240 559h-229v71h309v-70l-241 -559h239z" />
    <glyph glyph-name="bracketleft" unicode="[" horiz-adv-x="242" 
d="M122 64h92v-64h-169v700h169v-64h-92v-572z" />
    <glyph glyph-name="backslash" unicode="\" horiz-adv-x="376" 
d="M16 700h68l276 -700h-68z" />
    <glyph glyph-name="bracketright" unicode="]" horiz-adv-x="242" 
d="M28 64h91v572h-91v64h169v-700h-169v64z" />
    <glyph glyph-name="asciicircum" unicode="^" horiz-adv-x="403" 
d="M201 629l-111 -239h-63l146 310h57l146 -310h-63z" />
    <glyph glyph-name="underscore" unicode="_" horiz-adv-x="507" 
d="M13 -10h477v-57h-477v57z" />
    <glyph glyph-name="grave" unicode="`" horiz-adv-x="223" 
d="M43 848h81l69 -103h-57z" />
    <glyph glyph-name="a" unicode="a" horiz-adv-x="422" 
d="M296 141h-177l-27 -141h-72l134 700h113l134 -700h-78zM206 612l-77 -404h156z" />
    <glyph glyph-name="b" unicode="b" horiz-adv-x="392" 
d="M40 700l157 -0.000976562c53.333 0 92 -12.667 116 -38s36 -64.333 36 -117v-33c0 -38.667 -6.33301 -69.167 -19 -91.5s-33.667 -38.166 -63 -47.499c62.667 -17.333 94 -67.333 94 -150v-59c0 -109.333 -53.333 -164 -160 -164h-161v700zM118 402.999l60 0.000976562
c32.667 0 56.5 6.66699 71.5 20s22.5 37.666 22.5 72.999v41c0 31.333 -6 54.5 -18 69.5s-31.667 22.5 -59 22.5h-77v-226zM118 71h83c55.333 0 83 31.667 83 95v62c0 38 -7.66699 64.833 -23 80.5s-40.333 23.5 -75 23.5h-68v-261z" />
    <glyph glyph-name="c" unicode="c" horiz-adv-x="380" 
d="M191 707c52.667 0 92.167 -15.667 118.5 -47s39.5 -74.333 39.5 -129v-63h-74v67c0 67.333 -27.333 101 -82 101s-82 -33.667 -82 -101v-370c0 -67.333 27.333 -101 82 -101s82 33.667 82 101v91h74v-87c0 -54.667 -13.167 -97.667 -39.5 -129s-65.833 -47 -118.5 -47
c-52 0 -91.167 15.667 -117.5 47s-39.5 74.333 -39.5 129v362c0 54.667 13.167 97.667 39.5 129s65.5 47 117.5 47z" />
    <glyph glyph-name="d" unicode="d" horiz-adv-x="396" 
d="M40 700l164 -0.000976562c53.333 0 93.166 -15.167 119.499 -45.5s39.5 -73.166 39.5 -128.499v-353c0 -54.667 -13.167 -97.167 -39.5 -127.5s-66.166 -45.5 -119.499 -45.5h-164v700zM118 70.999h85c55.333 0 83 33 83 99v360c0 66 -28 99 -84 99h-84v-558z" />
    <glyph glyph-name="e" unicode="e" horiz-adv-x="360" 
d="M118 390h171v-70h-171v-249h210v-71h-288v700h288v-71h-210v-239z" />
    <glyph glyph-name="f" unicode="f" horiz-adv-x="340" 
d="M118 374h161v-71h-161v-303h-78v700h278v-71h-200v-255z" />
    <glyph glyph-name="g" unicode="g" horiz-adv-x="383" 
d="M191 707c52.667 0 92.167 -15.667 118.5 -47s39.5 -74.333 39.5 -129v-60h-74v64c0 67.333 -27.333 101 -82 101s-82 -33.667 -82 -101v-370c0 -67.333 27.333 -101 82 -101s82 33.667 82 101v140h-72v70h146v-206c0 -54.667 -13.167 -97.667 -39.5 -129
s-65.833 -47 -118.5 -47c-52 0 -91.167 15.667 -117.5 47s-39.5 74.333 -39.5 129v362c0 54.667 13.167 97.667 39.5 129s65.5 47 117.5 47z" />
    <glyph glyph-name="h" unicode="h" horiz-adv-x="408" 
d="M290 315h-172v-315h-78v700h78v-315h172v315h78v-700h-78v315z" />
    <glyph glyph-name="i" unicode="i" horiz-adv-x="158" 
d="M40 700h78v-700h-78v700z" />
    <glyph glyph-name="j" unicode="j" horiz-adv-x="255" 
d="M20 0l-0.000976562 71c8.66699 -0.666992 21.667 -1 39 -1c27.333 1.33301 47.833 9.5 61.5 24.5s20.5 39.5 20.5 73.5v532h77v-527c0 -113.333 -49.667 -171.333 -149 -174c-27.333 0 -43.666 0.333008 -48.999 1z" />
    <glyph glyph-name="k" unicode="k" horiz-adv-x="409" 
d="M309 0l-150 304l-41 -69v-235h-78v700h78v-338l186 338h79l-177 -319l183 -381h-80z" />
    <glyph glyph-name="l" unicode="l" horiz-adv-x="337" 
d="M318 0h-278v700h78v-629h200v-71z" />
    <glyph glyph-name="m" unicode="m" horiz-adv-x="523" 
d="M409 563l-111 -562h-75l-116 557v-558h-68v700h109l115 -559l111 559h109v-700h-74v563z" />
    <glyph glyph-name="n" unicode="n" horiz-adv-x="409" 
d="M109 566v-566h-70v700h99l162 -506v506h69v-700h-81z" />
    <glyph glyph-name="o" unicode="o" horiz-adv-x="389" 
d="M34 169v362c0 54.667 13.5 97.667 40.5 129s66.833 47 119.5 47s92.667 -15.667 120 -47s41 -74.333 41 -129v-362c0 -54.667 -13.667 -97.667 -41 -129s-67.333 -47 -120 -47c-52 0 -91.667 15.667 -119 47s-41 74.333 -41 129zM111 535v-370
c0 -67.333 27.667 -101 83 -101s83 33.667 83 101v370c0 67.333 -27.667 101 -83 101s-83 -33.667 -83 -101z" />
    <glyph glyph-name="p" unicode="p" horiz-adv-x="371" 
d="M40 700h153c104.667 0 157 -57 157 -171v-84c0 -112.667 -54.333 -169 -163 -169h-69v-276h-78v700zM118 346l69 -0.000976562c29.333 0 51 7.33301 65 22s21 38.667 21 72v93c0 32.667 -6.33301 56.834 -19 72.501s-33 23.5 -61 23.5h-75v-283z" />
    <glyph glyph-name="q" unicode="q" horiz-adv-x="392" 
d="M194 707c52.667 0 92.668 -15.667 120.001 -47s41 -74.333 41 -129v-362c0 -44.667 -9 -81 -27 -109c6.66699 -14.667 21 -22 43 -22h10v-69h-13c-42.667 0 -72.334 15 -89.001 45c-24 -14 -52.333 -21 -85 -21c-52 0 -91.667 15.667 -119 47s-41 74.333 -41 129v362
c0 54.667 13.5 97.667 40.5 129s66.833 47 119.5 47zM194.001 636c-55.333 0 -83 -33.667 -83 -101v-370c0 -67.333 27.667 -101 83 -101s83 33.667 83 101v370c0 67.333 -27.667 101 -83 101z" />
    <glyph glyph-name="r" unicode="r" horiz-adv-x="394" 
d="M40 700l156 0.000976562c54 0 93.5 -13.333 118.5 -40s37.5 -66.667 37.5 -120v-57c0 -77.333 -29 -125.333 -87 -144c58.667 -17.333 88 -66 88 -146v-109c0 -38.667 4.66699 -66.667 14 -84h-79c-8.66699 19.333 -13 47.666 -13 84.999v110
c0 38 -8.5 64.833 -25.5 80.5s-42.5 23.5 -76.5 23.5h-55v-299h-78v700zM118 370.001h58.001c33.333 0 58.166 7 74.499 21s24.5 39 24.5 75v67c0 64 -27 96 -81 96h-76v-259z" />
    <glyph glyph-name="s" unicode="s" horiz-adv-x="372" 
d="M187 707c51.333 0 90.1709 -15.501 116.504 -46.501s39.5 -73.833 39.5 -128.5v-19h-74v23c0 66.667 -26.667 100 -80 100s-80 -33 -80 -99c0 -24.667 5.83301 -47.5 17.5 -68.5s26.167 -38.667 43.5 -53l56.5 -48l56.5 -51c17.333 -16.333 31.833 -37.5 43.5 -63.5
s17.5 -54.333 17.5 -85c0 -54.667 -13.333 -97.5 -40 -128.5s-66 -46.5 -118 -46.5s-91.167 15.5 -117.5 46.5s-39.5 73.833 -39.5 128.5v40h73v-44c0 -66.667 27.333 -100 82 -100s82 33.333 82 100c0 21.333 -4.33301 41 -13 59s-19.834 34 -33.501 48
s-28.834 27.667 -45.501 41l-50 42c-16.667 14.667 -31.834 30 -45.501 46s-24.834 35.333 -33.501 58s-13 47.334 -13 74.001c0 55.333 13 98.333 39 129s64.667 46 116 46z" />
    <glyph glyph-name="t" unicode="t" horiz-adv-x="360" 
d="M218 0h-77v629h-129v71h335v-71h-129v-629z" />
    <glyph glyph-name="u" unicode="u" 
d="M114 700v-535.002c0 -67.333 27.333 -101 82 -101c54 0 81 33.667 81 101v535h73v-531c0 -55.333 -13 -98.666 -39 -129.999s-65.333 -47 -118 -47c-52 0 -91 15.833 -117 47.5s-39 74.834 -39 129.501v531h77z" />
    <glyph glyph-name="v" unicode="v" horiz-adv-x="418" 
d="M20 700h79l114 -609l113 609h72l-131 -700h-115z" />
    <glyph glyph-name="w" unicode="w" horiz-adv-x="583" 
d="M295 475l-69 -475h-107l-96 700h76l82 -596l78 595h77l77 -596l79 597h68l-95 -700h-103z" />
    <glyph glyph-name="x" unicode="x" horiz-adv-x="435" 
d="M330 0l-116 302l-117 -302h-74l141 361l-132 339h81l108 -280l109 280h73l-131 -339l140 -361h-82z" />
    <glyph glyph-name="y" unicode="y" horiz-adv-x="406" 
d="M164 0v251l-148 449h81l109 -344l110 344h74l-149 -449v-251h-77z" />
    <glyph glyph-name="z" unicode="z" horiz-adv-x="379" 
d="M347 71v-71h-318v70l240 559h-229v71h309v-70l-241 -559h239z" />
    <glyph glyph-name="braceleft" unicode="{" horiz-adv-x="257" 
d="M233 636h-19c-20 0 -34.167 -5.83301 -42.5 -17.5s-13.166 -31.5 -14.499 -59.5l-6 -113c-1.33301 -24.667 -6.5 -45.167 -15.5 -61.5s-25.5 -27.833 -49.5 -34.5c24 -6.66699 40.5 -18.167 49.5 -34.5s14.167 -36.833 15.5 -61.5l6 -113
c1.33301 -28 6.16602 -47.833 14.499 -59.5s22.5 -17.5 42.5 -17.5h19v-64h-46c-61.333 0 -94.666 35.667 -99.999 107l-7 136c-1.33301 26 -5.83301 44.333 -13.5 55s-23.167 17 -46.5 19v66c23.333 2 38.833 8.33301 46.5 19s12.167 29 13.5 55l7 136
c5.33301 71.333 38.666 107 99.999 107h46v-64z" />
    <glyph glyph-name="bar" unicode="|" horiz-adv-x="373" 
d="M158 744h64v-788h-64v788z" />
    <glyph glyph-name="braceright" unicode="}" horiz-adv-x="257" 
d="M24 700h46c62 0 95 -35.667 99 -107l8 -136c1.33301 -26.667 5.66602 -45.167 12.999 -55.5s22.666 -16.5 45.999 -18.5v-66c-23.333 -2 -38.666 -8.16699 -45.999 -18.5s-11.666 -28.833 -12.999 -55.5l-8 -136c-4 -71.333 -37 -107 -99 -107h-46v64h19
c20 0 34.167 5.83301 42.5 17.5s13.166 31.5 14.499 59.5l6 113c1.33301 25.333 6.33301 46 15 62s25.334 27.333 50.001 34c-24.667 6.66699 -41.334 18 -50.001 34s-13.667 36.667 -15 62l-6 113c-1.33301 28 -6.16602 47.833 -14.499 59.5s-22.5 17.5 -42.5 17.5h-19v64z
" />
    <glyph glyph-name="asciitilde" unicode="~" horiz-adv-x="396" 
d="M125 410c20 0.666992 46.335 -9.33203 79.002 -29.999s56.334 -31 71.001 -31c12 0 22.333 4 31 12s20 22.333 34 43l38 -38c-32.667 -50.667 -67 -76.334 -103 -77.001c-19.333 -0.666992 -45.5 9.5 -78.5 30.5s-56.833 31.5 -71.5 31.5
c-12.667 0 -23.834 -4.16699 -33.501 -12.5s-21.5 -22.833 -35.5 -43.5l-38 36c19.333 28.667 37.166 49 53.499 61s34.166 18 53.499 18z" />
    <glyph glyph-name="uni00A0" unicode="&#xa0;" horiz-adv-x="155" 
 />
    <glyph glyph-name="exclamdown" unicode="&#xa1;" horiz-adv-x="158" 
d="M41 700h75v-96h-75v96zM40 0v309l10 236h58l10 -236v-309h-78z" />
    <glyph glyph-name="cent" unicode="&#xa2;" 
d="M225 710v-49.002c42.667 -5.33301 74.5 -23 95.5 -53s31.5 -69.333 31.5 -118v-40h-73v44c0 66 -27.333 99 -82 99s-82 -33.667 -82 -101v-284c0 -66.667 27.333 -100 82 -100s82 33.333 82 100v67h73v-62c0 -49.333 -10.5 -89.166 -31.5 -119.499
s-52.833 -48.166 -95.5 -53.499v-50h-64v50c-41.333 6 -72.333 24.167 -93 54.5s-31 69.833 -31 118.5v274c0 48.667 10.333 88.167 31 118.5s51.667 48.5 93 54.5v50h64z" />
    <glyph glyph-name="sterling" unicode="&#xa3;" horiz-adv-x="391" 
d="M200 707c52 0 90.8301 -15.833 116.497 -47.5s38.5 -75.167 38.5 -130.5v-56h-74v60c0 68.667 -26.333 103 -79 103c-53.333 0 -80 -34 -80 -102c0 -36 4.33301 -68 13 -96s19.5 -55.667 32.5 -83s22.167 -50.333 27.5 -69h134v-61h-129
c0.666992 -54 -22.333 -105.333 -69 -154h221v-71h-319v68c29.333 12 53.5 31.833 72.5 59.5s27.167 60.167 24.5 97.5h-83v61h73c-5.33301 16.667 -15.166 38.834 -29.499 66.501s-25.666 55.167 -33.999 82.5s-12.5 59 -12.5 95c0 55.333 12.833 98.666 38.5 129.999
s64.834 47 117.501 47z" />
    <glyph glyph-name="currency" unicode="&#xa4;" horiz-adv-x="372" 
d="M338 470l-52 -52.001c14.667 -20 22 -42.667 22 -68c0 -26 -7.33301 -49 -22 -69l52 -51l-32 -31l-51 50c-20.667 -14 -43.667 -21 -69 -21c-24.667 0 -47.667 7 -69 21l-51 -50l-31 31l51 51c-14.667 20 -22 43 -22 69c0 26.667 7.33301 49.334 22 68.001l-51 52l31 31
l52 -51c20 14.667 42.667 22 68 22s48.333 -7.33301 69 -22l51 51zM186 423.999c-20.667 0 -38.167 -7.16699 -52.5 -21.5s-21.5 -31.833 -21.5 -52.5s7.16699 -38.167 21.5 -52.5s31.833 -21.5 52.5 -21.5s38.334 7.16699 53.001 21.5s22 31.833 22 52.5
s-7.33301 38.167 -22 52.5s-32.334 21.5 -53.001 21.5z" />
    <glyph glyph-name="yen" unicode="&#xa5;" horiz-adv-x="414" 
d="M346 232h-100v-59h100v-40h-100v-133h-78v133h-100v40h100v59h-100v41h94l-144 427h81l111 -342l112 342h74l-145 -427h95v-41z" />
    <glyph glyph-name="brokenbar" unicode="&#xa6;" horiz-adv-x="374" 
d="M158 410v334h64v-334h-64zM158 -44v334h64v-334h-64z" />
    <glyph glyph-name="section" unicode="&#xa7;" 
d="M194 707c47.333 0 84.832 -12.0049 112.499 -36.0049s41.5 -56 41.5 -96v-27h-74v17c0 23.333 -7.16699 42 -21.5 56s-33.166 21 -56.499 21c-24 0 -43.5 -6 -58.5 -18s-22.5 -29.667 -22.5 -53c-0.666992 -18.667 7 -34.667 23 -48s35.5 -24.833 58.5 -34.5
s46 -20.667 69 -33s42.667 -30.166 59 -53.499s24.5 -51.333 24.5 -84c0 -28 -7.5 -53 -22.5 -75s-35.167 -39.333 -60.5 -52c56.667 -30.667 84.667 -73.667 84 -129c-0.666992 -39.333 -15.334 -71.166 -44.001 -95.499s-66 -36.5 -112 -36.5
c-48.667 0 -87 11.833 -115 35.5s-42 55.834 -42 96.501v41h74v-31c0 -24 7.5 -42.833 22.5 -56.5s34.5 -20.5 58.5 -20.5c22.667 0 41.5 6.16699 56.5 18.5s22.833 29.5 23.5 51.5c0.666992 18.667 -7 34.834 -23 48.501s-35.667 25.334 -59 35.001s-46.5 20.5 -69.5 32.5
s-42.5 29.5 -58.5 52.5s-24 50.833 -24 83.5c0 28 7.83301 53 23.5 75s36.834 39 63.501 51c-28 16 -49.667 33.833 -65 53.5s-23 45.5 -23 77.5c0.666992 40 15 72.167 43 96.5s66 36.5 114 36.5zM190.999 411.995c-22 -3.33301 -40.667 -13.668 -56 -31.001
s-23 -37.666 -23 -60.999c-0.666992 -24 6.83301 -43.167 22.5 -57.5s37.834 -27.833 66.501 -40.5c21.333 5.33301 39 16.5 53 33.5s21 37.167 21 60.5c0 22.667 -7.33301 41.167 -22 55.5s-35.334 27.833 -62.001 40.5z" />
    <glyph glyph-name="dieresis" unicode="&#xa8;" horiz-adv-x="219" 
d="M35 831h68v-90h-68v90zM116 831h68v-90h-68v90z" />
    <glyph glyph-name="copyright" unicode="&#xa9;" horiz-adv-x="742" 
d="M371 704c99.333 0 181.5 -33.5 246.5 -100.5s97.5 -151.5 97.5 -253.5s-32.5 -186.5 -97.5 -253.5s-147.167 -100.5 -246.5 -100.5s-181.5 33.5 -246.5 100.5s-97.5 151.5 -97.5 253.5s32.5 186.5 97.5 253.5s147.167 100.5 246.5 100.5zM371 654
c-84.667 0 -154.667 -28.833 -210 -86.5s-83 -130.167 -83 -217.5s27.667 -159.833 83 -217.5s125.333 -86.5 210 -86.5s154.667 28.833 210 86.5s83 130.167 83 217.5s-27.667 159.833 -83 217.5s-125.333 86.5 -210 86.5zM367 570c36 0 63.167 -11.001 81.5 -33.001
s27.5 -52.333 27.5 -91v-30h-52v34c0 46 -18.667 69 -56 69s-56 -23 -56 -69v-200c0 -46 18.667 -69 56 -69s56 23 56 69v49h52v-46c0 -38 -9.16699 -68 -27.5 -90s-45.5 -33 -81.5 -33c-36.667 0 -64 10.833 -82 32.5s-27 51.834 -27 90.501v193c0 38.667 9 69 27 91
s45.333 33 82 33z" />
    <glyph glyph-name="ordfeminine" unicode="&#xaa;" horiz-adv-x="275" 
d="M147 705c60.667 0 91 -36.667 91 -110v-261h-43l-3 55c-12.667 -40 -38.667 -60 -78 -60c-54 0 -81 33 -81 99v4c0 77.333 51.667 117.333 155 120v50c0 38 -14.333 57 -43 57c-33.333 0 -50 -20.333 -50 -61v-18h-47v15c0 73.333 33 110 99 110zM188 435v79
c-69.333 -3.33301 -104 -28.333 -104 -75v-7c0 -37.333 16.333 -56 49 -56c32 0 50.333 19.667 55 59zM34 277h204v-50h-204v50z" />
    <glyph glyph-name="guillemotleft" unicode="&#xab;" horiz-adv-x="320" 
d="M87 90l-63 261l63 251h71l-63 -251l63 -261h-71zM226 90l-64 261l64 251h70l-63 -251l63 -261h-70z" />
    <glyph glyph-name="logicalnot" unicode="&#xac;" horiz-adv-x="388" 
d="M302 322h-272v56h328v-191h-56v135z" />
    <glyph glyph-name="uni00AD" unicode="&#xad;" horiz-adv-x="265" 
d="M37 315v70h191v-70h-191z" />
    <glyph glyph-name="registered" unicode="&#xae;" horiz-adv-x="742" 
d="M371 704c99.333 0 181.5 -33.5 246.5 -100.5s97.5 -151.5 97.5 -253.5s-32.5 -186.5 -97.5 -253.5s-147.167 -100.5 -246.5 -100.5s-181.5 33.5 -246.5 100.5s-97.5 151.5 -97.5 253.5s32.5 186.5 97.5 253.5s147.167 100.5 246.5 100.5zM371 654
c-84.667 0 -154.667 -28.833 -210 -86.5s-83 -130.167 -83 -217.5s27.667 -159.833 83 -217.5s125.333 -86.5 210 -86.5s154.667 28.833 210 86.5s83 130.167 83 217.5s-27.667 159.833 -83 217.5s-125.333 86.5 -210 86.5zM267 564l109 -0.000976562
c72.667 0 109 -37.333 109 -112v-10c0 -53.333 -19.333 -87 -58 -101c38.667 -12.667 58 -46 58 -100v-46c0 -26.667 3.66699 -46.334 11 -59.001h-57c-5.33301 12.667 -8 32.334 -8 59.001v46c0 26.667 -6 45.334 -18 56.001s-30.333 16 -55 16h-37v-177h-54v428z
M321 363.999h45c21.333 0 37.333 5 48 15s16 27 16 51v16c0 45.333 -19 68 -57 68h-52v-150z" />
    <glyph glyph-name="macron" unicode="&#xaf;" horiz-adv-x="251" 
d="M20 800h212v-56h-212v56z" />
    <glyph glyph-name="degree" unicode="&#xb0;" horiz-adv-x="219" 
d="M109 708c24 0 44.5 -8.33301 61.5 -25s25.5 -37 25.5 -61s-8.5 -44.333 -25.5 -61s-37.5 -25 -61.5 -25c-23.333 0 -43.5 8.33301 -60.5 25s-25.5 37 -25.5 61s8.5 44.333 25.5 61s37.167 25 60.5 25zM109 671c-13.333 0 -24.833 -4.66699 -34.5 -14s-14.5 -21 -14.5 -35
c0 -13.333 4.83301 -24.833 14.5 -34.5s21.167 -14.5 34.5 -14.5s25 4.83301 35 14.5s15 21.167 15 34.5c0 14 -4.83301 25.667 -14.5 35s-21.5 14 -35.5 14z" />
    <glyph glyph-name="plusminus" unicode="&#xb1;" horiz-adv-x="392" 
d="M37 237h131v99h-131v56h131v125h56v-125h131v-56h-131v-99h131v-56h-318v56z" />
    <glyph glyph-name="twosuperior" unicode="&#xb2;" horiz-adv-x="275" 
d="M142 801c33.333 0 58.333 -9.99902 75 -29.999s25 -47.667 25 -83c0 -24.667 -5.16699 -48.167 -15.5 -70.5s-22.833 -41.833 -37.5 -58.5l-44 -49c-14.667 -16 -27.167 -33.167 -37.5 -51.5s-15.833 -36.833 -16.5 -55.5v-6h146v-46h-196v38
c0 26 5.16699 50.333 15.5 73s22.833 42.167 37.5 58.5l44.5 48c15 15.667 27.667 33.5 38 53.5s15.5 41.667 15.5 65c0 45.333 -17.333 68 -52 68c-34 0 -51 -21.667 -51 -65v-38h-48v35c0 35.333 8.33301 63.166 25 83.499s42 30.5 76 30.5z" />
    <glyph glyph-name="threesuperior" unicode="&#xb3;" horiz-adv-x="275" 
d="M138 800c33.333 0 58.333 -10 75 -30s25 -47.667 25 -83v-11c0 -46.667 -17.333 -77 -52 -91c34.667 -13.333 52 -44 52 -92v-34c0 -35.333 -8.33301 -63 -25 -83s-41.667 -30 -75 -30s-58.5 10 -75.5 30s-25.5 47.667 -25.5 83v30h48v-34c0 -42 17 -63 51 -63
c34.667 0 52 22.667 52 68v34c0 43.333 -18.333 65 -55 65h-27v46h29c16 0 28.833 5.5 38.5 16.5s14.5 25.833 14.5 44.5v20c0 45.333 -17.333 68 -52 68c-34 0 -51 -21 -51 -63v-23h-48v19c0 35.333 8.5 63 25.5 83s42.167 30 75.5 30z" />
    <glyph glyph-name="acute" unicode="&#xb4;" horiz-adv-x="223" 
d="M101 848h77l-93 -103h-54z" />
    <glyph glyph-name="uni00B5" unicode="&#xb5;" horiz-adv-x="398" 
d="M286 0v72c-9.33301 -24 -23 -43.167 -41 -57.5s-38 -21.5 -60 -21.5c-34 0 -56.667 15.333 -68 46v-131h-78v592h78v-334c0 -67.333 27 -101 81 -101s81 33.667 81 101v334h78v-500h-71z" />
    <glyph glyph-name="paragraph" unicode="&#xb6;" horiz-adv-x="396" 
d="M293 643l-90 -0.000976562v-706h-57l1 340c-42.667 0.666992 -74.667 15.834 -96 45.501s-32 70.5 -32 122.5v86c0 112.667 50.333 169 151 169h180v-763h-57v706z" />
    <glyph glyph-name="periodcentered" unicode="&#xb7;" horiz-adv-x="155" 
d="M40 403h75v-97h-75v97z" />
    <glyph glyph-name="cedilla" unicode="&#xb8;" horiz-adv-x="249" 
d="M143 9v-48c49.333 0 74 -16.333 74 -49c0 -23.333 -8.33301 -39.333 -25 -48s-39.667 -13 -69 -13c-61.333 0 -92 19.667 -92 59v8h53v-7c0 -18.667 13 -28.667 39 -30c26.667 0 40 11 40 33c0 21.333 -15.667 32 -47 32h-8v63h35z" />
    <glyph glyph-name="onesuperior" unicode="&#xb9;" horiz-adv-x="189" 
d="M30 700v36.998c22 0.666992 38.333 5.83398 49 15.501s19.667 23.834 27 42.501h35v-444h-50v367c-16.667 -10 -37 -16 -61 -18z" />
    <glyph glyph-name="ordmasculine" unicode="&#xba;" horiz-adv-x="277" 
d="M138 705c33.333 0 58.833 -10 76.5 -30s26.5 -47.333 26.5 -82v-153c0 -34.667 -8.83301 -62 -26.5 -82s-43.167 -30 -76.5 -30s-58.666 10 -75.999 30s-26 47.333 -26 82v153c0 34.667 8.66699 62 26 82s42.666 30 75.999 30zM138 659c-34.667 0 -52 -21 -52 -63v-159
c0 -42 17.333 -63 52 -63s52 21 52 63v159c0 42 -17.333 63 -52 63zM37 278h204v-50h-204v50z" />
    <glyph glyph-name="guillemotright" unicode="&#xbb;" horiz-adv-x="320" 
d="M24 90l63 261l-63 251h70l64 -251l-64 -261h-70zM162 90l63 261l-63 251h70l64 -251l-64 -261h-70z" />
    <glyph glyph-name="onequarter" unicode="&#xbc;" horiz-adv-x="577" 
d="M118 256v366.998c-16.667 -10 -37 -16 -61 -18v37c22 0.666992 38.333 5.83398 49 15.501s19.667 23.834 27 42.501h35v-444h-50zM459 699.998l-276 -700h-47l276 700h47zM516 87.998v-88h-50v88h-143v47l137 309h56v-309h34v-47h-34zM369 134.998h97v212z" />
    <glyph glyph-name="onehalf" unicode="&#xbd;" horiz-adv-x="599" 
d="M118 256v366.998c-16.667 -10 -37 -16 -61 -18v37c22 0.666992 38.333 5.83398 49 15.501s19.667 23.834 27 42.501h35v-444h-50zM392 699.998h47l-276 -700h-47zM466 449.998c33.333 0 58.333 -10 75 -30s25 -47.667 25 -83c0 -24.667 -5.16699 -48.167 -15.5 -70.5
s-22.833 -41.666 -37.5 -57.999l-44 -48.5c-14.667 -16 -27.167 -33.167 -37.5 -51.5s-15.833 -36.833 -16.5 -55.5v-7h146v-46h-196v38c0 26 5.16699 50.333 15.5 73s22.833 42.167 37.5 58.5l44.5 48c15 15.667 27.667 33.5 38 53.5s15.5 41.667 15.5 65
c0 45.333 -17.333 68 -52 68c-34 0 -51 -21.667 -51 -65v-38h-48v35c0 35.333 8.33301 63.166 25 83.499s42 30.5 76 30.5z" />
    <glyph glyph-name="threequarters" unicode="&#xbe;" horiz-adv-x="602" 
d="M138 705c33.333 0 58.333 -10 75 -30s25 -47.667 25 -83v-11c0 -46.667 -17.333 -77 -52 -91c34.667 -13.333 52 -44 52 -92v-34c0 -35.333 -8.33301 -63 -25 -83s-41.667 -30 -75 -30s-58.5 10 -75.5 30s-25.5 47.667 -25.5 83v30h48v-34c0 -42 17 -63 51 -63
c34.667 0 52 22.667 52 68v34c0 43.333 -18.333 65 -55 65h-27v46h29c16 0 28.833 5.5 38.5 16.5s14.5 25.833 14.5 44.5v20c0 45.333 -17.333 68 -52 68c-34 0 -51 -21 -51 -63v-23h-48v19c0 35.333 8.5 63 25.5 83s42.167 30 75.5 30zM168 0l276 700h47l-276 -700h-47z
M491 0v88h-143v47l137 309h56v-309h34v-47h-34v-88h-50zM491 347l-97 -212h97v212z" />
    <glyph glyph-name="questiondown" unicode="&#xbf;" horiz-adv-x="361" 
d="M156 700h75v-97h-75v97zM158 544l69 0.00195312c4 -12 6 -25.333 6 -40c0 -28 -4.66699 -53.833 -14 -77.5s-20.333 -44.334 -33 -62.001l-38.5 -53c-13 -17.667 -24 -38.834 -33 -63.501s-13.5 -52 -13.5 -82c0 -68.667 26.667 -103 80 -103s80 34.333 80 103v62h74v-57
c0 -55.333 -13 -98.833 -39 -130.5s-65 -47.5 -117 -47.5s-90.833 15.667 -116.5 47s-38.5 74.666 -38.5 129.999c0 31.333 4.66699 60.166 14 86.499s20.833 48.666 34.5 66.999l41 54c13.667 17.667 25.167 37.334 34.5 59.001s14 44.834 14 69.501
c0 14.667 -1.33301 27.334 -4 38.001z" />
    <glyph glyph-name="Agrave" unicode="&#xc0;" horiz-adv-x="422" 
d="M110 840h80l70 -103h-57zM296 141h-177l-27 -141h-72l134 700h113l134 -700h-78zM206 612l-77 -404h156z" />
    <glyph glyph-name="Aacute" unicode="&#xc1;" horiz-adv-x="422" 
d="M228 840h77l-92 -103h-55zM296 141h-177l-27 -141h-72l134 700h113l134 -700h-78zM206 612l-77 -404h156z" />
    <glyph glyph-name="Acircumflex" unicode="&#xc2;" horiz-adv-x="422" 
d="M210 796l-53 -59h-68l86 100h70l86 -100h-68zM296 141h-177l-27 -141h-72l134 700h113l134 -700h-78zM206 612l-77 -404h156z" />
    <glyph glyph-name="Atilde" unicode="&#xc3;" horiz-adv-x="422" 
d="M161 826c14.667 0 31.334 -4.99902 50.001 -14.999s32.667 -15 42 -15c17.333 1.33301 30.666 11.333 39.999 30l39 -27c-15.333 -38 -39 -57 -71 -57c-14 -0.666992 -30.5 4 -49.5 14s-33.167 15 -42.5 15c-18.667 0 -32.667 -10 -42 -30l-39 27
c14.667 37.333 39 56.666 73 57.999zM296 141.001h-177l-27 -141h-72l134 700h113l134 -700h-78zM206 612.001l-77 -404h156z" />
    <glyph glyph-name="Adieresis" unicode="&#xc4;" horiz-adv-x="422" 
d="M114 827h68v-90h-68v90zM238 827h68v-90h-68v90zM296 141h-177l-27 -141h-72l134 700h113l134 -700h-78zM206 612l-77 -404h156z" />
    <glyph glyph-name="Aring" unicode="&#xc5;" horiz-adv-x="422" 
d="M210 883c20.667 0 38 -7 52 -21s21 -31.333 21 -52s-7 -38 -21 -52s-31.333 -21 -52 -21c-21.333 0 -39 7 -53 21s-21 31.333 -21 52s7.16699 38 21.5 52s31.833 21 52.5 21zM210 846c-10.667 0 -19.5 -3.5 -26.5 -10.5s-10.5 -15.5 -10.5 -25.5
c0 -10.667 3.5 -19.334 10.5 -26.001s15.833 -10 26.5 -10c10 0 18.5 3.33301 25.5 10s10.5 15.334 10.5 26.001c0 10 -3.5 18.5 -10.5 25.5s-15.5 10.5 -25.5 10.5zM296 141h-177l-27 -141h-72l134 700h113l134 -700h-78zM206 612l-77 -404h156z" />
    <glyph glyph-name="AE" unicode="&#xc6;" horiz-adv-x="585" 
d="M355 390h161v-70h-161v-249h198v-71h-275v142h-143l-45 -142h-74l218 700h319v-71h-198v-239zM278 602l-125 -392h125v392z" />
    <glyph glyph-name="Ccedilla" unicode="&#xc7;" horiz-adv-x="380" 
d="M191 707c52.667 0 92.168 -15.668 118.501 -47.001s39.5 -74.333 39.5 -129v-63h-74v67c0 67.333 -27.333 101 -82 101s-82 -33.667 -82 -101v-370c0 -67.333 27.333 -101 82 -101s82 33.667 82 101v91h74v-87c0 -51.333 -11.833 -92.666 -35.5 -123.999
s-58.834 -48.333 -105.501 -51v-31c23.333 0 41.5 -4.5 54.5 -13.5s19.5 -21.5 19.5 -37.5c0 -20 -8.33301 -35.667 -25 -47s-40 -17 -70 -17c-28.667 0 -51.167 5.5 -67.5 16.5s-24.5 26.167 -24.5 45.5v8h51v-7c0 -17.333 13.667 -27 41 -29c28.667 0 43 10.667 43 32
c0 20 -16.333 30 -49 30h-9v50c-46 3.33301 -80.5 20.5 -103.5 51.5s-34.5 72.167 -34.5 123.5v362c0 54.667 13.167 97.667 39.5 129s65.5 47 117.5 47z" />
    <glyph glyph-name="Egrave" unicode="&#xc8;" horiz-adv-x="360" 
d="M86 845h81l69 -103h-57zM118 390h171v-70h-171v-249h210v-71h-288v700h288v-71h-210v-239z" />
    <glyph glyph-name="Eacute" unicode="&#xc9;" horiz-adv-x="360" 
d="M206 842h77l-93 -103h-54zM118 390h171v-70h-171v-249h210v-71h-288v700h288v-71h-210v-239z" />
    <glyph glyph-name="Ecircumflex" unicode="&#xca;" horiz-adv-x="360" 
d="M182 799l-52 -60h-68l86 101h69l87 -101h-68zM118 390h171v-70h-171v-249h210v-71h-288v700h288v-71h-210v-239z" />
    <glyph glyph-name="Edieresis" unicode="&#xcb;" horiz-adv-x="360" 
d="M87 829h68v-90h-68v90zM211 829h68v-90h-68v90zM118 390h171v-70h-171v-249h210v-71h-288v700h288v-71h-210v-239z" />
    <glyph glyph-name="Igrave" unicode="&#xcc;" horiz-adv-x="158" 
d="M68 739l-93 103h81l70 -103h-58zM40 0v700h78v-700h-78z" />
    <glyph glyph-name="Iacute" unicode="&#xcd;" horiz-adv-x="158" 
d="M31 739l69 103h78l-93 -103h-54zM40 0v700h78v-700h-78z" />
    <glyph glyph-name="Icircumflex" unicode="&#xce;" horiz-adv-x="158" 
d="M44 839h69l87 -100h-68l-53 59l-53 -59h-68zM40 0v700h78v-700h-78z" />
    <glyph glyph-name="Idieresis" unicode="&#xcf;" horiz-adv-x="158" 
d="M-17 829h68v-90h-68v90zM107 829h68v-90h-68v90zM40 700h78v-700h-78v700z" />
    <glyph glyph-name="Eth" unicode="&#xd0;" horiz-adv-x="396" 
d="M40 700l164 -0.000976562c53.333 0 93.166 -15.167 119.499 -45.5s39.5 -73.166 39.5 -128.499v-353c0 -54.667 -13.167 -97.167 -39.5 -127.5s-66.166 -45.5 -119.499 -45.5h-164v318h-41v64h41v318zM196 381.999v-64h-78v-247h85c55.333 0 83 33 83 99v360
c0 66 -28 99 -84 99h-84v-247h78z" />
    <glyph glyph-name="Ntilde" unicode="&#xd1;" horiz-adv-x="409" 
d="M288 830l39.001 -26c-15.333 -38.667 -39 -58 -71 -58c-14 -0.666992 -30.5 4 -49.5 14s-33.167 15 -42.5 15c-18.667 0 -32.667 -9.66699 -42 -29l-39 26c15.333 38.667 40 58 74 58c14 0 30.333 -4.83301 49 -14.5s32.667 -14.5 42 -14.5
c17.333 0 30.666 9.66699 39.999 29zM109.001 566v-566h-70v700h99l162 -506v506h69v-700h-81z" />
    <glyph glyph-name="Ograve" unicode="&#xd2;" horiz-adv-x="389" 
d="M93 845h81l69 -103h-57zM194 707c52.667 0 92.667 -15.667 120 -47s41 -74.333 41 -129v-362c0 -54.667 -13.667 -97.667 -41 -129s-67.333 -47 -120 -47c-52 0 -91.667 15.667 -119 47s-41 74.333 -41 129v362c0 54.667 13.5 97.667 40.5 129s66.833 47 119.5 47z
M194 636c-55.333 0 -83 -33.667 -83 -101v-370c0 -67.333 27.667 -101 83 -101s83 33.667 83 101v370c0 67.333 -27.667 101 -83 101z" />
    <glyph glyph-name="Oacute" unicode="&#xd3;" horiz-adv-x="389" 
d="M216 845h77l-93 -103h-54zM194 707c52.667 0 92.667 -15.667 120 -47s41 -74.333 41 -129v-362c0 -54.667 -13.667 -97.667 -41 -129s-67.333 -47 -120 -47c-52 0 -91.667 15.667 -119 47s-41 74.333 -41 129v362c0 54.667 13.5 97.667 40.5 129s66.833 47 119.5 47z
M194 636c-55.333 0 -83 -33.667 -83 -101v-370c0 -67.333 27.667 -101 83 -101s83 33.667 83 101v370c0 67.333 -27.667 101 -83 101z" />
    <glyph glyph-name="Ocircumflex" unicode="&#xd4;" horiz-adv-x="389" 
d="M193 800l-52 -59h-68l86 101h69l87 -101h-68zM194 707c52.667 0 92.667 -15.667 120 -47s41 -74.333 41 -129v-362c0 -54.667 -13.667 -97.667 -41 -129s-67.333 -47 -120 -47c-52 0 -91.667 15.667 -119 47s-41 74.333 -41 129v362c0 54.667 13.5 97.667 40.5 129
s66.833 47 119.5 47zM194 636c-55.333 0 -83 -33.667 -83 -101v-370c0 -67.333 27.667 -101 83 -101s83 33.667 83 101v370c0 67.333 -27.667 101 -83 101z" />
    <glyph glyph-name="Otilde" unicode="&#xd5;" horiz-adv-x="389" 
d="M280 829l38 -26.999c-14 -38 -37.667 -57 -71 -57c-14 -0.666992 -30.5 4 -49.5 14s-33.167 15 -42.5 15c-18 0 -32 -10 -42 -30l-39 27c15.333 37.333 40 56.666 74 57.999c14 0 30.5 -5 49.5 -15s33.167 -15 42.5 -15c16.667 0.666992 30 10.667 40 30zM194 707.001
c52.667 0 92.667 -15.667 120 -47s41 -74.333 41 -129v-362c0 -54.667 -13.667 -97.667 -41 -129s-67.333 -47 -120 -47c-52 0 -91.667 15.667 -119 47s-41 74.333 -41 129v362c0 54.667 13.5 97.667 40.5 129s66.833 47 119.5 47zM194 636.001
c-55.333 0 -83 -33.667 -83 -101v-370c0 -67.333 27.667 -101 83 -101s83 33.667 83 101v370c0 67.333 -27.667 101 -83 101z" />
    <glyph glyph-name="Odieresis" unicode="&#xd6;" horiz-adv-x="389" 
d="M98 831h68v-90h-68v90zM222 831h68v-90h-68v90zM194 707c52.667 0 92.667 -15.667 120 -47s41 -74.333 41 -129v-362c0 -54.667 -13.667 -97.667 -41 -129s-67.333 -47 -120 -47c-52 0 -91.667 15.667 -119 47s-41 74.333 -41 129v362c0 54.667 13.5 97.667 40.5 129
s66.833 47 119.5 47zM194 636c-55.333 0 -83 -33.667 -83 -101v-370c0 -67.333 27.667 -101 83 -101s83 33.667 83 101v370c0 67.333 -27.667 101 -83 101z" />
    <glyph glyph-name="multiply" unicode="&#xd7;" horiz-adv-x="366" 
d="M327 244l-38 -38l-106 106l-106 -106l-38 38l105 106l-105 105l38 38l106 -105l106 105l38 -38l-106 -105z" />
    <glyph glyph-name="Oslash" unicode="&#xd8;" horiz-adv-x="389" 
d="M350 712l-25 -66c20 -30 30 -68.333 30 -115v-362c0 -54.667 -13.667 -97.667 -41 -129s-67.333 -47 -120 -47c-42 0 -76 10.333 -102 31l-19 -50l-34 13l25 67c-20 30 -30 68.333 -30 115v362c0 54.667 13.5 97.667 40.5 129s66.833 47 119.5 47
c42 0 76.333 -10.333 103 -31l18 49zM111 180l155 414c-13.333 28 -37.333 42 -72 42c-55.333 0 -83 -33.667 -83 -101v-355zM194 64c55.333 0 83 33.667 83 101v353l-155 -413c13.333 -27.333 37.333 -41 72 -41z" />
    <glyph glyph-name="Ugrave" unicode="&#xd9;" 
d="M92 842h81l70 -103h-58zM350 700v-531.002c0 -55.333 -13 -98.666 -39 -129.999s-65.333 -47 -118 -47c-52 0 -91 15.833 -117 47.5s-39 74.834 -39 129.501v531h77v-535c0 -67.333 27.333 -101 82 -101c54 0 81 33.667 81 101v535h73z" />
    <glyph glyph-name="Uacute" unicode="&#xda;" 
d="M219 845h77l-93 -103h-54zM350 700v-531.002c0 -55.333 -13 -98.666 -39 -129.999s-65.333 -47 -118 -47c-52 0 -91 15.833 -117 47.5s-39 74.834 -39 129.501v531h77v-535c0 -67.333 27.333 -101 82 -101c54 0 81 33.667 81 101v535h73z" />
    <glyph glyph-name="Ucircumflex" unicode="&#xdb;" 
d="M194 800l-52 -59h-68l86 101h69l87 -101h-68zM350 700v-531.002c0 -55.333 -13 -98.666 -39 -129.999s-65.333 -47 -118 -47c-52 0 -91 15.833 -117 47.5s-39 74.834 -39 129.501v531h77v-535c0 -67.333 27.333 -101 82 -101c54 0 81 33.667 81 101v535h73z" />
    <glyph glyph-name="Udieresis" unicode="&#xdc;" 
d="M98 830h69v-90h-69v90zM223 830h68v-90h-68v90zM350 700v-531.002c0 -55.333 -13 -98.666 -39 -129.999s-65.333 -47 -118 -47c-52 0 -91 15.833 -117 47.5s-39 74.834 -39 129.501v531h77v-535c0 -67.333 27.333 -101 82 -101c54 0 81 33.667 81 101v535h73z" />
    <glyph glyph-name="Yacute" unicode="&#xdd;" horiz-adv-x="406" 
d="M230 842h77l-93 -103h-54zM164 0v251l-148 449h81l109 -344l110 344h74l-149 -449v-251h-77z" />
    <glyph glyph-name="Thorn" unicode="&#xde;" horiz-adv-x="377" 
d="M118 599h75c104.667 0 157 -57.333 157 -172v-83c0 -113.333 -54.333 -170 -163 -170h-69v-174h-78v700h78v-101zM118 245h69c29.333 0 51 7.33301 65 22s21 38.667 21 72v93c0 64 -26.667 96 -80 96h-75v-283z" />
    <glyph glyph-name="germandbls" unicode="&#xdf;" horiz-adv-x="729" 
d="M185 707c52 0 91.0039 -15.501 117.004 -46.501s39 -73.833 39 -128.5v-19h-74v23c0 66.667 -26.667 100 -80 100s-80 -33 -80 -99c0 -24.667 5.83301 -47.5 17.5 -68.5s26.167 -38.667 43.5 -53l56.5 -48l56.5 -51c17.333 -16.333 31.833 -37.5 43.5 -63.5
s17.5 -54.333 17.5 -85c0 -54.667 -13.167 -97.5 -39.5 -128.5s-65.833 -46.5 -118.5 -46.5c-52 0 -91.167 15.5 -117.5 46.5s-39.5 73.833 -39.5 128.5v40h73v-44c0 -66.667 27.333 -100 82 -100s82 33.333 82 100c0 21.333 -4.33301 41 -13 59s-19.834 34 -33.501 48
s-28.834 27.667 -45.501 41l-50 42c-16.667 14.667 -31.834 30 -45.501 46s-24.834 35.333 -33.501 58s-13 47.334 -13 74.001c0 55.333 13 98.333 39 129s64.667 46 116 46zM546.004 706.999c51.333 0 89.9961 -15.502 115.996 -46.502s39 -73.833 39 -128.5v-19h-73v23
c0 66.667 -26.667 100 -80 100s-80 -33 -80 -99c0 -21.333 4.33301 -41.166 13 -59.499s19.834 -34.5 33.501 -48.5s28.834 -27.667 45.501 -41l50 -42c16.667 -14.667 31.834 -30 45.501 -46s24.834 -35.333 33.501 -58s13 -47.334 13 -74.001
c0 -54.667 -13.167 -97.5 -39.5 -128.5s-65.5 -46.5 -117.5 -46.5c-52.667 0 -92.167 15.5 -118.5 46.5s-39.5 73.833 -39.5 128.5v40h74v-44c0 -66.667 27.333 -100 82 -100s82 33.333 82 100c0 24 -5.83301 46.5 -17.5 67.5s-26.167 38.833 -43.5 53.5l-56.5 48
c-20.333 17.333 -39.166 34.333 -56.499 51s-31.833 37.834 -43.5 63.501s-17.5 53.834 -17.5 84.501c0 55.333 13.167 98.333 39.5 129s65.166 46 116.499 46z" />
    <glyph glyph-name="agrave" unicode="&#xe0;" horiz-adv-x="422" 
d="M110 840h80l70 -103h-57zM296 141h-177l-27 -141h-72l134 700h113l134 -700h-78zM206 612l-77 -404h156z" />
    <glyph glyph-name="aacute" unicode="&#xe1;" horiz-adv-x="422" 
d="M228 840h77l-92 -103h-55zM296 141h-177l-27 -141h-72l134 700h113l134 -700h-78zM206 612l-77 -404h156z" />
    <glyph glyph-name="acircumflex" unicode="&#xe2;" horiz-adv-x="422" 
d="M210 796l-53 -59h-68l86 100h70l86 -100h-68zM296 141h-177l-27 -141h-72l134 700h113l134 -700h-78zM206 612l-77 -404h156z" />
    <glyph glyph-name="atilde" unicode="&#xe3;" horiz-adv-x="422" 
d="M161 826c14.667 0 31.334 -4.99902 50.001 -14.999s32.667 -15 42 -15c17.333 1.33301 30.666 11.333 39.999 30l39 -27c-15.333 -38 -39 -57 -71 -57c-14 -0.666992 -30.5 4 -49.5 14s-33.167 15 -42.5 15c-18.667 0 -32.667 -10 -42 -30l-39 27
c14.667 37.333 39 56.666 73 57.999zM296 141.001h-177l-27 -141h-72l134 700h113l134 -700h-78zM206 612.001l-77 -404h156z" />
    <glyph glyph-name="adieresis" unicode="&#xe4;" horiz-adv-x="422" 
d="M114 827h68v-90h-68v90zM238 827h68v-90h-68v90zM296 141h-177l-27 -141h-72l134 700h113l134 -700h-78zM206 612l-77 -404h156z" />
    <glyph glyph-name="aring" unicode="&#xe5;" horiz-adv-x="422" 
d="M210 883c20.667 0 38 -7 52 -21s21 -31.333 21 -52s-7 -38 -21 -52s-31.333 -21 -52 -21c-21.333 0 -39 7 -53 21s-21 31.333 -21 52s7.16699 38 21.5 52s31.833 21 52.5 21zM210 846c-10.667 0 -19.5 -3.5 -26.5 -10.5s-10.5 -15.5 -10.5 -25.5
c0 -10.667 3.5 -19.334 10.5 -26.001s15.833 -10 26.5 -10c10 0 18.5 3.33301 25.5 10s10.5 15.334 10.5 26.001c0 10 -3.5 18.5 -10.5 25.5s-15.5 10.5 -25.5 10.5zM296 141h-177l-27 -141h-72l134 700h113l134 -700h-78zM206 612l-77 -404h156z" />
    <glyph glyph-name="ae" unicode="&#xe6;" horiz-adv-x="585" 
d="M355 390h161v-70h-161v-249h198v-71h-275v142h-143l-45 -142h-74l218 700h319v-71h-198v-239zM278 602l-125 -392h125v392z" />
    <glyph glyph-name="ccedilla" unicode="&#xe7;" horiz-adv-x="380" 
d="M191 707c52.667 0 92.168 -15.668 118.501 -47.001s39.5 -74.333 39.5 -129v-63h-74v67c0 67.333 -27.333 101 -82 101s-82 -33.667 -82 -101v-370c0 -67.333 27.333 -101 82 -101s82 33.667 82 101v91h74v-87c0 -51.333 -11.833 -92.666 -35.5 -123.999
s-58.834 -48.333 -105.501 -51v-31c23.333 0 41.5 -4.5 54.5 -13.5s19.5 -21.5 19.5 -37.5c0 -20 -8.33301 -35.667 -25 -47s-40 -17 -70 -17c-28.667 0 -51.167 5.5 -67.5 16.5s-24.5 26.167 -24.5 45.5v8h51v-7c0 -17.333 13.667 -27 41 -29c28.667 0 43 10.667 43 32
c0 20 -16.333 30 -49 30h-9v50c-46 3.33301 -80.5 20.5 -103.5 51.5s-34.5 72.167 -34.5 123.5v362c0 54.667 13.167 97.667 39.5 129s65.5 47 117.5 47z" />
    <glyph glyph-name="egrave" unicode="&#xe8;" horiz-adv-x="360" 
d="M86 845h81l69 -103h-57zM118 390h171v-70h-171v-249h210v-71h-288v700h288v-71h-210v-239z" />
    <glyph glyph-name="eacute" unicode="&#xe9;" horiz-adv-x="360" 
d="M206 842h77l-93 -103h-54zM118 390h171v-70h-171v-249h210v-71h-288v700h288v-71h-210v-239z" />
    <glyph glyph-name="ecircumflex" unicode="&#xea;" horiz-adv-x="360" 
d="M182 799l-52 -60h-68l86 101h69l87 -101h-68zM118 390h171v-70h-171v-249h210v-71h-288v700h288v-71h-210v-239z" />
    <glyph glyph-name="edieresis" unicode="&#xeb;" horiz-adv-x="360" 
d="M87 829h68v-90h-68v90zM211 829h68v-90h-68v90zM118 390h171v-70h-171v-249h210v-71h-288v700h288v-71h-210v-239z" />
    <glyph glyph-name="igrave" unicode="&#xec;" horiz-adv-x="158" 
d="M68 739l-93 103h81l70 -103h-58zM40 0v700h78v-700h-78z" />
    <glyph glyph-name="iacute" unicode="&#xed;" horiz-adv-x="158" 
d="M31 739l69 103h78l-93 -103h-54zM40 0v700h78v-700h-78z" />
    <glyph glyph-name="icircumflex" unicode="&#xee;" horiz-adv-x="158" 
d="M44 839h69l87 -100h-68l-53 59l-53 -59h-68zM40 0v700h78v-700h-78z" />
    <glyph glyph-name="idieresis" unicode="&#xef;" horiz-adv-x="158" 
d="M-17 829h68v-90h-68v90zM107 829h68v-90h-68v90zM40 700h78v-700h-78v700z" />
    <glyph glyph-name="eth" unicode="&#xf0;" horiz-adv-x="396" 
d="M40 700l164 -0.000976562c53.333 0 93.166 -15.167 119.499 -45.5s39.5 -73.166 39.5 -128.499v-353c0 -54.667 -13.167 -97.167 -39.5 -127.5s-66.166 -45.5 -119.499 -45.5h-164v318h-39v63h39v319zM197 380.999v-63h-79v-247h85c55.333 0 83 33 83 99v360
c0 66 -28 99 -84 99h-84v-248h79z" />
    <glyph glyph-name="ntilde" unicode="&#xf1;" horiz-adv-x="409" 
d="M288 830l39.001 -26c-15.333 -38.667 -39 -58 -71 -58c-14 -0.666992 -30.5 4 -49.5 14s-33.167 15 -42.5 15c-18.667 0 -32.667 -9.66699 -42 -29l-39 26c15.333 38.667 40 58 74 58c14 0 30.333 -4.83301 49 -14.5s32.667 -14.5 42 -14.5
c17.333 0 30.666 9.66699 39.999 29zM109.001 566v-566h-70v700h99l162 -506v506h69v-700h-81z" />
    <glyph glyph-name="ograve" unicode="&#xf2;" horiz-adv-x="389" 
d="M93 845h81l69 -103h-57zM194 707c52.667 0 92.667 -15.667 120 -47s41 -74.333 41 -129v-362c0 -54.667 -13.667 -97.667 -41 -129s-67.333 -47 -120 -47c-52 0 -91.667 15.667 -119 47s-41 74.333 -41 129v362c0 54.667 13.5 97.667 40.5 129s66.833 47 119.5 47z
M194 636c-55.333 0 -83 -33.667 -83 -101v-370c0 -67.333 27.667 -101 83 -101s83 33.667 83 101v370c0 67.333 -27.667 101 -83 101z" />
    <glyph glyph-name="oacute" unicode="&#xf3;" horiz-adv-x="389" 
d="M216 845h77l-93 -103h-54zM194 707c52.667 0 92.667 -15.667 120 -47s41 -74.333 41 -129v-362c0 -54.667 -13.667 -97.667 -41 -129s-67.333 -47 -120 -47c-52 0 -91.667 15.667 -119 47s-41 74.333 -41 129v362c0 54.667 13.5 97.667 40.5 129s66.833 47 119.5 47z
M194 636c-55.333 0 -83 -33.667 -83 -101v-370c0 -67.333 27.667 -101 83 -101s83 33.667 83 101v370c0 67.333 -27.667 101 -83 101z" />
    <glyph glyph-name="ocircumflex" unicode="&#xf4;" horiz-adv-x="389" 
d="M193 800l-52 -59h-68l86 101h69l87 -101h-68zM194 707c52.667 0 92.667 -15.667 120 -47s41 -74.333 41 -129v-362c0 -54.667 -13.667 -97.667 -41 -129s-67.333 -47 -120 -47c-52 0 -91.667 15.667 -119 47s-41 74.333 -41 129v362c0 54.667 13.5 97.667 40.5 129
s66.833 47 119.5 47zM194 636c-55.333 0 -83 -33.667 -83 -101v-370c0 -67.333 27.667 -101 83 -101s83 33.667 83 101v370c0 67.333 -27.667 101 -83 101z" />
    <glyph glyph-name="otilde" unicode="&#xf5;" horiz-adv-x="389" 
d="M280 829l38 -26.999c-14 -38 -37.667 -57 -71 -57c-14 -0.666992 -30.5 4 -49.5 14s-33.167 15 -42.5 15c-18 0 -32 -10 -42 -30l-39 27c15.333 37.333 40 56.666 74 57.999c14 0 30.5 -5 49.5 -15s33.167 -15 42.5 -15c16.667 0.666992 30 10.667 40 30zM194 707.001
c52.667 0 92.667 -15.667 120 -47s41 -74.333 41 -129v-362c0 -54.667 -13.667 -97.667 -41 -129s-67.333 -47 -120 -47c-52 0 -91.667 15.667 -119 47s-41 74.333 -41 129v362c0 54.667 13.5 97.667 40.5 129s66.833 47 119.5 47zM194 636.001
c-55.333 0 -83 -33.667 -83 -101v-370c0 -67.333 27.667 -101 83 -101s83 33.667 83 101v370c0 67.333 -27.667 101 -83 101z" />
    <glyph glyph-name="odieresis" unicode="&#xf6;" horiz-adv-x="389" 
d="M98 831h68v-90h-68v90zM222 831h68v-90h-68v90zM194 707c52.667 0 92.667 -15.667 120 -47s41 -74.333 41 -129v-362c0 -54.667 -13.667 -97.667 -41 -129s-67.333 -47 -120 -47c-52 0 -91.667 15.667 -119 47s-41 74.333 -41 129v362c0 54.667 13.5 97.667 40.5 129
s66.833 47 119.5 47zM194 636c-55.333 0 -83 -33.667 -83 -101v-370c0 -67.333 27.667 -101 83 -101s83 33.667 83 101v370c0 67.333 -27.667 101 -83 101z" />
    <glyph glyph-name="divide" unicode="&#xf7;" horiz-adv-x="350" 
d="M137 527h75v-97h-75v97zM30 378h290v-56h-290v56zM137 270h75v-97h-75v97z" />
    <glyph glyph-name="oslash" unicode="&#xf8;" horiz-adv-x="389" 
d="M350 712l-25 -66c20 -30 30 -68.333 30 -115v-362c0 -54.667 -13.667 -97.667 -41 -129s-67.333 -47 -120 -47c-42 0 -76 10.333 -102 31l-19 -50l-34 13l25 67c-20 30 -30 68.333 -30 115v362c0 54.667 13.5 97.667 40.5 129s66.833 47 119.5 47
c42 0 76.333 -10.333 103 -31l18 49zM111 180l155 414c-13.333 28 -37.333 42 -72 42c-55.333 0 -83 -33.667 -83 -101v-355zM194 64c55.333 0 83 33.667 83 101v353l-155 -413c13.333 -27.333 37.333 -41 72 -41z" />
    <glyph glyph-name="ugrave" unicode="&#xf9;" 
d="M92 842h81l70 -103h-58zM350 700v-531.002c0 -55.333 -13 -98.666 -39 -129.999s-65.333 -47 -118 -47c-52 0 -91 15.833 -117 47.5s-39 74.834 -39 129.501v531h77v-535c0 -67.333 27.333 -101 82 -101c54 0 81 33.667 81 101v535h73z" />
    <glyph glyph-name="uacute" unicode="&#xfa;" 
d="M219 845h77l-93 -103h-54zM350 700v-531.002c0 -55.333 -13 -98.666 -39 -129.999s-65.333 -47 -118 -47c-52 0 -91 15.833 -117 47.5s-39 74.834 -39 129.501v531h77v-535c0 -67.333 27.333 -101 82 -101c54 0 81 33.667 81 101v535h73z" />
    <glyph glyph-name="ucircumflex" unicode="&#xfb;" 
d="M194 800l-52 -59h-68l86 101h69l87 -101h-68zM350 700v-531.002c0 -55.333 -13 -98.666 -39 -129.999s-65.333 -47 -118 -47c-52 0 -91 15.833 -117 47.5s-39 74.834 -39 129.501v531h77v-535c0 -67.333 27.333 -101 82 -101c54 0 81 33.667 81 101v535h73z" />
    <glyph glyph-name="udieresis" unicode="&#xfc;" 
d="M98 830h69v-90h-69v90zM223 830h68v-90h-68v90zM350 700v-531.002c0 -55.333 -13 -98.666 -39 -129.999s-65.333 -47 -118 -47c-52 0 -91 15.833 -117 47.5s-39 74.834 -39 129.501v531h77v-535c0 -67.333 27.333 -101 82 -101c54 0 81 33.667 81 101v535h73z" />
    <glyph glyph-name="yacute" unicode="&#xfd;" horiz-adv-x="406" 
d="M230 842h77l-93 -103h-54zM164 0v251l-148 449h81l109 -344l110 344h74l-149 -449v-251h-77z" />
    <glyph glyph-name="thorn" unicode="&#xfe;" horiz-adv-x="377" 
d="M118 599h75c104.667 0 157 -57.333 157 -172v-83c0 -113.333 -54.333 -170 -163 -170h-69v-174h-78v700h78v-101zM118 245h69c29.333 0 51 7.33301 65 22s21 38.667 21 72v93c0 64 -26.667 96 -80 96h-75v-283z" />
    <glyph glyph-name="ydieresis" unicode="&#xff;" horiz-adv-x="406" 
d="M109 829h68v-90h-68v90zM233 829h68v-90h-68v90zM164 0v251l-148 449h81l109 -344l110 344h74l-149 -449v-251h-77z" />
    <glyph glyph-name="Amacron" unicode="&#x100;" horiz-adv-x="422" 
d="M104 806h212v-56h-212v56zM296 141h-177l-27 -141h-72l134 700h113l134 -700h-78zM206 612l-77 -404h156z" />
    <glyph glyph-name="amacron" unicode="&#x101;" horiz-adv-x="422" 
d="M104 806h212v-56h-212v56zM296 141h-177l-27 -141h-72l134 700h113l134 -700h-78zM206 612l-77 -404h156z" />
    <glyph glyph-name="Abreve" unicode="&#x102;" horiz-adv-x="422" 
d="M267 834h47.001c0 -31.333 -9.33301 -56 -28 -74s-44.334 -27 -77.001 -27c-32 0 -57 9 -75 27s-27.333 42.667 -28 74h47c2 -34.667 20.667 -52 56 -52c36.667 0 56 17.333 58 52zM296.001 141h-177l-27 -141h-72l134 700h113l134 -700h-78zM206.001 612l-77 -404h156z
" />
    <glyph glyph-name="abreve" unicode="&#x103;" horiz-adv-x="422" 
d="M267 834h47.001c0 -31.333 -9.33301 -56 -28 -74s-44.334 -27 -77.001 -27c-32 0 -57 9 -75 27s-27.333 42.667 -28 74h47c2 -34.667 20.667 -52 56 -52c36.667 0 56 17.333 58 52zM296.001 141h-177l-27 -141h-72l134 700h113l134 -700h-78zM206.001 612l-77 -404h156z
" />
    <glyph glyph-name="Aogonek" unicode="&#x104;" horiz-adv-x="422" 
d="M401 0h-27.999c-25.333 -21.333 -37.333 -44.333 -36 -69c0.666992 -20 13 -30 37 -30c13.333 0 26.666 3 39.999 9v-41c-18 -8 -38.667 -12 -62 -12c-22.667 0 -40.667 4.66699 -54 14s-20.333 23.333 -21 42c-1.33301 30 14.667 56.667 48 80l-29 148h-177l-27 -141
h-72l134 700h113zM206.001 612l-77 -404h156z" />
    <glyph glyph-name="aogonek" unicode="&#x105;" horiz-adv-x="422" 
d="M401 0h-27.999c-25.333 -21.333 -37.333 -44.333 -36 -69c0.666992 -20 13 -30 37 -30c13.333 0 26.666 3 39.999 9v-41c-18 -8 -38.667 -12 -62 -12c-22.667 0 -40.667 4.66699 -54 14s-20.333 23.333 -21 42c-1.33301 30 14.667 56.667 48 80l-29 148h-177l-27 -141
h-72l134 700h113zM206.001 612l-77 -404h156z" />
    <glyph glyph-name="Cacute" unicode="&#x106;" horiz-adv-x="380" 
d="M215 845h78l-93 -103h-55zM191 707c52.667 0 92.167 -15.667 118.5 -47s39.5 -74.333 39.5 -129v-63h-74v67c0 67.333 -27.333 101 -82 101s-82 -33.667 -82 -101v-370c0 -67.333 27.333 -101 82 -101s82 33.667 82 101v91h74v-87c0 -54.667 -13.167 -97.667 -39.5 -129
s-65.833 -47 -118.5 -47c-52 0 -91.167 15.667 -117.5 47s-39.5 74.333 -39.5 129v362c0 54.667 13.167 97.667 39.5 129s65.5 47 117.5 47z" />
    <glyph glyph-name="cacute" unicode="&#x107;" horiz-adv-x="380" 
d="M215 845h78l-93 -103h-55zM191 707c52.667 0 92.167 -15.667 118.5 -47s39.5 -74.333 39.5 -129v-63h-74v67c0 67.333 -27.333 101 -82 101s-82 -33.667 -82 -101v-370c0 -67.333 27.333 -101 82 -101s82 33.667 82 101v91h74v-87c0 -54.667 -13.167 -97.667 -39.5 -129
s-65.833 -47 -118.5 -47c-52 0 -91.167 15.667 -117.5 47s-39.5 74.333 -39.5 129v362c0 54.667 13.167 97.667 39.5 129s65.5 47 117.5 47z" />
    <glyph glyph-name="Ccircumflex" unicode="&#x108;" horiz-adv-x="380" 
d="M193 799l-53 -59h-68l86 101h69l87 -101h-68zM191 707c52.667 0 92.167 -15.667 118.5 -47s39.5 -74.333 39.5 -129v-63h-74v67c0 67.333 -27.333 101 -82 101s-82 -33.667 -82 -101v-370c0 -67.333 27.333 -101 82 -101s82 33.667 82 101v91h74v-87
c0 -54.667 -13.167 -97.667 -39.5 -129s-65.833 -47 -118.5 -47c-52 0 -91.167 15.667 -117.5 47s-39.5 74.333 -39.5 129v362c0 54.667 13.167 97.667 39.5 129s65.5 47 117.5 47z" />
    <glyph glyph-name="ccircumflex" unicode="&#x109;" horiz-adv-x="380" 
d="M193 799l-53 -59h-68l86 101h69l87 -101h-68zM191 707c52.667 0 92.167 -15.667 118.5 -47s39.5 -74.333 39.5 -129v-63h-74v67c0 67.333 -27.333 101 -82 101s-82 -33.667 -82 -101v-370c0 -67.333 27.333 -101 82 -101s82 33.667 82 101v91h74v-87
c0 -54.667 -13.167 -97.667 -39.5 -129s-65.833 -47 -118.5 -47c-52 0 -91.167 15.667 -117.5 47s-39.5 74.333 -39.5 129v362c0 54.667 13.167 97.667 39.5 129s65.5 47 117.5 47z" />
    <glyph glyph-name="Cdotaccent" unicode="&#x10a;" horiz-adv-x="380" 
d="M157 828h68v-90h-68v90zM191 707c52.667 0 92.167 -15.667 118.5 -47s39.5 -74.333 39.5 -129v-63h-74v67c0 67.333 -27.333 101 -82 101s-82 -33.667 -82 -101v-370c0 -67.333 27.333 -101 82 -101s82 33.667 82 101v91h74v-87c0 -54.667 -13.167 -97.667 -39.5 -129
s-65.833 -47 -118.5 -47c-52 0 -91.167 15.667 -117.5 47s-39.5 74.333 -39.5 129v362c0 54.667 13.167 97.667 39.5 129s65.5 47 117.5 47z" />
    <glyph glyph-name="cdotaccent" unicode="&#x10b;" horiz-adv-x="380" 
d="M157 828h68v-90h-68v90zM191 707c52.667 0 92.167 -15.667 118.5 -47s39.5 -74.333 39.5 -129v-63h-74v67c0 67.333 -27.333 101 -82 101s-82 -33.667 -82 -101v-370c0 -67.333 27.333 -101 82 -101s82 33.667 82 101v91h74v-87c0 -54.667 -13.167 -97.667 -39.5 -129
s-65.833 -47 -118.5 -47c-52 0 -91.167 15.667 -117.5 47s-39.5 74.333 -39.5 129v362c0 54.667 13.167 97.667 39.5 129s65.5 47 117.5 47z" />
    <glyph glyph-name="Ccaron" unicode="&#x10c;" horiz-adv-x="380" 
d="M73 841h68l52 -60l53 60h69l-87 -100h-69zM191 707c52.667 0 92.167 -15.667 118.5 -47s39.5 -74.333 39.5 -129v-63h-74v67c0 67.333 -27.333 101 -82 101s-82 -33.667 -82 -101v-370c0 -67.333 27.333 -101 82 -101s82 33.667 82 101v91h74v-87
c0 -54.667 -13.167 -97.667 -39.5 -129s-65.833 -47 -118.5 -47c-52 0 -91.167 15.667 -117.5 47s-39.5 74.333 -39.5 129v362c0 54.667 13.167 97.667 39.5 129s65.5 47 117.5 47z" />
    <glyph glyph-name="ccaron" unicode="&#x10d;" horiz-adv-x="380" 
d="M73 841h68l52 -60l53 60h69l-87 -100h-69zM191 707c52.667 0 92.167 -15.667 118.5 -47s39.5 -74.333 39.5 -129v-63h-74v67c0 67.333 -27.333 101 -82 101s-82 -33.667 -82 -101v-370c0 -67.333 27.333 -101 82 -101s82 33.667 82 101v91h74v-87
c0 -54.667 -13.167 -97.667 -39.5 -129s-65.833 -47 -118.5 -47c-52 0 -91.167 15.667 -117.5 47s-39.5 74.333 -39.5 129v362c0 54.667 13.167 97.667 39.5 129s65.5 47 117.5 47z" />
    <glyph glyph-name="Dcaron" unicode="&#x10e;" horiz-adv-x="396" 
d="M67 839h68l53 -60l53 60h69l-87 -100h-69zM40 700l164 -0.000976562c53.333 0 93.166 -15.167 119.499 -45.5s39.5 -73.166 39.5 -128.499v-353c0 -54.667 -13.167 -97.167 -39.5 -127.5s-66.166 -45.5 -119.499 -45.5h-164v700zM118 70.999h85c55.333 0 83 33 83 99v360
c0 66 -28 99 -84 99h-84v-558z" />
    <glyph glyph-name="dcaron" unicode="&#x10f;" horiz-adv-x="396" 
d="M67 839h68l53 -60l53 60h69l-87 -100h-69zM40 700l164 -0.000976562c53.333 0 93.166 -15.167 119.499 -45.5s39.5 -73.166 39.5 -128.499v-353c0 -54.667 -13.167 -97.167 -39.5 -127.5s-66.166 -45.5 -119.499 -45.5h-164v700zM118 70.999h85c55.333 0 83 33 83 99v360
c0 66 -28 99 -84 99h-84v-558z" />
    <glyph glyph-name="Dcroat" unicode="&#x110;" horiz-adv-x="396" 
d="M40 700l164 -0.000976562c53.333 0 93.166 -15.167 119.499 -45.5s39.5 -73.166 39.5 -128.499v-353c0 -54.667 -13.167 -97.167 -39.5 -127.5s-66.166 -45.5 -119.499 -45.5h-164v318h-39v63h39v319zM197 380.999v-63h-79v-247h85c55.333 0 83 33 83 99v360
c0 66 -28 99 -84 99h-84v-248h79z" />
    <glyph glyph-name="dcroat" unicode="&#x111;" horiz-adv-x="396" 
d="M40 700l164 -0.000976562c53.333 0 93.166 -15.167 119.499 -45.5s39.5 -73.166 39.5 -128.499v-353c0 -54.667 -13.167 -97.167 -39.5 -127.5s-66.166 -45.5 -119.499 -45.5h-164v318h-39v63h39v319zM197 380.999v-63h-79v-247h85c55.333 0 83 33 83 99v360
c0 66 -28 99 -84 99h-84v-248h79z" />
    <glyph glyph-name="Emacron" unicode="&#x112;" horiz-adv-x="360" 
d="M77 807h209v-55h-209v55zM118 390h171v-70h-171v-249h210v-71h-288v700h288v-71h-210v-239z" />
    <glyph glyph-name="emacron" unicode="&#x113;" horiz-adv-x="360" 
d="M77 807h209v-55h-209v55zM118 390h171v-70h-171v-249h210v-71h-288v700h288v-71h-210v-239z" />
    <glyph glyph-name="Ebreve" unicode="&#x114;" horiz-adv-x="360" 
d="M240 840h47.001c-0.666992 -31.333 -10.334 -56 -29.001 -74s-44.334 -27 -77.001 -27c-32 0 -57 9 -75 27s-27.333 42.667 -28 74h47c2 -34.667 20.667 -52 56 -52c36.667 0 56.334 17.333 59.001 52zM118.001 390h171v-70h-171v-249h210v-71h-288v700h288v-71h-210
v-239z" />
    <glyph glyph-name="ebreve" unicode="&#x115;" horiz-adv-x="360" 
d="M240 840h47.001c-0.666992 -31.333 -10.334 -56 -29.001 -74s-44.334 -27 -77.001 -27c-32 0 -57 9 -75 27s-27.333 42.667 -28 74h47c2 -34.667 20.667 -52 56 -52c36.667 0 56.334 17.333 59.001 52zM118.001 390h171v-70h-171v-249h210v-71h-288v700h288v-71h-210
v-239z" />
    <glyph glyph-name="Edotaccent" unicode="&#x116;" horiz-adv-x="360" 
d="M150 830h68v-90h-68v90zM118 390h171v-70h-171v-249h210v-71h-288v700h288v-71h-210v-239z" />
    <glyph glyph-name="edotaccent" unicode="&#x117;" horiz-adv-x="360" 
d="M150 830h68v-90h-68v90zM118 390h171v-70h-171v-249h210v-71h-288v700h288v-71h-210v-239z" />
    <glyph glyph-name="Eogonek" unicode="&#x118;" horiz-adv-x="360" 
d="M118 390h170.999v-70h-171v-249h210v-71h-33c-24.667 -20 -37 -43 -37 -69c0.666992 -20 13.334 -30 38.001 -30c12.667 0 25.667 3 39 9v-41c-18 -8 -38.333 -12 -61 -12c-50 0 -75.333 18.667 -76 56c0 32.667 20.333 61.667 61 87h-219v700h288v-71h-210v-239z" />
    <glyph glyph-name="eogonek" unicode="&#x119;" horiz-adv-x="360" 
d="M118 390h170.999v-70h-171v-249h210v-71h-33c-24.667 -20 -37 -43 -37 -69c0.666992 -20 13.334 -30 38.001 -30c12.667 0 25.667 3 39 9v-41c-18 -8 -38.333 -12 -61 -12c-50 0 -75.333 18.667 -76 56c0 32.667 20.333 61.667 61 87h-219v700h288v-71h-210v-239z" />
    <glyph glyph-name="Ecaron" unicode="&#x11a;" horiz-adv-x="360" 
d="M63 839h68l52 -60l54 60h68l-87 -100h-69zM118 390h171v-70h-171v-249h210v-71h-288v700h288v-71h-210v-239z" />
    <glyph glyph-name="ecaron" unicode="&#x11b;" horiz-adv-x="360" 
d="M63 839h68l52 -60l54 60h68l-87 -100h-69zM118 390h171v-70h-171v-249h210v-71h-288v700h288v-71h-210v-239z" />
    <glyph glyph-name="Gcircumflex" unicode="&#x11c;" horiz-adv-x="383" 
d="M191 801l-52 -59h-68l86 100h69l87 -100h-68zM191 707c52.667 0 92.167 -15.667 118.5 -47s39.5 -74.333 39.5 -129v-60h-74v64c0 67.333 -27.333 101 -82 101s-82 -33.667 -82 -101v-370c0 -67.333 27.333 -101 82 -101s82 33.667 82 101v140h-72v70h146v-206
c0 -54.667 -13.167 -97.667 -39.5 -129s-65.833 -47 -118.5 -47c-52 0 -91.167 15.667 -117.5 47s-39.5 74.333 -39.5 129v362c0 54.667 13.167 97.667 39.5 129s65.5 47 117.5 47z" />
    <glyph glyph-name="gcircumflex" unicode="&#x11d;" horiz-adv-x="383" 
d="M191 801l-52 -59h-68l86 100h69l87 -100h-68zM191 707c52.667 0 92.167 -15.667 118.5 -47s39.5 -74.333 39.5 -129v-60h-74v64c0 67.333 -27.333 101 -82 101s-82 -33.667 -82 -101v-370c0 -67.333 27.333 -101 82 -101s82 33.667 82 101v140h-72v70h146v-206
c0 -54.667 -13.167 -97.667 -39.5 -129s-65.833 -47 -118.5 -47c-52 0 -91.167 15.667 -117.5 47s-39.5 74.333 -39.5 129v362c0 54.667 13.167 97.667 39.5 129s65.5 47 117.5 47z" />
    <glyph glyph-name="Gbreve" unicode="&#x11e;" horiz-adv-x="383" 
d="M249 841h47c-0.666992 -31.333 -10.167 -56 -28.5 -74s-43.833 -27 -76.5 -27s-58 9 -76 27s-27.333 42.667 -28 74h47c2.66699 -34.667 21.667 -52 57 -52c36 0 55.333 17.333 58 52zM191 707c52.667 0 92.167 -15.667 118.5 -47s39.5 -74.333 39.5 -129v-60h-74v64
c0 67.333 -27.333 101 -82 101s-82 -33.667 -82 -101v-370c0 -67.333 27.333 -101 82 -101s82 33.667 82 101v140h-72v70h146v-206c0 -54.667 -13.167 -97.667 -39.5 -129s-65.833 -47 -118.5 -47c-52 0 -91.167 15.667 -117.5 47s-39.5 74.333 -39.5 129v362
c0 54.667 13.167 97.667 39.5 129s65.5 47 117.5 47z" />
    <glyph glyph-name="gbreve" unicode="&#x11f;" horiz-adv-x="383" 
d="M249 841h47c-0.666992 -31.333 -10.167 -56 -28.5 -74s-43.833 -27 -76.5 -27s-58 9 -76 27s-27.333 42.667 -28 74h47c2.66699 -34.667 21.667 -52 57 -52c36 0 55.333 17.333 58 52zM191 707c52.667 0 92.167 -15.667 118.5 -47s39.5 -74.333 39.5 -129v-60h-74v64
c0 67.333 -27.333 101 -82 101s-82 -33.667 -82 -101v-370c0 -67.333 27.333 -101 82 -101s82 33.667 82 101v140h-72v70h146v-206c0 -54.667 -13.167 -97.667 -39.5 -129s-65.833 -47 -118.5 -47c-52 0 -91.167 15.667 -117.5 47s-39.5 74.333 -39.5 129v362
c0 54.667 13.167 97.667 39.5 129s65.5 47 117.5 47z" />
    <glyph glyph-name="Gdotaccent" unicode="&#x120;" horiz-adv-x="383" 
d="M160 830h68v-90h-68v90zM191 707c52.667 0 92.167 -15.667 118.5 -47s39.5 -74.333 39.5 -129v-60h-74v64c0 67.333 -27.333 101 -82 101s-82 -33.667 -82 -101v-370c0 -67.333 27.333 -101 82 -101s82 33.667 82 101v140h-72v70h146v-206
c0 -54.667 -13.167 -97.667 -39.5 -129s-65.833 -47 -118.5 -47c-52 0 -91.167 15.667 -117.5 47s-39.5 74.333 -39.5 129v362c0 54.667 13.167 97.667 39.5 129s65.5 47 117.5 47z" />
    <glyph glyph-name="gdotaccent" unicode="&#x121;" horiz-adv-x="383" 
d="M160 830h68v-90h-68v90zM191 707c52.667 0 92.167 -15.667 118.5 -47s39.5 -74.333 39.5 -129v-60h-74v64c0 67.333 -27.333 101 -82 101s-82 -33.667 -82 -101v-370c0 -67.333 27.333 -101 82 -101s82 33.667 82 101v140h-72v70h146v-206
c0 -54.667 -13.167 -97.667 -39.5 -129s-65.833 -47 -118.5 -47c-52 0 -91.167 15.667 -117.5 47s-39.5 74.333 -39.5 129v362c0 54.667 13.167 97.667 39.5 129s65.5 47 117.5 47z" />
    <glyph glyph-name="uni0122" unicode="&#x122;" horiz-adv-x="383" 
d="M191 707c52.667 0 92.167 -15.667 118.5 -47s39.5 -74.333 39.5 -129v-60h-74v64c0 67.333 -27.333 101 -82 101s-82 -33.667 -82 -101v-370c0 -67.333 27.333 -101 82 -101s82 33.667 82 101v140h-72v70h146v-206c0 -54.667 -13.167 -97.667 -39.5 -129
s-65.833 -47 -118.5 -47c-52 0 -91.167 15.667 -117.5 47s-39.5 74.333 -39.5 129v362c0 54.667 13.167 97.667 39.5 129s65.5 47 117.5 47zM160 -177l23 56h-25v88h66v-81l-35 -63h-29z" />
    <glyph glyph-name="uni0123" unicode="&#x123;" horiz-adv-x="383" 
d="M191 707c52.667 0 92.167 -15.667 118.5 -47s39.5 -74.333 39.5 -129v-60h-74v64c0 67.333 -27.333 101 -82 101s-82 -33.667 -82 -101v-370c0 -67.333 27.333 -101 82 -101s82 33.667 82 101v140h-72v70h146v-206c0 -54.667 -13.167 -97.667 -39.5 -129
s-65.833 -47 -118.5 -47c-52 0 -91.167 15.667 -117.5 47s-39.5 74.333 -39.5 129v362c0 54.667 13.167 97.667 39.5 129s65.5 47 117.5 47zM161 -177l22 56h-24v88h65v-81l-35 -63h-28z" />
    <glyph glyph-name="Hcircumflex" unicode="&#x124;" horiz-adv-x="408" 
d="M204 800l-53 -59h-68l87 101h69l86 -101h-68zM290 315h-172v-315h-78v700h78v-315h172v315h78v-700h-78v315z" />
    <glyph glyph-name="hcircumflex" unicode="&#x125;" horiz-adv-x="408" 
d="M204 800l-53 -59h-68l87 101h69l86 -101h-68zM290 315h-172v-315h-78v700h78v-315h172v315h78v-700h-78v315z" />
    <glyph glyph-name="Hbar" unicode="&#x126;" horiz-adv-x="415" 
d="M408 514h-36v-514h-79v315h-172v-315h-78v514h-36v58h36v128h78v-128h172v128h79v-128h36v-58zM293 385v129h-172v-129h172z" />
    <glyph glyph-name="hbar" unicode="&#x127;" horiz-adv-x="415" 
d="M408 514h-36v-514h-79v315h-172v-315h-78v514h-36v58h36v128h78v-128h172v128h79v-128h36v-58zM293 385v129h-172v-129h172z" />
    <glyph glyph-name="Itilde" unicode="&#x128;" horiz-adv-x="158" 
d="M163 828l38.001 -26c-14.667 -38.667 -38.334 -58 -71.001 -58c-13.333 0 -29.5 4.83301 -48.5 14.5s-33.5 14.5 -43.5 14.5c-18.667 0 -32.667 -9.66699 -42 -29l-39 26c16 38.667 40.667 58 74 58c14 0 30.5 -4.83301 49.5 -14.5s33.167 -14.5 42.5 -14.5
c16.667 0 30 9.66699 40 29zM40.001 700h78v-700h-78v700z" />
    <glyph glyph-name="itilde" unicode="&#x129;" horiz-adv-x="158" 
d="M163 828l38.001 -26c-14.667 -38.667 -38.334 -58 -71.001 -58c-13.333 0 -29.5 4.83301 -48.5 14.5s-33.5 14.5 -43.5 14.5c-18.667 0 -32.667 -9.66699 -42 -29l-39 26c16 38.667 40.667 58 74 58c14 0 30.5 -4.83301 49.5 -14.5s33.167 -14.5 42.5 -14.5
c16.667 0 30 9.66699 40 29zM40.001 700h78v-700h-78v700z" />
    <glyph glyph-name="Imacron" unicode="&#x12a;" horiz-adv-x="158" 
d="M-21 806h199v-56h-199v56zM40 700h78v-700h-78v700z" />
    <glyph glyph-name="imacron" unicode="&#x12b;" horiz-adv-x="158" 
d="M-21 806h199v-56h-199v56zM40 700h78v-700h-78v700z" />
    <glyph glyph-name="Ibreve" unicode="&#x12c;" horiz-adv-x="158" 
d="M136 838l47.001 -0.000976562c0 -31.333 -9.33301 -56.166 -28 -74.499s-44.334 -27.5 -77.001 -27.5c-32 0 -57 9 -75 27s-27.333 43 -28 75h47c2 -35.333 20.667 -53 56 -53c36 0 55.333 17.667 58 53zM40.001 -0.000976562v700h78v-700h-78z" />
    <glyph glyph-name="ibreve" unicode="&#x12d;" horiz-adv-x="158" 
d="M136 838l47.001 -0.000976562c0 -31.333 -9.33301 -56.166 -28 -74.499s-44.334 -27.5 -77.001 -27.5c-32 0 -57 9 -75 27s-27.333 43 -28 75h47c2 -35.333 20.667 -53 56 -53c36 0 55.333 17.667 58 53zM40.001 -0.000976562v700h78v-700h-78z" />
    <glyph glyph-name="Iogonek" unicode="&#x12e;" horiz-adv-x="158" 
d="M118 0l-14 -0.000976562c-12 -9.33301 -21.167 -20.666 -27.5 -33.999s-9.16602 -25 -8.49902 -35c0 -20 12.333 -30 37 -30c12 0 25.333 3 40 9v-41c-18 -8 -38.667 -12 -62 -12c-22.667 0 -40.834 4.66699 -54.501 14s-20.5 23.333 -20.5 42
c-1.33301 32.667 19 61.667 61 87h-29v700h78v-700z" />
    <glyph glyph-name="iogonek" unicode="&#x12f;" horiz-adv-x="158" 
d="M118 0l-14 -0.000976562c-12 -9.33301 -21.167 -20.666 -27.5 -33.999s-9.16602 -25 -8.49902 -35c0 -20 12.333 -30 37 -30c12 0 25.333 3 40 9v-41c-18 -8 -38.667 -12 -62 -12c-22.667 0 -40.834 4.66699 -54.501 14s-20.5 23.333 -20.5 42
c-1.33301 32.667 19 61.667 61 87h-29v700h78v-700z" />
    <glyph glyph-name="Idotaccent" unicode="&#x130;" horiz-adv-x="158" 
d="M45 829h68v-90h-68v90zM40 700h78v-700h-78v700z" />
    <glyph glyph-name="dotlessi" unicode="&#x131;" horiz-adv-x="158" 
d="M40 700h78v-700h-78v700z" />
    <glyph glyph-name="IJ" unicode="&#x132;" horiz-adv-x="412" 
d="M40 700h78v-700h-78v700zM376 700l-0.000976562 -527c0 -113.333 -50.333 -171.333 -151 -174c-20.667 0 -36.667 0.333008 -48 1v71c8.66699 -0.666992 21.334 -1 38.001 -1c28 1.33301 48.833 9.5 62.5 24.5s20.5 39.5 20.5 73.5v532h78z" />
    <glyph glyph-name="ij" unicode="&#x133;" horiz-adv-x="412" 
d="M40 700h78v-700h-78v700zM376 700l-0.000976562 -527c0 -113.333 -50.333 -171.333 -151 -174c-20.667 0 -36.667 0.333008 -48 1v71c8.66699 -0.666992 21.334 -1 38.001 -1c28 1.33301 48.833 9.5 62.5 24.5s20.5 39.5 20.5 73.5v532h78z" />
    <glyph glyph-name="Jcircumflex" unicode="&#x134;" horiz-adv-x="255" 
d="M167 799l-53 -60h-68l86 101h69l87 -101h-68zM218 700l-0.000976562 -527c0 -113.333 -49.667 -171.333 -149 -174c-27.333 0 -43.666 0.333008 -48.999 1v71c8.66699 -0.666992 21.667 -1 39 -1c27.333 1.33301 47.833 9.5 61.5 24.5s20.5 39.5 20.5 73.5v532h77z" />
    <glyph glyph-name="jcircumflex" unicode="&#x135;" horiz-adv-x="255" 
d="M167 799l-53 -60h-68l86 101h69l87 -101h-68zM218 700l-0.000976562 -527c0 -113.333 -49.667 -171.333 -149 -174c-27.333 0 -43.666 0.333008 -48.999 1v71c8.66699 -0.666992 21.667 -1 39 -1c27.333 1.33301 47.833 9.5 61.5 24.5s20.5 39.5 20.5 73.5v532h77z" />
    <glyph glyph-name="uni0136" unicode="&#x136;" horiz-adv-x="409" 
d="M309 0l-150 304l-41 -69v-235h-78v700h78v-338l186 338h79l-177 -319l183 -381h-80zM174 -177l23 56h-25v88h66v-81l-35 -63h-29z" />
    <glyph glyph-name="uni0137" unicode="&#x137;" horiz-adv-x="409" 
d="M309 0l-150 304l-41 -69v-235h-78v700h78v-338l186 338h79l-177 -319l183 -381h-80zM174 -177l23 56h-25v88h66v-81l-35 -63h-29z" />
    <glyph glyph-name="kgreenlandic" unicode="&#x138;" horiz-adv-x="409" 
d="M309 0l-150 304l-41 -69v-235h-78v700h78v-338l186 338h79l-177 -319l183 -381h-80z" />
    <glyph glyph-name="Lacute" unicode="&#x139;" horiz-adv-x="337" 
d="M129 842h77l-93 -103h-54zM318 0h-278v700h78v-629h200v-71z" />
    <glyph glyph-name="lacute" unicode="&#x13a;" horiz-adv-x="337" 
d="M125 842h78l-93 -103h-54zM318 0h-278v700h78v-629h200v-71z" />
    <glyph glyph-name="uni013B" unicode="&#x13b;" horiz-adv-x="337" 
d="M318 0h-278v700h78v-629h200v-71zM151 -179l23 57h-25v87h66v-81l-35 -63h-29z" />
    <glyph glyph-name="uni013C" unicode="&#x13c;" horiz-adv-x="337" 
d="M318 0h-278v700h78v-629h200v-71zM155 -177l22 56h-24v88h65v-81l-35 -63h-28z" />
    <glyph glyph-name="Lcaron" unicode="&#x13d;" horiz-adv-x="337" 
d="M318 0h-278v700h78v-629h200v-71zM217 515l25 88h-29v97h75v-89l-38 -96h-33z" />
    <glyph glyph-name="lcaron" unicode="&#x13e;" horiz-adv-x="337" 
d="M318 0h-278v700h78v-629h200v-71zM217 515l25 88h-29v97h75v-89l-38 -96h-33z" />
    <glyph glyph-name="Ldot" unicode="&#x13f;" horiz-adv-x="337" 
d="M318 0h-278v700h78v-629h200v-71zM197 400h75v-97h-75v97z" />
    <glyph glyph-name="ldot" unicode="&#x140;" horiz-adv-x="337" 
d="M318 0h-278v700h78v-629h200v-71zM197 400h75v-97h-75v97z" />
    <glyph glyph-name="Lslash" unicode="&#x141;" horiz-adv-x="348" 
d="M237 404l-109 -113v-220h201v-71h-278v208l-51 -50v72l51 50v420h77v-337l109 113v-72z" />
    <glyph glyph-name="lslash" unicode="&#x142;" horiz-adv-x="187" 
d="M182 342l-49 -51v-291h-77v208l-51 -50v72l51 50v420h77v-337l49 51v-72z" />
    <glyph glyph-name="Nacute" unicode="&#x143;" horiz-adv-x="409" 
d="M229 842h77l-93 -102h-54zM109 567v-567h-70v700h99l162 -506v506h69v-700h-81z" />
    <glyph glyph-name="nacute" unicode="&#x144;" horiz-adv-x="409" 
d="M229 842h77l-93 -102h-54zM109 567v-567h-70v700h99l162 -506v506h69v-700h-81z" />
    <glyph glyph-name="uni0145" unicode="&#x145;" horiz-adv-x="409" 
d="M109 566v-566h-70v700h99l162 -506v506h69v-700h-81zM173 -177l23 56h-25v88h65v-81l-35 -63h-28z" />
    <glyph glyph-name="uni0146" unicode="&#x146;" horiz-adv-x="409" 
d="M109 566v-566h-70v700h99l162 -506v506h69v-700h-81zM173 -177l23 56h-25v88h65v-81l-35 -63h-28z" />
    <glyph glyph-name="Ncaron" unicode="&#x147;" horiz-adv-x="409" 
d="M84 842h68l53 -60l53 60h68l-86 -101h-69zM109 566v-566h-70v700h99l162 -506v506h69v-700h-81z" />
    <glyph glyph-name="ncaron" unicode="&#x148;" horiz-adv-x="409" 
d="M84 842h68l53 -60l53 60h68l-86 -101h-69zM109 566v-566h-70v700h99l162 -506v506h69v-700h-81z" />
    <glyph glyph-name="napostrophe" unicode="&#x149;" horiz-adv-x="503" 
d="M15 515l25 88h-29v97h75v-89l-38 -96h-33zM204 566v-566h-70v700h99l162 -506v506h69v-700h-81z" />
    <glyph glyph-name="Omacron" unicode="&#x14c;" horiz-adv-x="389" 
d="M91 806h208v-55h-208v55zM194 707c52.667 0 92.667 -15.667 120 -47s41 -74.333 41 -129v-362c0 -54.667 -13.667 -97.667 -41 -129s-67.333 -47 -120 -47c-52 0 -91.667 15.667 -119 47s-41 74.333 -41 129v362c0 54.667 13.5 97.667 40.5 129s66.833 47 119.5 47z
M194 636c-55.333 0 -83 -33.667 -83 -101v-370c0 -67.333 27.667 -101 83 -101s83 33.667 83 101v370c0 67.333 -27.667 101 -83 101z" />
    <glyph glyph-name="omacron" unicode="&#x14d;" horiz-adv-x="389" 
d="M91 806h208v-55h-208v55zM194 707c52.667 0 92.667 -15.667 120 -47s41 -74.333 41 -129v-362c0 -54.667 -13.667 -97.667 -41 -129s-67.333 -47 -120 -47c-52 0 -91.667 15.667 -119 47s-41 74.333 -41 129v362c0 54.667 13.5 97.667 40.5 129s66.833 47 119.5 47z
M194 636c-55.333 0 -83 -33.667 -83 -101v-370c0 -67.333 27.667 -101 83 -101s83 33.667 83 101v370c0 67.333 -27.667 101 -83 101z" />
    <glyph glyph-name="Obreve" unicode="&#x14e;" horiz-adv-x="389" 
d="M252 841h47.001c-0.666992 -31.333 -10.334 -56 -29.001 -74s-44.334 -27 -77.001 -27c-32 0 -57 9 -75 27s-27.333 42.667 -28 74h47c2 -34.667 20.667 -52 56 -52c36.667 0 56.334 17.333 59.001 52zM194.001 707c52.667 0 92.667 -15.667 120 -47s41 -74.333 41 -129
v-362c0 -54.667 -13.667 -97.667 -41 -129s-67.333 -47 -120 -47c-52 0 -91.667 15.667 -119 47s-41 74.333 -41 129v362c0 54.667 13.5 97.667 40.5 129s66.833 47 119.5 47zM194.001 636c-55.333 0 -83 -33.667 -83 -101v-370c0 -67.333 27.667 -101 83 -101
s83 33.667 83 101v370c0 67.333 -27.667 101 -83 101z" />
    <glyph glyph-name="obreve" unicode="&#x14f;" horiz-adv-x="389" 
d="M252 841h47.001c-0.666992 -31.333 -10.334 -56 -29.001 -74s-44.334 -27 -77.001 -27c-32 0 -57 9 -75 27s-27.333 42.667 -28 74h47c2 -34.667 20.667 -52 56 -52c36.667 0 56.334 17.333 59.001 52zM194.001 707c52.667 0 92.667 -15.667 120 -47s41 -74.333 41 -129
v-362c0 -54.667 -13.667 -97.667 -41 -129s-67.333 -47 -120 -47c-52 0 -91.667 15.667 -119 47s-41 74.333 -41 129v362c0 54.667 13.5 97.667 40.5 129s66.833 47 119.5 47zM194.001 636c-55.333 0 -83 -33.667 -83 -101v-370c0 -67.333 27.667 -101 83 -101
s83 33.667 83 101v370c0 67.333 -27.667 101 -83 101z" />
    <glyph glyph-name="Ohungarumlaut" unicode="&#x150;" horiz-adv-x="389" 
d="M158 845h72l-80 -103h-49zM265 845h73l-81 -103h-49zM194 707c52.667 0 92.667 -15.667 120 -47s41 -74.333 41 -129v-362c0 -54.667 -13.667 -97.667 -41 -129s-67.333 -47 -120 -47c-52 0 -91.667 15.667 -119 47s-41 74.333 -41 129v362
c0 54.667 13.5 97.667 40.5 129s66.833 47 119.5 47zM194 636c-55.333 0 -83 -33.667 -83 -101v-370c0 -67.333 27.667 -101 83 -101s83 33.667 83 101v370c0 67.333 -27.667 101 -83 101z" />
    <glyph glyph-name="ohungarumlaut" unicode="&#x151;" horiz-adv-x="389" 
d="M158 845h72l-80 -103h-49zM265 845h73l-81 -103h-49zM194 707c52.667 0 92.667 -15.667 120 -47s41 -74.333 41 -129v-362c0 -54.667 -13.667 -97.667 -41 -129s-67.333 -47 -120 -47c-52 0 -91.667 15.667 -119 47s-41 74.333 -41 129v362
c0 54.667 13.5 97.667 40.5 129s66.833 47 119.5 47zM194 636c-55.333 0 -83 -33.667 -83 -101v-370c0 -67.333 27.667 -101 83 -101s83 33.667 83 101v370c0 67.333 -27.667 101 -83 101z" />
    <glyph glyph-name="OE" unicode="&#x152;" horiz-adv-x="577" 
d="M347 390l161 -0.00195312v-70h-161v-249h198v-71h-357c-52 0 -90.833 15.333 -116.5 46s-38.5 73.334 -38.5 128.001v352c0 54.667 12.833 97.334 38.5 128.001s64.5 46 116.5 46h357v-71h-198v-239zM270 628.998h-81c-52 0 -78 -33 -78 -99v-360c0 -66 26 -99 78 -99h81
v558z" />
    <glyph glyph-name="oe" unicode="&#x153;" horiz-adv-x="577" 
d="M347 390l161 -0.00195312v-70h-161v-249h198v-71h-357c-52 0 -90.833 15.333 -116.5 46s-38.5 73.334 -38.5 128.001v352c0 54.667 12.833 97.334 38.5 128.001s64.5 46 116.5 46h357v-71h-198v-239zM270 628.998h-81c-52 0 -78 -33 -78 -99v-360c0 -66 26 -99 78 -99h81
v558z" />
    <glyph glyph-name="Racute" unicode="&#x154;" horiz-adv-x="394" 
d="M209 845h78l-93 -103h-54zM40 700l156 0.000976562c54 0 93.5 -13.333 118.5 -40s37.5 -66.667 37.5 -120v-57c0 -77.333 -29 -125.333 -87 -144c58.667 -17.333 88 -66 88 -146v-109c0 -38.667 4.66699 -66.667 14 -84h-79c-8.66699 19.333 -13 47.666 -13 84.999v110
c0 38 -8.5 64.833 -25.5 80.5s-42.5 23.5 -76.5 23.5h-55v-299h-78v700zM118 370.001h58.001c33.333 0 58.166 7 74.499 21s24.5 39 24.5 75v67c0 64 -27 96 -81 96h-76v-259z" />
    <glyph glyph-name="racute" unicode="&#x155;" horiz-adv-x="394" 
d="M209 845h78l-93 -103h-54zM40 700l156 0.000976562c54 0 93.5 -13.333 118.5 -40s37.5 -66.667 37.5 -120v-57c0 -77.333 -29 -125.333 -87 -144c58.667 -17.333 88 -66 88 -146v-109c0 -38.667 4.66699 -66.667 14 -84h-79c-8.66699 19.333 -13 47.666 -13 84.999v110
c0 38 -8.5 64.833 -25.5 80.5s-42.5 23.5 -76.5 23.5h-55v-299h-78v700zM118 370.001h58.001c33.333 0 58.166 7 74.499 21s24.5 39 24.5 75v67c0 64 -27 96 -81 96h-76v-259z" />
    <glyph glyph-name="uni0156" unicode="&#x156;" horiz-adv-x="394" 
d="M40 700l156 0.000976562c54 0 93.5 -13.333 118.5 -40s37.5 -66.667 37.5 -120v-57c0 -77.333 -29 -125.333 -87 -144c58.667 -17.333 88 -66 88 -146v-109c0 -38.667 4.66699 -66.667 14 -84h-79c-8.66699 19.333 -13 47.666 -13 84.999v110
c0 38 -8.5 64.833 -25.5 80.5s-42.5 23.5 -76.5 23.5h-55v-299h-78v700zM118 370.001h58.001c33.333 0 58.166 7 74.499 21s24.5 39 24.5 75v67c0 64 -27 96 -81 96h-76v-259zM165.001 -176.999l23 57h-24v87h65v-81l-35 -63h-29z" />
    <glyph glyph-name="uni0157" unicode="&#x157;" horiz-adv-x="394" 
d="M40 700l156 0.000976562c54 0 93.5 -13.333 118.5 -40s37.5 -66.667 37.5 -120v-57c0 -77.333 -29 -125.333 -87 -144c58.667 -17.333 88 -66 88 -146v-109c0 -38.667 4.66699 -66.667 14 -84h-79c-8.66699 19.333 -13 47.666 -13 84.999v110
c0 38 -8.5 64.833 -25.5 80.5s-42.5 23.5 -76.5 23.5h-55v-299h-78v700zM118 370.001h58.001c33.333 0 58.166 7 74.499 21s24.5 39 24.5 75v67c0 64 -27 96 -81 96h-76v-259zM166.001 -176.999l23 56h-25v88h66v-81l-35 -63h-29z" />
    <glyph glyph-name="Rcaron" unicode="&#x158;" horiz-adv-x="394" 
d="M65 842h68l53 -60l53 60h68l-87 -100h-69zM40 700l156 0.000976562c54 0 93.5 -13.333 118.5 -40s37.5 -66.667 37.5 -120v-57c0 -77.333 -29 -125.333 -87 -144c58.667 -17.333 88 -66 88 -146v-109c0 -38.667 4.66699 -66.667 14 -84h-79
c-8.66699 19.333 -13 47.666 -13 84.999v110c0 38 -8.5 64.833 -25.5 80.5s-42.5 23.5 -76.5 23.5h-55v-299h-78v700zM118 370.001h58.001c33.333 0 58.166 7 74.499 21s24.5 39 24.5 75v67c0 64 -27 96 -81 96h-76v-259z" />
    <glyph glyph-name="rcaron" unicode="&#x159;" horiz-adv-x="394" 
d="M65 842h68l53 -60l53 60h68l-87 -100h-69zM40 700l156 0.000976562c54 0 93.5 -13.333 118.5 -40s37.5 -66.667 37.5 -120v-57c0 -77.333 -29 -125.333 -87 -144c58.667 -17.333 88 -66 88 -146v-109c0 -38.667 4.66699 -66.667 14 -84h-79
c-8.66699 19.333 -13 47.666 -13 84.999v110c0 38 -8.5 64.833 -25.5 80.5s-42.5 23.5 -76.5 23.5h-55v-299h-78v700zM118 370.001h58.001c33.333 0 58.166 7 74.499 21s24.5 39 24.5 75v67c0 64 -27 96 -81 96h-76v-259z" />
    <glyph glyph-name="Sacute" unicode="&#x15a;" horiz-adv-x="372" 
d="M211 845h78l-93 -103h-54zM187 707c51.333 0 90.1709 -15.501 116.504 -46.501s39.5 -73.833 39.5 -128.5v-19h-74v23c0 66.667 -26.667 100 -80 100s-80 -33 -80 -99c0 -24.667 5.83301 -47.5 17.5 -68.5s26.167 -38.667 43.5 -53l56.5 -48l56.5 -51
c17.333 -16.333 31.833 -37.5 43.5 -63.5s17.5 -54.333 17.5 -85c0 -54.667 -13.333 -97.5 -40 -128.5s-66 -46.5 -118 -46.5s-91.167 15.5 -117.5 46.5s-39.5 73.833 -39.5 128.5v40h73v-44c0 -66.667 27.333 -100 82 -100s82 33.333 82 100c0 21.333 -4.33301 41 -13 59
s-19.834 34 -33.501 48s-28.834 27.667 -45.501 41l-50 42c-16.667 14.667 -31.834 30 -45.501 46s-24.834 35.333 -33.501 58s-13 47.334 -13 74.001c0 55.333 13 98.333 39 129s64.667 46 116 46z" />
    <glyph glyph-name="sacute" unicode="&#x15b;" horiz-adv-x="372" 
d="M211 845h78l-93 -103h-54zM187 707c51.333 0 90.1709 -15.501 116.504 -46.501s39.5 -73.833 39.5 -128.5v-19h-74v23c0 66.667 -26.667 100 -80 100s-80 -33 -80 -99c0 -24.667 5.83301 -47.5 17.5 -68.5s26.167 -38.667 43.5 -53l56.5 -48l56.5 -51
c17.333 -16.333 31.833 -37.5 43.5 -63.5s17.5 -54.333 17.5 -85c0 -54.667 -13.333 -97.5 -40 -128.5s-66 -46.5 -118 -46.5s-91.167 15.5 -117.5 46.5s-39.5 73.833 -39.5 128.5v40h73v-44c0 -66.667 27.333 -100 82 -100s82 33.333 82 100c0 21.333 -4.33301 41 -13 59
s-19.834 34 -33.501 48s-28.834 27.667 -45.501 41l-50 42c-16.667 14.667 -31.834 30 -45.501 46s-24.834 35.333 -33.501 58s-13 47.334 -13 74.001c0 55.333 13 98.333 39 129s64.667 46 116 46z" />
    <glyph glyph-name="Scircumflex" unicode="&#x15c;" horiz-adv-x="372" 
d="M188 800l-53 -59h-68l87 101h69l86 -101h-68zM187 707c51.333 0 90.1709 -15.501 116.504 -46.501s39.5 -73.833 39.5 -128.5v-19h-74v23c0 66.667 -26.667 100 -80 100s-80 -33 -80 -99c0 -24.667 5.83301 -47.5 17.5 -68.5s26.167 -38.667 43.5 -53l56.5 -48l56.5 -51
c17.333 -16.333 31.833 -37.5 43.5 -63.5s17.5 -54.333 17.5 -85c0 -54.667 -13.333 -97.5 -40 -128.5s-66 -46.5 -118 -46.5s-91.167 15.5 -117.5 46.5s-39.5 73.833 -39.5 128.5v40h73v-44c0 -66.667 27.333 -100 82 -100s82 33.333 82 100c0 21.333 -4.33301 41 -13 59
s-19.834 34 -33.501 48s-28.834 27.667 -45.501 41l-50 42c-16.667 14.667 -31.834 30 -45.501 46s-24.834 35.333 -33.501 58s-13 47.334 -13 74.001c0 55.333 13 98.333 39 129s64.667 46 116 46z" />
    <glyph glyph-name="scircumflex" unicode="&#x15d;" horiz-adv-x="372" 
d="M188 800l-53 -59h-68l87 101h69l86 -101h-68zM187 707c51.333 0 90.1709 -15.501 116.504 -46.501s39.5 -73.833 39.5 -128.5v-19h-74v23c0 66.667 -26.667 100 -80 100s-80 -33 -80 -99c0 -24.667 5.83301 -47.5 17.5 -68.5s26.167 -38.667 43.5 -53l56.5 -48l56.5 -51
c17.333 -16.333 31.833 -37.5 43.5 -63.5s17.5 -54.333 17.5 -85c0 -54.667 -13.333 -97.5 -40 -128.5s-66 -46.5 -118 -46.5s-91.167 15.5 -117.5 46.5s-39.5 73.833 -39.5 128.5v40h73v-44c0 -66.667 27.333 -100 82 -100s82 33.333 82 100c0 21.333 -4.33301 41 -13 59
s-19.834 34 -33.501 48s-28.834 27.667 -45.501 41l-50 42c-16.667 14.667 -31.834 30 -45.501 46s-24.834 35.333 -33.501 58s-13 47.334 -13 74.001c0 55.333 13 98.333 39 129s64.667 46 116 46z" />
    <glyph glyph-name="Scedilla" unicode="&#x15e;" horiz-adv-x="372" 
d="M201 -6l0.00488281 -31c23.333 0 41.5 -4.5 54.5 -13.5s19.5 -21.5 19.5 -37.5c0 -20 -8.33301 -35.667 -25 -47s-40 -17 -70 -17c-28.667 0 -51.167 5.5 -67.5 16.5s-24.5 26.167 -24.5 45.5v8h51v-7c0 -17.333 13.667 -27 41 -29c28.667 0 43 10.667 43 32
c0 20 -16.333 30 -49 30h-9v50c-90.667 8 -136 66 -136 174v40h73v-44c0 -66.667 27.333 -100 82 -100s82 33.333 82 100c0 21.333 -4.33301 41 -13 59s-19.834 34 -33.501 48s-28.834 27.667 -45.501 41l-50 42c-16.667 14.667 -31.834 30 -45.501 46
s-24.834 35.333 -33.501 58s-13 47.334 -13 74.001c0 55.333 13 98.333 39 129s64.667 46 116 46s90.166 -15.5 116.499 -46.5s39.5 -73.833 39.5 -128.5v-19h-74v23c0 66.667 -26.667 100 -80 100s-80 -33 -80 -99c0 -24.667 5.83301 -47.5 17.5 -68.5
s26.167 -38.667 43.5 -53l56.5 -48l56.5 -51c17.333 -16.333 31.833 -37.5 43.5 -63.5s17.5 -54.333 17.5 -85c0 -52 -12 -93.333 -36 -124s-59.667 -47.334 -107 -50.001z" />
    <glyph glyph-name="scedilla" unicode="&#x15f;" horiz-adv-x="372" 
d="M201 -6l0.00488281 -31c23.333 0 41.5 -4.5 54.5 -13.5s19.5 -21.5 19.5 -37.5c0 -20 -8.33301 -35.667 -25 -47s-40 -17 -70 -17c-28.667 0 -51.167 5.5 -67.5 16.5s-24.5 26.167 -24.5 45.5v8h51v-7c0 -17.333 13.667 -27 41 -29c28.667 0 43 10.667 43 32
c0 20 -16.333 30 -49 30h-9v50c-90.667 8 -136 66 -136 174v40h73v-44c0 -66.667 27.333 -100 82 -100s82 33.333 82 100c0 21.333 -4.33301 41 -13 59s-19.834 34 -33.501 48s-28.834 27.667 -45.501 41l-50 42c-16.667 14.667 -31.834 30 -45.501 46
s-24.834 35.333 -33.501 58s-13 47.334 -13 74.001c0 55.333 13 98.333 39 129s64.667 46 116 46s90.166 -15.5 116.499 -46.5s39.5 -73.833 39.5 -128.5v-19h-74v23c0 66.667 -26.667 100 -80 100s-80 -33 -80 -99c0 -24.667 5.83301 -47.5 17.5 -68.5
s26.167 -38.667 43.5 -53l56.5 -48l56.5 -51c17.333 -16.333 31.833 -37.5 43.5 -63.5s17.5 -54.333 17.5 -85c0 -52 -12 -93.333 -36 -124s-59.667 -47.334 -107 -50.001z" />
    <glyph glyph-name="Scaron" unicode="&#x160;" horiz-adv-x="372" 
d="M67 842h68l52 -60l53 60h69l-87 -100h-69zM187 707c51.333 0 90.1709 -15.501 116.504 -46.501s39.5 -73.833 39.5 -128.5v-19h-74v23c0 66.667 -26.667 100 -80 100s-80 -33 -80 -99c0 -24.667 5.83301 -47.5 17.5 -68.5s26.167 -38.667 43.5 -53l56.5 -48l56.5 -51
c17.333 -16.333 31.833 -37.5 43.5 -63.5s17.5 -54.333 17.5 -85c0 -54.667 -13.333 -97.5 -40 -128.5s-66 -46.5 -118 -46.5s-91.167 15.5 -117.5 46.5s-39.5 73.833 -39.5 128.5v40h73v-44c0 -66.667 27.333 -100 82 -100s82 33.333 82 100c0 21.333 -4.33301 41 -13 59
s-19.834 34 -33.501 48s-28.834 27.667 -45.501 41l-50 42c-16.667 14.667 -31.834 30 -45.501 46s-24.834 35.333 -33.501 58s-13 47.334 -13 74.001c0 55.333 13 98.333 39 129s64.667 46 116 46z" />
    <glyph glyph-name="scaron" unicode="&#x161;" horiz-adv-x="372" 
d="M66 842h68l53 -60l53 60h68l-87 -100h-69zM187 707c51.333 0 90.1709 -15.501 116.504 -46.501s39.5 -73.833 39.5 -128.5v-19h-74v23c0 66.667 -26.667 100 -80 100s-80 -33 -80 -99c0 -24.667 5.83301 -47.5 17.5 -68.5s26.167 -38.667 43.5 -53l56.5 -48l56.5 -51
c17.333 -16.333 31.833 -37.5 43.5 -63.5s17.5 -54.333 17.5 -85c0 -54.667 -13.333 -97.5 -40 -128.5s-66 -46.5 -118 -46.5s-91.167 15.5 -117.5 46.5s-39.5 73.833 -39.5 128.5v40h73v-44c0 -66.667 27.333 -100 82 -100s82 33.333 82 100c0 21.333 -4.33301 41 -13 59
s-19.834 34 -33.501 48s-28.834 27.667 -45.501 41l-50 42c-16.667 14.667 -31.834 30 -45.501 46s-24.834 35.333 -33.501 58s-13 47.334 -13 74.001c0 55.333 13 98.333 39 129s64.667 46 116 46z" />
    <glyph glyph-name="uni0162" unicode="&#x162;" horiz-adv-x="372" 
d="M225 0l-21 -0.000976562v-38c20 0 36.167 -4.83301 48.5 -14.5s18.5 -23.5 18.5 -41.5c0 -25.333 -8.5 -44.166 -25.5 -56.499s-37.833 -18.166 -62.5 -17.499c-23.333 0 -43.5 5.66699 -60.5 17s-25.5 27.666 -25.5 48.999v8h47v-8c0 -19.333 12.667 -29 38 -29
c11.333 0 21 2.83301 29 8.5s12 14.167 12 25.5c0 22 -15.667 33 -47 33h-9v64h-20v629h-129v71h336v-71h-129v-629z" />
    <glyph glyph-name="uni0163" unicode="&#x163;" horiz-adv-x="372" 
d="M225 0l-21 -0.000976562v-38c20 0 36.167 -4.83301 48.5 -14.5s18.5 -23.5 18.5 -41.5c0 -25.333 -8.5 -44.166 -25.5 -56.499s-37.833 -18.166 -62.5 -17.499c-23.333 0 -43.5 5.66699 -60.5 17s-25.5 27.666 -25.5 48.999v8h47v-8c0 -19.333 12.667 -29 38 -29
c11.333 0 21 2.83301 29 8.5s12 14.167 12 25.5c0 22 -15.667 33 -47 33h-9v64h-20v629h-129v71h336v-71h-129v-629z" />
    <glyph glyph-name="Tcaron" unicode="&#x164;" horiz-adv-x="372" 
d="M65 840h68l52 -60l54 60h68l-87 -101h-69zM225 0h-78v629h-129v71h336v-71h-129v-629z" />
    <glyph glyph-name="tcaron" unicode="&#x165;" horiz-adv-x="372" 
d="M65 840h68l52 -60l54 60h68l-87 -101h-69zM225 0h-78v629h-129v71h336v-71h-129v-629z" />
    <glyph glyph-name="Tbar" unicode="&#x166;" horiz-adv-x="372" 
d="M225 476h71v-58h-71v-418h-78v418h-71v58h71v153h-129v71h336v-71h-129v-153z" />
    <glyph glyph-name="tbar" unicode="&#x167;" horiz-adv-x="372" 
d="M225 476h71v-58h-71v-418h-78v418h-71v58h71v153h-129v71h336v-71h-129v-153z" />
    <glyph glyph-name="Utilde" unicode="&#x168;" 
d="M278 829l39.001 -26.999c-15.333 -38 -39.333 -57 -72 -57c-14 -0.666992 -30.333 4 -49 14s-32.667 15 -42 15c-18 0 -32 -10 -42 -30l-39 27c14.667 37.333 39 56.666 73 57.999c14 0 30.5 -5 49.5 -15s33.167 -15 42.5 -15c17.333 1.33301 30.666 11.333 39.999 30z
M350.001 700.001v-531.002c0 -55.333 -13 -98.666 -39 -129.999s-65.333 -47 -118 -47c-52 0 -91 15.833 -117 47.5s-39 74.834 -39 129.501v531h77v-535c0 -67.333 27.333 -101 82 -101c54 0 81 33.667 81 101v535h73z" />
    <glyph glyph-name="utilde" unicode="&#x169;" 
d="M278 829l39.001 -26.999c-15.333 -38 -39.333 -57 -72 -57c-14 -0.666992 -30.333 4 -49 14s-32.667 15 -42 15c-18 0 -32 -10 -42 -30l-39 27c14.667 37.333 39 56.666 73 57.999c14 0 30.5 -5 49.5 -15s33.167 -15 42.5 -15c17.333 1.33301 30.666 11.333 39.999 30z
M350.001 700.001v-531.002c0 -55.333 -13 -98.666 -39 -129.999s-65.333 -47 -118 -47c-52 0 -91 15.833 -117 47.5s-39 74.834 -39 129.501v531h77v-535c0 -67.333 27.333 -101 82 -101c54 0 81 33.667 81 101v535h73z" />
    <glyph glyph-name="Umacron" unicode="&#x16a;" 
d="M93 806h205v-56h-205v56zM350 700v-531.002c0 -55.333 -13 -98.666 -39 -129.999s-65.333 -47 -118 -47c-52 0 -91 15.833 -117 47.5s-39 74.834 -39 129.501v531h77v-535c0 -67.333 27.333 -101 82 -101c54 0 81 33.667 81 101v535h73z" />
    <glyph glyph-name="umacron" unicode="&#x16b;" 
d="M93 806h205v-56h-205v56zM350 700v-531.002c0 -55.333 -13 -98.666 -39 -129.999s-65.333 -47 -118 -47c-52 0 -91 15.833 -117 47.5s-39 74.834 -39 129.501v531h77v-535c0 -67.333 27.333 -101 82 -101c54 0 81 33.667 81 101v535h73z" />
    <glyph glyph-name="Ubreve" unicode="&#x16c;" 
d="M252 838l47 -0.000976562c-0.666992 -31.333 -10.167 -56.166 -28.5 -74.499s-43.833 -27.5 -76.5 -27.5c-32 0 -57.167 9 -75.5 27s-27.833 43 -28.5 75h47c2.66699 -35.333 21.667 -53 57 -53c36 0 55.333 17.667 58 53zM350 699.999v-531.002
c0 -55.333 -13 -98.666 -39 -129.999s-65.333 -47 -118 -47c-52 0 -91 15.833 -117 47.5s-39 74.834 -39 129.501v531h77v-535c0 -67.333 27.333 -101 82 -101c54 0 81 33.667 81 101v535h73z" />
    <glyph glyph-name="ubreve" unicode="&#x16d;" 
d="M252 838l47 -0.000976562c-0.666992 -31.333 -10.167 -56.166 -28.5 -74.499s-43.833 -27.5 -76.5 -27.5c-32 0 -57.167 9 -75.5 27s-27.833 43 -28.5 75h47c2.66699 -35.333 21.667 -53 57 -53c36 0 55.333 17.667 58 53zM350 699.999v-531.002
c0 -55.333 -13 -98.666 -39 -129.999s-65.333 -47 -118 -47c-52 0 -91 15.833 -117 47.5s-39 74.834 -39 129.501v531h77v-535c0 -67.333 27.333 -101 82 -101c54 0 81 33.667 81 101v535h73z" />
    <glyph glyph-name="Uring" unicode="&#x16e;" 
d="M196 881c20.667 0 38.167 -7 52.5 -21s21.5 -31.333 21.5 -52s-7.16699 -38 -21.5 -52s-31.833 -21 -52.5 -21s-38 7 -52 21s-21 31.333 -21 52s7 38 21 52s31.333 21 52 21zM196 844c-10 0 -18.5 -3.33105 -25.5 -9.99805s-10.5 -15.334 -10.5 -26.001
s3.5 -19.334 10.5 -26.001s15.5 -10 25.5 -10s18.667 3.5 26 10.5s11 15.5 11 25.5s-3.66699 18.5 -11 25.5s-16 10.5 -26 10.5zM350 700.002v-531.002c0 -55.333 -13 -98.666 -39 -129.999s-65.333 -47 -118 -47c-52 0 -91 15.833 -117 47.5s-39 74.834 -39 129.501v531h77
v-535c0 -67.333 27.333 -101 82 -101c54 0 81 33.667 81 101v535h73z" />
    <glyph glyph-name="uring" unicode="&#x16f;" 
d="M196 881c20.667 0 38.167 -7 52.5 -21s21.5 -31.333 21.5 -52s-7.16699 -38 -21.5 -52s-31.833 -21 -52.5 -21s-38 7 -52 21s-21 31.333 -21 52s7 38 21 52s31.333 21 52 21zM196 844c-10 0 -18.5 -3.33105 -25.5 -9.99805s-10.5 -15.334 -10.5 -26.001
s3.5 -19.334 10.5 -26.001s15.5 -10 25.5 -10s18.667 3.5 26 10.5s11 15.5 11 25.5s-3.66699 18.5 -11 25.5s-16 10.5 -26 10.5zM350 700.002v-531.002c0 -55.333 -13 -98.666 -39 -129.999s-65.333 -47 -118 -47c-52 0 -91 15.833 -117 47.5s-39 74.834 -39 129.501v531h77
v-535c0 -67.333 27.333 -101 82 -101c54 0 81 33.667 81 101v535h73z" />
    <glyph glyph-name="Uhungarumlaut" unicode="&#x170;" 
d="M157 844h72l-80 -103h-49zM264 844h73l-81 -103h-48zM350 700v-531.002c0 -55.333 -13 -98.666 -39 -129.999s-65.333 -47 -118 -47c-52 0 -91 15.833 -117 47.5s-39 74.834 -39 129.501v531h77v-535c0 -67.333 27.333 -101 82 -101c54 0 81 33.667 81 101v535h73z" />
    <glyph glyph-name="uhungarumlaut" unicode="&#x171;" 
d="M157 844h72l-80 -103h-49zM264 844h73l-81 -103h-48zM350 700v-531.002c0 -55.333 -13 -98.666 -39 -129.999s-65.333 -47 -118 -47c-52 0 -91 15.833 -117 47.5s-39 74.834 -39 129.501v531h77v-535c0 -67.333 27.333 -101 82 -101c54 0 81 33.667 81 101v535h73z" />
    <glyph glyph-name="Uogonek" unicode="&#x172;" 
d="M350 700l0.000976562 -531c0 -80.667 -25 -135.334 -75 -164.001c-12.667 -10 -22.5 -22.167 -29.5 -36.5s-10.167 -26.833 -9.5 -37.5c0 -20 12.333 -30 37 -30c13.333 0 26.666 3 39.999 9v-41c-18 -8 -38.667 -12 -62 -12c-22.667 0 -40.834 4.66699 -54.501 14
s-20.5 23.333 -20.5 42c-1.33301 30 16.334 57.667 53.001 83c-10 -2.66699 -22 -4 -36 -4c-52 0 -91 15.833 -117 47.5s-39 74.834 -39 129.501v531h77v-535c0 -67.333 27.333 -101 82 -101c54 0 81 33.667 81 101v535h73z" />
    <glyph glyph-name="uogonek" unicode="&#x173;" 
d="M350 700l0.000976562 -531c0 -80.667 -25 -135.334 -75 -164.001c-12.667 -10 -22.5 -22.167 -29.5 -36.5s-10.167 -26.833 -9.5 -37.5c0 -20 12.333 -30 37 -30c13.333 0 26.666 3 39.999 9v-41c-18 -8 -38.667 -12 -62 -12c-22.667 0 -40.834 4.66699 -54.501 14
s-20.5 23.333 -20.5 42c-1.33301 30 16.334 57.667 53.001 83c-10 -2.66699 -22 -4 -36 -4c-52 0 -91 15.833 -117 47.5s-39 74.834 -39 129.501v531h77v-535c0 -67.333 27.333 -101 82 -101c54 0 81 33.667 81 101v535h73z" />
    <glyph glyph-name="Wcircumflex" unicode="&#x174;" horiz-adv-x="583" 
d="M293 799l-53 -59h-68l86 101h69l87 -101h-68zM295 475l-69 -475h-107l-96 700h76l82 -596l78 595h77l77 -596l79 597h68l-95 -700h-103z" />
    <glyph glyph-name="wcircumflex" unicode="&#x175;" horiz-adv-x="583" 
d="M293 799l-53 -59h-68l86 101h69l87 -101h-68zM295 475l-69 -475h-107l-96 700h76l82 -596l78 595h77l77 -596l79 597h68l-95 -700h-103z" />
    <glyph glyph-name="Ycircumflex" unicode="&#x176;" horiz-adv-x="406" 
d="M206 799l-53 -59h-68l86 100h69l87 -100h-68zM164 0v251l-148 449h81l109 -344l110 344h74l-149 -449v-251h-77z" />
    <glyph glyph-name="ycircumflex" unicode="&#x177;" horiz-adv-x="406" 
d="M206 799l-53 -59h-68l86 100h69l87 -100h-68zM164 0v251l-148 449h81l109 -344l110 344h74l-149 -449v-251h-77z" />
    <glyph glyph-name="Ydieresis" unicode="&#x178;" horiz-adv-x="406" 
d="M109 829h68v-90h-68v90zM233 829h68v-90h-68v90zM164 0v251l-148 449h81l109 -344l110 344h74l-149 -449v-251h-77z" />
    <glyph glyph-name="Zacute" unicode="&#x179;" horiz-adv-x="379" 
d="M219 845h78l-93 -103h-54zM347 71v-71h-318v70l240 559h-229v71h309v-70l-241 -559h239z" />
    <glyph glyph-name="zacute" unicode="&#x17a;" horiz-adv-x="379" 
d="M219 845h78l-93 -103h-54zM347 71v-71h-318v70l240 559h-229v71h309v-70l-241 -559h239z" />
    <glyph glyph-name="Zdotaccent" unicode="&#x17b;" horiz-adv-x="379" 
d="M163 832h68v-90h-68v90zM347 71v-71h-318v70l240 559h-229v71h309v-70l-241 -559h239z" />
    <glyph glyph-name="zdotaccent" unicode="&#x17c;" horiz-adv-x="379" 
d="M163 832h68v-90h-68v90zM347 71v-71h-318v70l240 559h-229v71h309v-70l-241 -559h239z" />
    <glyph glyph-name="Zcaron" unicode="&#x17d;" horiz-adv-x="379" 
d="M73 842h68l52 -60l54 60h68l-87 -101h-69zM347 71v-71h-318v70l240 559h-229v71h309v-70l-241 -559h239z" />
    <glyph glyph-name="zcaron" unicode="&#x17e;" horiz-adv-x="379" 
d="M73 842h68l52 -60l54 60h68l-87 -101h-69zM347 71v-71h-318v70l240 559h-229v71h309v-70l-241 -559h239z" />
    <glyph glyph-name="AEacute" unicode="&#x1fc;" horiz-adv-x="585" 
d="M333 844h77l-93 -103h-54zM355 390h161v-70h-161v-249h198v-71h-275v142h-143l-45 -142h-74l218 700h319v-71h-198v-239zM278 602l-125 -392h125v392z" />
    <glyph glyph-name="aeacute" unicode="&#x1fd;" horiz-adv-x="585" 
d="M333 844h77l-93 -103h-54zM355 390h161v-70h-161v-249h198v-71h-275v142h-143l-45 -142h-74l218 700h319v-71h-198v-239zM278 602l-125 -392h125v392z" />
    <glyph glyph-name="Oslashacute" unicode="&#x1fe;" horiz-adv-x="389" 
d="M149 742l70 103h78l-93 -103h-55zM350 712l-25 -66c20 -30 30 -68.333 30 -115v-362c0 -54.667 -13.667 -97.667 -41 -129s-67.333 -47 -120 -47c-42 0 -76 10.333 -102 31l-19 -50l-34 13l25 67c-20 30 -30 68.333 -30 115v362c0 54.667 13.5 97.667 40.5 129
s66.833 47 119.5 47c42 0 76.333 -10.333 103 -31l18 49zM111 180l155 414c-13.333 28 -37.333 42 -72 42c-55.333 0 -83 -33.667 -83 -101v-355zM194 64c55.333 0 83 33.667 83 101v353l-155 -413c13.333 -27.333 37.333 -41 72 -41z" />
    <glyph glyph-name="oslashacute" unicode="&#x1ff;" horiz-adv-x="389" 
d="M149 742l70 103h78l-93 -103h-55zM350 712l-25 -66c20 -30 30 -68.333 30 -115v-362c0 -54.667 -13.667 -97.667 -41 -129s-67.333 -47 -120 -47c-42 0 -76 10.333 -102 31l-19 -50l-34 13l25 67c-20 30 -30 68.333 -30 115v362c0 54.667 13.5 97.667 40.5 129
s66.833 47 119.5 47c42 0 76.333 -10.333 103 -31l18 49zM111 180l155 414c-13.333 28 -37.333 42 -72 42c-55.333 0 -83 -33.667 -83 -101v-355zM194 64c55.333 0 83 33.667 83 101v353l-155 -413c13.333 -27.333 37.333 -41 72 -41z" />
    <glyph glyph-name="uni0218" unicode="&#x218;" horiz-adv-x="372" 
d="M187 707c51.333 0 90.1709 -15.501 116.504 -46.501s39.5 -73.833 39.5 -128.5v-19h-74v23c0 66.667 -26.667 100 -80 100s-80 -33 -80 -99c0 -24.667 5.83301 -47.5 17.5 -68.5s26.167 -38.667 43.5 -53l56.5 -48l56.5 -51c17.333 -16.333 31.833 -37.5 43.5 -63.5
s17.5 -54.333 17.5 -85c0 -54.667 -13.333 -97.5 -40 -128.5s-66 -46.5 -118 -46.5s-91.167 15.5 -117.5 46.5s-39.5 73.833 -39.5 128.5v40h73v-44c0 -66.667 27.333 -100 82 -100s82 33.333 82 100c0 21.333 -4.33301 41 -13 59s-19.834 34 -33.501 48
s-28.834 27.667 -45.501 41l-50 42c-16.667 14.667 -31.834 30 -45.501 46s-24.834 35.333 -33.501 58s-13 47.334 -13 74.001c0 55.333 13 98.333 39 129s64.667 46 116 46zM153.005 -177.001l23 56h-25v88h66v-81l-35 -63h-29z" />
    <glyph glyph-name="uni0219" unicode="&#x219;" horiz-adv-x="372" 
d="M187 707c51.333 0 90.1709 -15.501 116.504 -46.501s39.5 -73.833 39.5 -128.5v-19h-74v23c0 66.667 -26.667 100 -80 100s-80 -33 -80 -99c0 -24.667 5.83301 -47.5 17.5 -68.5s26.167 -38.667 43.5 -53l56.5 -48l56.5 -51c17.333 -16.333 31.833 -37.5 43.5 -63.5
s17.5 -54.333 17.5 -85c0 -54.667 -13.333 -97.5 -40 -128.5s-66 -46.5 -118 -46.5s-91.167 15.5 -117.5 46.5s-39.5 73.833 -39.5 128.5v40h73v-44c0 -66.667 27.333 -100 82 -100s82 33.333 82 100c0 21.333 -4.33301 41 -13 59s-19.834 34 -33.501 48
s-28.834 27.667 -45.501 41l-50 42c-16.667 14.667 -31.834 30 -45.501 46s-24.834 35.333 -33.501 58s-13 47.334 -13 74.001c0 55.333 13 98.333 39 129s64.667 46 116 46zM153.005 -177.001l23 56h-25v88h66v-81l-35 -63h-29z" />
    <glyph glyph-name="uni021A" unicode="&#x21a;" horiz-adv-x="372" 
d="M225 0h-78v629h-129v71h336v-71h-129v-629zM155 -177l23 56h-25v88h66v-81l-35 -63h-29z" />
    <glyph glyph-name="uni021B" unicode="&#x21b;" horiz-adv-x="372" 
d="M225 0h-78v629h-129v71h336v-71h-129v-629zM155 -177l23 56h-25v88h66v-81l-35 -63h-29z" />
    <glyph glyph-name="uni0237" unicode="&#x237;" horiz-adv-x="255" 
d="M20 0l-0.000976562 71c8.66699 -0.666992 21.667 -1 39 -1c27.333 1.33301 47.833 9.5 61.5 24.5s20.5 39.5 20.5 73.5v532h77v-527c0 -113.333 -49.667 -171.333 -149 -174c-27.333 0 -43.666 0.333008 -48.999 1z" />
    <glyph glyph-name="uni02BC" unicode="&#x2bc;" horiz-adv-x="160" 
d="M120 611l-39 -96h-32l25 88h-29v97h75v-89z" />
    <glyph glyph-name="circumflex" unicode="&#x2c6;" horiz-adv-x="250" 
d="M125 807l-53 -59h-68l87 100h69l86 -100h-68z" />
    <glyph glyph-name="caron" unicode="&#x2c7;" horiz-adv-x="250" 
d="M4 848h68l53 -60l53 60h68l-86 -100h-69z" />
    <glyph glyph-name="breve" unicode="&#x2d8;" horiz-adv-x="252" 
d="M183 834h48.002c-0.666992 -31.333 -10.334 -56 -29.001 -74s-44.334 -27 -77.001 -27c-32 0 -57 9 -75 27s-27.333 42.667 -28 74h47c2 -34.667 20.667 -52 56 -52c36.667 0 56 17.333 58 52z" />
    <glyph glyph-name="dotaccent" unicode="&#x2d9;" horiz-adv-x="198" 
d="M65 833h68v-90h-68v90z" />
    <glyph glyph-name="ring" unicode="&#x2da;" horiz-adv-x="234" 
d="M117 887c20.667 0 38 -7 52 -21s21 -31.333 21 -52s-7 -38 -21 -52s-31.333 -21 -52 -21s-38.167 7 -52.5 21s-21.5 31.333 -21.5 52s7.16699 38 21.5 52s31.833 21 52.5 21zM117 850c-10.667 0 -19.5 -3.33301 -26.5 -10s-10.5 -15.334 -10.5 -26.001
s3.5 -19.334 10.5 -26.001s15.833 -10 26.5 -10c10 0 18.5 3.33301 25.5 10s10.5 15.334 10.5 26.001s-3.5 19.334 -10.5 26.001s-15.5 10 -25.5 10z" />
    <glyph glyph-name="ogonek" unicode="&#x2db;" horiz-adv-x="227" 
d="M111 3h34.002c-28 -21.333 -41.333 -45.333 -40 -72c0 -20 12.333 -30 37 -30c13.333 0 26.666 3 39.999 9v-41c-18 -8 -38.667 -12 -62 -12c-22.667 0 -40.834 4.66699 -54.501 14s-20.5 23.333 -20.5 42c-1.33301 34 20.667 64 66 90z" />
    <glyph glyph-name="tilde" unicode="&#x2dc;" horiz-adv-x="256" 
d="M212 828l38.001 -26c-14.667 -38.667 -38.334 -58 -71.001 -58c-13.333 0 -29.5 4.83301 -48.5 14.5s-33.5 14.5 -43.5 14.5c-18 0 -32 -9.66699 -42 -29l-39 26c16 38.667 40.667 58 74 58c14 0 30.5 -4.83301 49.5 -14.5s33.167 -14.5 42.5 -14.5
c16.667 0 30 9.66699 40 29z" />
    <glyph glyph-name="hungarumlaut" unicode="&#x2dd;" horiz-adv-x="242" 
d="M54 848h72l-80 -103h-50zM161 848h72l-80 -103h-49z" />
    <glyph glyph-name="uni0401" unicode="&#x401;" horiz-adv-x="360" 
d="M87 831h68v-90h-68v90zM211 831h69v-90h-69v90zM118 390h171v-70h-171v-249h210v-71h-288v700h288v-71h-210v-239z" />
    <glyph glyph-name="uni0410" unicode="&#x410;" horiz-adv-x="422" 
d="M296 141h-177l-27 -141h-72l134 700h113l134 -700h-78zM206 612l-77 -404h156z" />
    <glyph glyph-name="uni0411" unicode="&#x411;" horiz-adv-x="401" 
d="M118 411h82c110 0 165 -54.667 165 -164v-77c0 -113.333 -53.667 -170 -161 -170h-163v700h295v-71h-218v-218zM118 71h86c28.667 0 49.667 7.5 63 22.5s20 38.833 20 71.5v87c0 32.667 -7 55.667 -21 69s-36 20 -66 20h-82v-270z" />
    <glyph glyph-name="uni0412" unicode="&#x412;" horiz-adv-x="392" 
d="M40 700l157 -0.000976562c53.333 0 92 -12.667 116 -38s36 -64.333 36 -117v-33c0 -38.667 -6.33301 -69.167 -19 -91.5s-33.667 -38.166 -63 -47.499c62.667 -17.333 94 -67.333 94 -150v-59c0 -109.333 -53.333 -164 -160 -164h-161v700zM118 402.999l60 0.000976562
c32.667 0 56.5 6.66699 71.5 20s22.5 37.666 22.5 72.999v41c0 31.333 -6 54.5 -18 69.5s-31.667 22.5 -59 22.5h-77v-226zM118 71h83c55.333 0 83 31.667 83 95v62c0 38 -7.66699 64.833 -23 80.5s-40.333 23.5 -75 23.5h-68v-261z" />
    <glyph glyph-name="uni0413" unicode="&#x413;" horiz-adv-x="356" 
d="M320 629h-202v-629h-77v700h279v-71z" />
    <glyph glyph-name="uni0414" unicode="&#x414;" horiz-adv-x="489" 
d="M461 -96h-76v96h-286v-96h-75v165h45c18.667 20.667 29 54.667 31 102l27 529h281v-631h53v-165zM199 629l-22.999 -457.001c-2.66699 -49.333 -13.334 -83.666 -32.001 -102.999h185v560h-130z" />
    <glyph glyph-name="uni0415" unicode="&#x415;" horiz-adv-x="360" 
d="M118 390h171v-70h-171v-249h210v-71h-288v700h288v-71h-210v-239z" />
    <glyph glyph-name="uni0416" unicode="&#x416;" horiz-adv-x="613" 
d="M516 0l-134 330l-37 -66v-264h-77v264l-36 67l-134 -331h-80l160 403l-156 297h78l168 -322v322h77v-322l169 322h78l-155 -295l159 -405h-80z" />
    <glyph glyph-name="uni0417" unicode="&#x417;" 
d="M193 707c52.667 0 92.167 -15.668 118.5 -47.001s39.5 -74.333 39.5 -129v-18c0 -75.333 -28.667 -123.666 -86 -144.999c57.333 -19.333 86 -67.333 86 -144v-55c0 -54.667 -13.167 -97.667 -39.5 -129s-65.833 -47 -118.5 -47c-52 0 -91.167 15.667 -117.5 47
s-39.5 74.333 -39.5 129v68h73v-72c0 -67.333 27.333 -101 82 -101s82 35.667 82 107v55c0 69.333 -30 104 -90 104h-33v70h37c26 0 46.833 8.5 62.5 25.5s23.5 40.5 23.5 70.5v32c0 72 -27.333 108 -82 108s-82 -33.667 -82 -101v-47h-72v44c0 55.333 13 98.333 39 129
s65 46 117 46z" />
    <glyph glyph-name="uni0418" unicode="&#x418;" horiz-adv-x="409" 
d="M300 557l-75 -232l-104 -325h-81v700h69v-522l72 221l102 301h87v-700h-70v557z" />
    <glyph glyph-name="uni0419" unicode="&#x419;" horiz-adv-x="410" 
d="M269 844h47.998c0 -30.667 -9.66699 -54.667 -29 -72s-45.666 -26 -78.999 -26s-59.333 8.66699 -78 26s-28.667 41.333 -30 72h49c2.66699 -34 22.334 -51 59.001 -51c37.333 0 57.333 17 60 51zM299.998 557l-73 -226l-106 -331h-81v700h69v-522l66 205l108 317h87
v-700h-70v557z" />
    <glyph glyph-name="uni041A" unicode="&#x41a;" horiz-adv-x="409" 
d="M309 0l-150 304l-41 -69v-235h-78v700h78v-338l186 338h79l-177 -319l183 -381h-80z" />
    <glyph glyph-name="uni041B" unicode="&#x41b;" horiz-adv-x="444" 
d="M323 629l-133.999 -0.000976562l-16 -455c-2 -59.333 -13.333 -103.166 -34 -131.499s-56.334 -42.833 -107.001 -43.5h-13v71c30.667 0 51 7.5 61 22.5s15.667 40.833 17 77.5l19 530h285v-700h-78v629z" />
    <glyph glyph-name="uni041C" unicode="&#x41c;" horiz-adv-x="523" 
d="M409 563l-111 -562h-75l-116 557v-558h-68v700h109l115 -559l111 559h109v-700h-74v563z" />
    <glyph glyph-name="uni041D" unicode="&#x41d;" horiz-adv-x="408" 
d="M290 315h-172v-315h-78v700h78v-315h172v315h78v-700h-78v315z" />
    <glyph glyph-name="uni041E" unicode="&#x41e;" horiz-adv-x="389" 
d="M34 169v362c0 54.667 13.5 97.667 40.5 129s66.833 47 119.5 47s92.667 -15.667 120 -47s41 -74.333 41 -129v-362c0 -54.667 -13.667 -97.667 -41 -129s-67.333 -47 -120 -47c-52 0 -91.667 15.667 -119 47s-41 74.333 -41 129zM111 535v-370
c0 -67.333 27.667 -101 83 -101s83 33.667 83 101v370c0 67.333 -27.667 101 -83 101s-83 -33.667 -83 -101z" />
    <glyph glyph-name="uni041F" unicode="&#x41f;" horiz-adv-x="408" 
d="M290 629h-172v-629h-78v700h328v-700h-78v629z" />
    <glyph glyph-name="uni0420" unicode="&#x420;" horiz-adv-x="371" 
d="M40 700h153c104.667 0 157 -57 157 -171v-84c0 -112.667 -54.333 -169 -163 -169h-69v-276h-78v700zM118 346l69 -0.000976562c29.333 0 51 7.33301 65 22s21 38.667 21 72v93c0 32.667 -6.33301 56.834 -19 72.501s-33 23.5 -61 23.5h-75v-283z" />
    <glyph glyph-name="uni0421" unicode="&#x421;" horiz-adv-x="380" 
d="M191 707c52.667 0 92.167 -15.667 118.5 -47s39.5 -74.333 39.5 -129v-63h-74v67c0 67.333 -27.333 101 -82 101s-82 -33.667 -82 -101v-370c0 -67.333 27.333 -101 82 -101s82 33.667 82 101v91h74v-87c0 -54.667 -13.167 -97.667 -39.5 -129s-65.833 -47 -118.5 -47
c-52 0 -91.167 15.667 -117.5 47s-39.5 74.333 -39.5 129v362c0 54.667 13.167 97.667 39.5 129s65.5 47 117.5 47z" />
    <glyph glyph-name="uni0422" unicode="&#x422;" horiz-adv-x="372" 
d="M225 0h-78v629h-129v71h336v-71h-129v-629z" />
    <glyph glyph-name="uni0423" unicode="&#x423;" horiz-adv-x="417" 
d="M400 700l-150 -546.002c-13.333 -57.333 -32.833 -98.166 -58.5 -122.499s-68.5 -35.166 -128.5 -32.499v70c30 -1.33301 52.5 3.16699 67.5 13.5s25.833 28.833 32.5 55.5l16 46l-161 516h78l71 -243l48 -176l41 176l63 243h81z" />
    <glyph glyph-name="uni0424" unicode="&#x424;" horiz-adv-x="569" 
d="M322 618h49c108 0 162 -58.333 162 -175v-191c0 -116.667 -54 -175 -162 -175h-49v-77h-77v77h-49c-108 0 -162 58.333 -162 175v191c0 116.667 54 175 162 175h49v82h77v-82zM245 549h-49c-56.667 0 -85 -33.667 -85 -101v-201c0 -68 28.333 -102 85 -102h49v404z
M322 145h49c57.333 0 86 34 86 102v201c0 67.333 -28.667 101 -86 101h-49v-404z" />
    <glyph glyph-name="uni0425" unicode="&#x425;" horiz-adv-x="435" 
d="M330 0l-116 302l-117 -302h-74l141 361l-132 339h81l108 -280l109 280h73l-131 -339l140 -361h-82z" />
    <glyph glyph-name="uni0426" unicode="&#x426;" horiz-adv-x="455" 
d="M428 -94h-76v94h-305v700h77v-629h172v629h79v-631h53v-163z" />
    <glyph glyph-name="uni0427" unicode="&#x427;" horiz-adv-x="401" 
d="M283 0l-0.000976562 310c-25.333 -36.667 -61.666 -55 -108.999 -55c-45.333 0 -79.833 15.333 -103.5 46s-35.5 70.667 -35.5 120v279h78v-273c0 -30 7.66699 -54.333 23 -73s36.333 -28 63 -28c48 0 76 27.333 84 82v292h77v-700h-77z" />
    <glyph glyph-name="uni0428" unicode="&#x428;" horiz-adv-x="581" 
d="M40 700h78v-629h134v629h78v-629h134v629h77v-700h-501v700z" />
    <glyph glyph-name="uni0429" unicode="&#x429;" horiz-adv-x="622" 
d="M595 -94h-75v94h-480v700h78v-629h134v629h77v-629h135v629h77v-631h54v-163z" />
    <glyph glyph-name="uni042A" unicode="&#x42a;" horiz-adv-x="438" 
d="M175 424h70c108.667 0 163 -56.333 163 -169v-84c0 -114 -52.333 -171 -157 -171h-153v630h-88v70h165v-276zM175 71l76 -0.000976562c28 0 48.167 7.83301 60.5 23.5s18.5 39.834 18.5 72.501v93c0 33.333 -6.83301 57.333 -20.5 72s-35.167 22 -64.5 22h-70v-283z" />
    <glyph glyph-name="uni042B" unicode="&#x42b;" horiz-adv-x="532" 
d="M118 424h69c108.667 0 163 -56.333 163 -169v-84c0 -114 -52.333 -171 -157 -171h-153v700h78v-276zM415 700h77v-700h-77v700zM118 71l75 -0.000976562c28 0 48.333 7.83301 61 23.5s19 39.834 19 72.501v93c0 33.333 -7 57.333 -21 72s-35.667 22 -65 22h-69v-283z" />
    <glyph glyph-name="uni042C" unicode="&#x42c;" horiz-adv-x="381" 
d="M118 424h69c108.667 0 163 -56.333 163 -169v-84c0 -114 -52.333 -171 -157 -171h-153v700h78v-276zM118 71l75 -0.000976562c28 0 48.333 7.83301 61 23.5s19 39.834 19 72.501v93c0 33.333 -7 57.333 -21 72s-35.667 22 -65 22h-69v-283z" />
    <glyph glyph-name="uni042D" unicode="&#x42d;" horiz-adv-x="380" 
d="M188 707c52 0 91.167 -15.667 117.5 -47s39.5 -74.333 39.5 -129v-362c0 -54.667 -13.167 -97.667 -39.5 -129s-65.5 -47 -117.5 -47s-91.167 15.667 -117.5 47s-39.5 74.333 -39.5 129v76h73v-80c0 -67.333 27.333 -101 82 -101s82 33.667 82 101v162h-122v70h122v138
c0 67.333 -27.333 101 -82 101s-82 -33.667 -82 -101v-56h-72v52c0 54.667 13 97.667 39 129s65 47 117 47z" />
    <glyph glyph-name="uni042E" unicode="&#x42e;" horiz-adv-x="575" 
d="M380 707c52.667 0 92.5 -15.667 119.5 -47s40.5 -74.333 40.5 -129v-362c0 -54.667 -13.667 -97.667 -41 -129s-67 -47 -119 -47c-52.667 0 -92.667 15.667 -120 47s-41 74.333 -41 129v146h-101v-315h-78v700h78v-315h101v146c0 54.667 13.667 97.667 41 129
s67.333 47 120 47zM380 636c-55.333 0 -83 -33.667 -83 -101v-370c0 -67.333 27.667 -101 83 -101s83 33.667 83 101v370c0 67.333 -27.667 101 -83 101z" />
    <glyph glyph-name="uni042F" unicode="&#x42f;" horiz-adv-x="394" 
d="M276 299l-55 -0.000976562c-34 0 -59.5 -7.83301 -76.5 -23.5s-25.5 -42.5 -25.5 -80.5v-110c0 -37.333 -4.33301 -65.666 -13 -84.999h-79c9.33301 18.667 14 46.667 14 84v109c0 80 29 128.667 87 146c-57.333 18.667 -86 66.667 -86 144v57
c0 53.333 12.5 93.333 37.5 120s64.5 40 118.5 40h156v-700h-78v299zM276 628.999h-76c-54 0 -81 -32 -81 -96v-67c0 -36 8.16699 -61 24.5 -75s40.833 -21 73.5 -21h59v259z" />
    <glyph glyph-name="uni0430" unicode="&#x430;" horiz-adv-x="422" 
d="M296 141h-177l-27 -141h-72l134 700h113l134 -700h-78zM206 612l-77 -404h156z" />
    <glyph glyph-name="uni0431" unicode="&#x431;" horiz-adv-x="401" 
d="M118 411h82c110 0 165 -54.667 165 -164v-77c0 -113.333 -53.667 -170 -161 -170h-163v700h295v-71h-218v-218zM118 71h86c28.667 0 49.667 7.5 63 22.5s20 38.833 20 71.5v87c0 32.667 -7 55.667 -21 69s-36 20 -66 20h-82v-270z" />
    <glyph glyph-name="uni0432" unicode="&#x432;" horiz-adv-x="392" 
d="M40 700l157 -0.000976562c53.333 0 92 -12.667 116 -38s36 -64.333 36 -117v-33c0 -38.667 -6.33301 -69.167 -19 -91.5s-33.667 -38.166 -63 -47.499c62.667 -17.333 94 -67.333 94 -150v-59c0 -109.333 -53.333 -164 -160 -164h-161v700zM118 402.999l60 0.000976562
c32.667 0 56.5 6.66699 71.5 20s22.5 37.666 22.5 72.999v41c0 31.333 -6 54.5 -18 69.5s-31.667 22.5 -59 22.5h-77v-226zM118 71h83c55.333 0 83 31.667 83 95v62c0 38 -7.66699 64.833 -23 80.5s-40.333 23.5 -75 23.5h-68v-261z" />
    <glyph glyph-name="uni0433" unicode="&#x433;" horiz-adv-x="356" 
d="M320 629h-202v-629h-77v700h279v-71z" />
    <glyph glyph-name="uni0434" unicode="&#x434;" horiz-adv-x="489" 
d="M461 -96h-76v96h-286v-96h-75v165h45c18.667 20.667 29 54.667 31 102l27 529h281v-631h53v-165zM199 629l-22.999 -457.001c-2.66699 -49.333 -13.334 -83.666 -32.001 -102.999h185v560h-130z" />
    <glyph glyph-name="uni0435" unicode="&#x435;" horiz-adv-x="360" 
d="M118 390h171v-70h-171v-249h210v-71h-288v700h288v-71h-210v-239z" />
    <glyph glyph-name="uni0436" unicode="&#x436;" horiz-adv-x="613" 
d="M516 0l-134 330l-37 -66v-264h-77v264l-36 67l-134 -331h-80l160 403l-156 297h78l168 -322v322h77v-322l169 322h78l-155 -295l159 -405h-80z" />
    <glyph glyph-name="uni0437" unicode="&#x437;" 
d="M193 707c52.667 0 92.167 -15.668 118.5 -47.001s39.5 -74.333 39.5 -129v-18c0 -75.333 -28.667 -123.666 -86 -144.999c57.333 -19.333 86 -67.333 86 -144v-55c0 -54.667 -13.167 -97.667 -39.5 -129s-65.833 -47 -118.5 -47c-52 0 -91.167 15.667 -117.5 47
s-39.5 74.333 -39.5 129v68h73v-72c0 -67.333 27.333 -101 82 -101s82 35.667 82 107v55c0 69.333 -30 104 -90 104h-33v70h37c26 0 46.833 8.5 62.5 25.5s23.5 40.5 23.5 70.5v32c0 72 -27.333 108 -82 108s-82 -33.667 -82 -101v-47h-72v44c0 55.333 13 98.333 39 129
s65 46 117 46z" />
    <glyph glyph-name="uni0438" unicode="&#x438;" horiz-adv-x="409" 
d="M300 557l-76 -234l-103 -323h-81v700h69v-522l62 193l112 329h87v-700h-70v557z" />
    <glyph glyph-name="uni0439" unicode="&#x439;" horiz-adv-x="410" 
d="M269 843h47.998c0 -30.667 -9.66699 -54.667 -29 -72s-45.666 -26 -78.999 -26s-59.333 8.66699 -78 26s-28.667 41.333 -30 72h49c2.66699 -34 22.334 -51 59.001 -51c37.333 0 57.333 17 60 51zM299.998 557l-70 -220l-109 -337h-81v700h69v-522l65 202l109 320h87
v-700h-70v557z" />
    <glyph glyph-name="uni043A" unicode="&#x43a;" horiz-adv-x="409" 
d="M309 0l-150 304l-41 -69v-235h-78v700h78v-338l186 338h79l-177 -319l183 -381h-80z" />
    <glyph glyph-name="uni043B" unicode="&#x43b;" horiz-adv-x="444" 
d="M323 629l-133.999 -0.000976562l-16 -455c-2 -59.333 -13.333 -103.166 -34 -131.499s-56.334 -42.833 -107.001 -43.5h-13v71c30.667 0 51 7.5 61 22.5s15.667 40.833 17 77.5l19 530h285v-700h-78v629z" />
    <glyph glyph-name="uni043C" unicode="&#x43c;" horiz-adv-x="523" 
d="M409 563l-111 -562h-75l-116 557v-558h-68v700h109l115 -559l111 559h109v-700h-74v563z" />
    <glyph glyph-name="uni043D" unicode="&#x43d;" horiz-adv-x="408" 
d="M290 315h-172v-315h-78v700h78v-315h172v315h78v-700h-78v315z" />
    <glyph glyph-name="uni043E" unicode="&#x43e;" horiz-adv-x="389" 
d="M34 169v362c0 54.667 13.5 97.667 40.5 129s66.833 47 119.5 47s92.667 -15.667 120 -47s41 -74.333 41 -129v-362c0 -54.667 -13.667 -97.667 -41 -129s-67.333 -47 -120 -47c-52 0 -91.667 15.667 -119 47s-41 74.333 -41 129zM111 535v-370
c0 -67.333 27.667 -101 83 -101s83 33.667 83 101v370c0 67.333 -27.667 101 -83 101s-83 -33.667 -83 -101z" />
    <glyph glyph-name="uni043F" unicode="&#x43f;" horiz-adv-x="408" 
d="M290 629h-172v-629h-78v700h328v-700h-78v629z" />
    <glyph glyph-name="uni0440" unicode="&#x440;" horiz-adv-x="371" 
d="M40 700h153c104.667 0 157 -57 157 -171v-84c0 -112.667 -54.333 -169 -163 -169h-69v-276h-78v700zM118 346l69 -0.000976562c29.333 0 51 7.33301 65 22s21 38.667 21 72v93c0 32.667 -6.33301 56.834 -19 72.501s-33 23.5 -61 23.5h-75v-283z" />
    <glyph glyph-name="uni0441" unicode="&#x441;" horiz-adv-x="380" 
d="M191 707c52.667 0 92.167 -15.667 118.5 -47s39.5 -74.333 39.5 -129v-63h-74v67c0 67.333 -27.333 101 -82 101s-82 -33.667 -82 -101v-370c0 -67.333 27.333 -101 82 -101s82 33.667 82 101v91h74v-87c0 -54.667 -13.167 -97.667 -39.5 -129s-65.833 -47 -118.5 -47
c-52 0 -91.167 15.667 -117.5 47s-39.5 74.333 -39.5 129v362c0 54.667 13.167 97.667 39.5 129s65.5 47 117.5 47z" />
    <glyph glyph-name="uni0442" unicode="&#x442;" horiz-adv-x="372" 
d="M225 0h-78v629h-129v71h336v-71h-129v-629z" />
    <glyph glyph-name="uni0443" unicode="&#x443;" horiz-adv-x="417" 
d="M400 700l-150 -546.002c-13.333 -57.333 -32.833 -98.166 -58.5 -122.499s-68.5 -35.166 -128.5 -32.499v70c30 -1.33301 52.5 3.16699 67.5 13.5s25.833 28.833 32.5 55.5l16 46l-161 516h78l71 -243l48 -176l41 176l63 243h81z" />
    <glyph glyph-name="uni0444" unicode="&#x444;" horiz-adv-x="569" 
d="M322 618h49c108 0 162 -58.333 162 -175v-191c0 -116.667 -54 -175 -162 -175h-49v-77h-77v77h-49c-108 0 -162 58.333 -162 175v191c0 116.667 54 175 162 175h49v82h77v-82zM245 549h-49c-56.667 0 -85 -33.667 -85 -101v-201c0 -68 28.333 -102 85 -102h49v404z
M322 145h49c57.333 0 86 34 86 102v201c0 67.333 -28.667 101 -86 101h-49v-404z" />
    <glyph glyph-name="uni0445" unicode="&#x445;" horiz-adv-x="435" 
d="M330 0l-116 302l-117 -302h-74l141 361l-132 339h81l108 -280l109 280h73l-131 -339l140 -361h-82z" />
    <glyph glyph-name="uni0446" unicode="&#x446;" horiz-adv-x="455" 
d="M428 -94h-76v94h-305v700h77v-629h172v629h79v-631h53v-163z" />
    <glyph glyph-name="uni0447" unicode="&#x447;" horiz-adv-x="401" 
d="M283 0l-0.000976562 310c-25.333 -36.667 -61.666 -55 -108.999 -55c-45.333 0 -79.833 15.333 -103.5 46s-35.5 70.667 -35.5 120v279h78v-273c0 -30 7.66699 -54.333 23 -73s36.333 -28 63 -28c48 0 76 27.333 84 82v292h77v-700h-77z" />
    <glyph glyph-name="uni0448" unicode="&#x448;" horiz-adv-x="581" 
d="M40 700h78v-629h134v629h78v-629h134v629h77v-700h-501v700z" />
    <glyph glyph-name="uni0449" unicode="&#x449;" horiz-adv-x="622" 
d="M595 -94h-75v94h-480v700h78v-629h134v629h77v-629h135v629h77v-631h54v-163z" />
    <glyph glyph-name="uni044A" unicode="&#x44a;" horiz-adv-x="438" 
d="M175 424h70c108.667 0 163 -56.333 163 -169v-84c0 -114 -52.333 -171 -157 -171h-153v630h-88v70h165v-276zM175 71l76 -0.000976562c28 0 48.167 7.83301 60.5 23.5s18.5 39.834 18.5 72.501v93c0 33.333 -6.83301 57.333 -20.5 72s-35.167 22 -64.5 22h-70v-283z" />
    <glyph glyph-name="uni044B" unicode="&#x44b;" horiz-adv-x="532" 
d="M118 424h69c108.667 0 163 -56.333 163 -169v-84c0 -114 -52.333 -171 -157 -171h-153v700h78v-276zM415 700h77v-700h-77v700zM118 71l75 -0.000976562c28 0 48.333 7.83301 61 23.5s19 39.834 19 72.501v93c0 33.333 -7 57.333 -21 72s-35.667 22 -65 22h-69v-283z" />
    <glyph glyph-name="uni044C" unicode="&#x44c;" horiz-adv-x="381" 
d="M118 424h69c108.667 0 163 -56.333 163 -169v-84c0 -114 -52.333 -171 -157 -171h-153v700h78v-276zM118 71l75 -0.000976562c28 0 48.333 7.83301 61 23.5s19 39.834 19 72.501v93c0 33.333 -7 57.333 -21 72s-35.667 22 -65 22h-69v-283z" />
    <glyph glyph-name="uni044D" unicode="&#x44d;" horiz-adv-x="380" 
d="M188 707c52 0 91.167 -15.667 117.5 -47s39.5 -74.333 39.5 -129v-362c0 -54.667 -13.167 -97.667 -39.5 -129s-65.5 -47 -117.5 -47s-91.167 15.667 -117.5 47s-39.5 74.333 -39.5 129v76h73v-80c0 -67.333 27.333 -101 82 -101s82 33.667 82 101v162h-122v70h122v138
c0 67.333 -27.333 101 -82 101s-82 -33.667 -82 -101v-56h-72v52c0 54.667 13 97.667 39 129s65 47 117 47z" />
    <glyph glyph-name="uni044E" unicode="&#x44e;" horiz-adv-x="575" 
d="M380 707c52.667 0 92.5 -15.667 119.5 -47s40.5 -74.333 40.5 -129v-362c0 -54.667 -13.667 -97.667 -41 -129s-67 -47 -119 -47c-52.667 0 -92.667 15.667 -120 47s-41 74.333 -41 129v146h-101v-315h-78v700h78v-315h101v146c0 54.667 13.667 97.667 41 129
s67.333 47 120 47zM380 636c-55.333 0 -83 -33.667 -83 -101v-370c0 -67.333 27.667 -101 83 -101s83 33.667 83 101v370c0 67.333 -27.667 101 -83 101z" />
    <glyph glyph-name="uni044F" unicode="&#x44f;" horiz-adv-x="394" 
d="M276 299l-55 -0.000976562c-34 0 -59.5 -7.83301 -76.5 -23.5s-25.5 -42.5 -25.5 -80.5v-110c0 -37.333 -4.33301 -65.666 -13 -84.999h-79c9.33301 18.667 14 46.667 14 84v109c0 80 29 128.667 87 146c-57.333 18.667 -86 66.667 -86 144v57
c0 53.333 12.5 93.333 37.5 120s64.5 40 118.5 40h156v-700h-78v299zM276 628.999h-76c-54 0 -81 -32 -81 -96v-67c0 -36 8.16699 -61 24.5 -75s40.833 -21 73.5 -21h59v259z" />
    <glyph glyph-name="uni0451" unicode="&#x451;" horiz-adv-x="360" 
d="M87 831h68v-90h-68v90zM211 831h69v-90h-69v90zM118 390h171v-70h-171v-249h210v-71h-288v700h288v-71h-210v-239z" />
    <glyph glyph-name="uni1E02" unicode="&#x1e02;" horiz-adv-x="392" 
d="M144 830h68v-90h-68v90zM40 700l157 -0.000976562c53.333 0 92 -12.667 116 -38s36 -64.333 36 -117v-33c0 -38.667 -6.33301 -69.167 -19 -91.5s-33.667 -38.166 -63 -47.499c62.667 -17.333 94 -67.333 94 -150v-59c0 -109.333 -53.333 -164 -160 -164h-161v700z
M118 402.999l60 0.000976562c32.667 0 56.5 6.66699 71.5 20s22.5 37.666 22.5 72.999v41c0 31.333 -6 54.5 -18 69.5s-31.667 22.5 -59 22.5h-77v-226zM118 71h83c55.333 0 83 31.667 83 95v62c0 38 -7.66699 64.833 -23 80.5s-40.333 23.5 -75 23.5h-68v-261z" />
    <glyph glyph-name="uni1E03" unicode="&#x1e03;" horiz-adv-x="392" 
d="M144 830h68v-90h-68v90zM40 700l157 -0.000976562c53.333 0 92 -12.667 116 -38s36 -64.333 36 -117v-33c0 -38.667 -6.33301 -69.167 -19 -91.5s-33.667 -38.166 -63 -47.499c62.667 -17.333 94 -67.333 94 -150v-59c0 -109.333 -53.333 -164 -160 -164h-161v700z
M118 402.999l60 0.000976562c32.667 0 56.5 6.66699 71.5 20s22.5 37.666 22.5 72.999v41c0 31.333 -6 54.5 -18 69.5s-31.667 22.5 -59 22.5h-77v-226zM118 71h83c55.333 0 83 31.667 83 95v62c0 38 -7.66699 64.833 -23 80.5s-40.333 23.5 -75 23.5h-68v-261z" />
    <glyph glyph-name="uni1E0A" unicode="&#x1e0a;" horiz-adv-x="396" 
d="M151 830h68v-90h-68v90zM40 700l164 -0.000976562c53.333 0 93.166 -15.167 119.499 -45.5s39.5 -73.166 39.5 -128.499v-353c0 -54.667 -13.167 -97.167 -39.5 -127.5s-66.166 -45.5 -119.499 -45.5h-164v700zM118 70.999h85c55.333 0 83 33 83 99v360
c0 66 -28 99 -84 99h-84v-558z" />
    <glyph glyph-name="uni1E0B" unicode="&#x1e0b;" horiz-adv-x="396" 
d="M151 830h68v-90h-68v90zM40 700l164 -0.000976562c53.333 0 93.166 -15.167 119.499 -45.5s39.5 -73.166 39.5 -128.499v-353c0 -54.667 -13.167 -97.167 -39.5 -127.5s-66.166 -45.5 -119.499 -45.5h-164v700zM118 70.999h85c55.333 0 83 33 83 99v360
c0 66 -28 99 -84 99h-84v-558z" />
    <glyph glyph-name="uni1E1E" unicode="&#x1e1e;" horiz-adv-x="340" 
d="M143 829h68v-90h-68v90zM118 374h161v-71h-161v-303h-78v700h278v-71h-200v-255z" />
    <glyph glyph-name="uni1E1F" unicode="&#x1e1f;" horiz-adv-x="340" 
d="M146 830h68v-90h-68v90zM118 374h161v-71h-161v-303h-78v700h278v-71h-200v-255z" />
    <glyph glyph-name="uni1E40" unicode="&#x1e40;" horiz-adv-x="523" 
d="M227 832h68v-91h-68v91zM409 563l-111 -562h-75l-116 557v-558h-68v700h109l115 -559l111 559h109v-700h-74v563z" />
    <glyph glyph-name="uni1E41" unicode="&#x1e41;" horiz-adv-x="523" 
d="M227 832h68v-90h-68v90zM409 563l-111 -562h-75l-116 557v-558h-68v700h109l115 -559l111 559h109v-700h-74v563z" />
    <glyph glyph-name="uni1E56" unicode="&#x1e56;" horiz-adv-x="371" 
d="M146 830h68v-90h-68v90zM40 700h153c104.667 0 157 -57 157 -171v-84c0 -112.667 -54.333 -169 -163 -169h-69v-276h-78v700zM118 346l69 -0.000976562c29.333 0 51 7.33301 65 22s21 38.667 21 72v93c0 32.667 -6.33301 56.834 -19 72.501s-33 23.5 -61 23.5h-75v-283z
" />
    <glyph glyph-name="uni1E57" unicode="&#x1e57;" horiz-adv-x="371" 
d="M149 830h68v-90h-68v90zM40 700h153c104.667 0 157 -57 157 -171v-84c0 -112.667 -54.333 -169 -163 -169h-69v-276h-78v700zM118 346l69 -0.000976562c29.333 0 51 7.33301 65 22s21 38.667 21 72v93c0 32.667 -6.33301 56.834 -19 72.501s-33 23.5 -61 23.5h-75v-283z
" />
    <glyph glyph-name="uni1E60" unicode="&#x1e60;" horiz-adv-x="372" 
d="M152 830h68v-90h-68v90zM187 707c51.333 0 90.1709 -15.501 116.504 -46.501s39.5 -73.833 39.5 -128.5v-19h-74v23c0 66.667 -26.667 100 -80 100s-80 -33 -80 -99c0 -24.667 5.83301 -47.5 17.5 -68.5s26.167 -38.667 43.5 -53l56.5 -48l56.5 -51
c17.333 -16.333 31.833 -37.5 43.5 -63.5s17.5 -54.333 17.5 -85c0 -54.667 -13.333 -97.5 -40 -128.5s-66 -46.5 -118 -46.5s-91.167 15.5 -117.5 46.5s-39.5 73.833 -39.5 128.5v40h73v-44c0 -66.667 27.333 -100 82 -100s82 33.333 82 100c0 21.333 -4.33301 41 -13 59
s-19.834 34 -33.501 48s-28.834 27.667 -45.501 41l-50 42c-16.667 14.667 -31.834 30 -45.501 46s-24.834 35.333 -33.501 58s-13 47.334 -13 74.001c0 55.333 13 98.333 39 129s64.667 46 116 46z" />
    <glyph glyph-name="uni1E61" unicode="&#x1e61;" horiz-adv-x="372" 
d="M155 833h68v-90h-68v90zM187 707c51.333 0 90.1709 -15.501 116.504 -46.501s39.5 -73.833 39.5 -128.5v-19h-74v23c0 66.667 -26.667 100 -80 100s-80 -33 -80 -99c0 -24.667 5.83301 -47.5 17.5 -68.5s26.167 -38.667 43.5 -53l56.5 -48l56.5 -51
c17.333 -16.333 31.833 -37.5 43.5 -63.5s17.5 -54.333 17.5 -85c0 -54.667 -13.333 -97.5 -40 -128.5s-66 -46.5 -118 -46.5s-91.167 15.5 -117.5 46.5s-39.5 73.833 -39.5 128.5v40h73v-44c0 -66.667 27.333 -100 82 -100s82 33.333 82 100c0 21.333 -4.33301 41 -13 59
s-19.834 34 -33.501 48s-28.834 27.667 -45.501 41l-50 42c-16.667 14.667 -31.834 30 -45.501 46s-24.834 35.333 -33.501 58s-13 47.334 -13 74.001c0 55.333 13 98.333 39 129s64.667 46 116 46z" />
    <glyph glyph-name="uni1E6A" unicode="&#x1e6a;" horiz-adv-x="372" 
d="M152 830h68v-90h-68v90zM225 0h-78v629h-129v71h336v-71h-129v-629z" />
    <glyph glyph-name="uni1E6B" unicode="&#x1e6b;" horiz-adv-x="372" 
d="M151 830h68v-90h-68v90zM224 0h-78v629h-129v71h336v-71h-129v-629z" />
    <glyph glyph-name="Wgrave" unicode="&#x1e80;" horiz-adv-x="583" 
d="M196 845h81l69 -103h-57zM295 475l-69 -475h-107l-96 700h76l82 -596l78 595h77l77 -596l79 597h68l-95 -700h-103z" />
    <glyph glyph-name="wgrave" unicode="&#x1e81;" horiz-adv-x="583" 
d="M196 845h81l69 -103h-57zM295 475l-69 -475h-107l-96 700h76l82 -596l78 595h77l77 -596l79 597h68l-95 -700h-103z" />
    <glyph glyph-name="Wacute" unicode="&#x1e82;" horiz-adv-x="583" 
d="M313 842h78l-93 -103h-55zM295 475l-69 -475h-107l-96 700h76l82 -596l78 595h77l77 -596l79 597h68l-95 -700h-103z" />
    <glyph glyph-name="wacute" unicode="&#x1e83;" horiz-adv-x="583" 
d="M313 842h78l-93 -103h-55zM295 475l-69 -475h-107l-96 700h76l82 -596l78 595h77l77 -596l79 597h68l-95 -700h-103z" />
    <glyph glyph-name="Wdieresis" unicode="&#x1e84;" horiz-adv-x="583" 
d="M197 831h68v-90h-68v90zM321 831h68v-90h-68v90zM295 475l-69 -475h-107l-96 700h76l82 -596l78 595h77l77 -596l79 597h68l-95 -700h-103z" />
    <glyph glyph-name="wdieresis" unicode="&#x1e85;" horiz-adv-x="583" 
d="M197 831h68v-90h-68v90zM321 831h68v-90h-68v90zM295 475l-69 -475h-107l-96 700h76l82 -596l78 595h77l77 -596l79 597h68l-95 -700h-103z" />
    <glyph glyph-name="Ygrave" unicode="&#x1ef2;" horiz-adv-x="406" 
d="M105 845h81l69 -103h-57zM164 0v251l-148 449h81l109 -344l110 344h74l-149 -449v-251h-77z" />
    <glyph glyph-name="ygrave" unicode="&#x1ef3;" horiz-adv-x="406" 
d="M105 845h81l69 -103h-57zM164 0v251l-148 449h81l109 -344l110 344h74l-149 -449v-251h-77z" />
    <glyph glyph-name="figuredash" unicode="&#x2012;" horiz-adv-x="425" 
d="M13 318v64h399v-64h-399z" />
    <glyph glyph-name="endash" unicode="&#x2013;" horiz-adv-x="458" 
d="M13 318v64h432v-64h-432z" />
    <glyph glyph-name="emdash" unicode="&#x2014;" horiz-adv-x="833" 
d="M13 318v64h807v-64h-807z" />
    <glyph glyph-name="quoteleft" unicode="&#x2018;" horiz-adv-x="160" 
d="M40 605l38 95h33l-25 -88h29v-97h-75v90z" />
    <glyph glyph-name="quoteright" unicode="&#x2019;" horiz-adv-x="160" 
d="M120 611l-39 -96h-32l25 88h-29v97h75v-89z" />
    <glyph glyph-name="quotesinglbase" unicode="&#x201a;" horiz-adv-x="160" 
d="M120 7l-39 -95h-32l25 88h-29v97h75v-90z" />
    <glyph glyph-name="quotedblleft" unicode="&#x201c;" horiz-adv-x="271" 
d="M40 605l38 95h33l-25 -88h29v-97h-75v90zM152 605l38 95h32l-24 -88h28v-97h-74v90z" />
    <glyph glyph-name="quotedblright" unicode="&#x201d;" horiz-adv-x="271" 
d="M114 610l-38 -95h-32l24 88h-28v97h74v-90zM226 610l-38 -95h-33l25 88h-29v97h75v-90z" />
    <glyph glyph-name="quotedblbase" unicode="&#x201e;" horiz-adv-x="274" 
d="M120 7l-39 -95h-32l25 88h-29v97h75v-90zM234 7l-38 -95h-33l25 88h-29v97h75v-90z" />
    <glyph glyph-name="dagger" unicode="&#x2020;" horiz-adv-x="394" 
d="M229 700v-187h136v-61h-136v-517h-64v517h-135v61h135v187h64z" />
    <glyph glyph-name="daggerdbl" unicode="&#x2021;" horiz-adv-x="394" 
d="M229 700v-187h136v-61h-136v-268h136v-61h-136v-188h-64v188h-135v61h135v268h-135v61h135v187h64z" />
    <glyph glyph-name="bullet" unicode="&#x2022;" horiz-adv-x="328" 
d="M164 455c29.333 0 54.166 -10.167 74.499 -30.5s30.5 -45.166 30.5 -74.499s-10.167 -54.166 -30.5 -74.499s-45.166 -30.5 -74.499 -30.5s-54.166 10.167 -74.499 30.5s-30.5 45.166 -30.5 74.499s10.167 54.166 30.5 74.499s45.166 30.5 74.499 30.5z" />
    <glyph glyph-name="ellipsis" unicode="&#x2026;" horiz-adv-x="379" 
d="M40 97h75v-97h-75v97zM152 97h75v-97h-75v97zM264 97h75v-97h-75v97z" />
    <glyph glyph-name="perthousand" unicode="&#x2030;" horiz-adv-x="867" 
d="M136 704c32.667 0 57.5 -10.167 74.5 -30.5s25.5 -47.833 25.5 -82.5v-221c0 -35.333 -8.33301 -63 -25 -83s-41.667 -30 -75 -30s-58.333 10 -75 30s-25 47.667 -25 83v221c0 34.667 8.5 62.167 25.5 82.5s41.833 30.5 74.5 30.5zM420 700h47l-276 -700h-47zM136 658
c-33.333 0 -50 -21.333 -50 -64v-228c0 -42 16.667 -63 50 -63s50 21 50 63v228c0 42.667 -16.667 64 -50 64zM480 442c33.333 0 58.333 -10 75 -30s25 -47.333 25 -82v-220c0 -35.333 -8.33301 -63 -25 -83s-41.667 -30 -75 -30s-58.333 10 -75 30s-25 47.667 -25 83v220
c0 34.667 8.33301 62 25 82s41.667 30 75 30zM731 442c33.333 0 58.333 -10 75 -30s25 -47.333 25 -82v-220c0 -35.333 -8.33301 -63 -25 -83s-41.667 -30 -75 -30s-58.333 10 -75 30s-25 47.667 -25 83v220c0 34.667 8.33301 62 25 82s41.667 30 75 30zM480 396
c-33.333 0 -50 -21 -50 -63v-227c0 -42.667 16.667 -64 50 -64s50 21.333 50 64v227c0 42 -16.667 63 -50 63zM731 396c-32.667 0 -49 -21 -49 -63v-227c0 -42.667 16.333 -64 49 -64c33.333 0 50 21.333 50 64v227c0 42 -16.667 63 -50 63z" />
    <glyph glyph-name="guilsinglleft" unicode="&#x2039;" horiz-adv-x="183" 
d="M86 83l-62 268l62 257h74l-62 -257l62 -268h-74z" />
    <glyph glyph-name="guilsinglright" unicode="&#x203a;" horiz-adv-x="183" 
d="M24 84l61 267l-61 257h73l63 -257l-63 -267h-73z" />
    <glyph glyph-name="fraction" unicode="&#x2044;" horiz-adv-x="164" 
d="M197 700h47l-276 -700h-47z" />
    <glyph glyph-name="zerosuperior" unicode="&#x2070;" horiz-adv-x="277" 
d="M36 459v228c0 35.333 8.5 63 25.5 83s42.5 30 76.5 30s59.667 -10 77 -30s26 -47.667 26 -83v-228c0 -35.333 -8.66699 -63 -26 -83s-43 -30 -77 -30s-59.5 10 -76.5 30s-25.5 47.667 -25.5 83zM86 691v-236c0 -42 17.333 -63 52 -63s52 21 52 63v236
c0 42 -17.333 63 -52 63s-52 -21 -52 -63z" />
    <glyph glyph-name="foursuperior" unicode="&#x2074;" horiz-adv-x="283" 
d="M257 439h-35v-88h-50v88h-143v47l138 309h55v-309h35v-47zM172 698l-97 -212h97v212z" />
    <glyph glyph-name="fivesuperior" unicode="&#x2075;" horiz-adv-x="275" 
d="M86 487v-33c0 -42 17 -63 51 -63s51 21 51 63v86c0 42 -17 63 -51 63c-13.333 0 -24.5 -4 -33.5 -12s-14.167 -19.667 -15.5 -35v-10h-48l13 248h175v-46h-131l-6 -133c14 23.333 36 35 66 35c27.333 0 47.833 -9.33301 61.5 -28s20.5 -44.667 20.5 -78v-87
c0 -35.333 -8.5 -63 -25.5 -83s-42.167 -30 -75.5 -30s-58.333 10 -75 30s-25 47.667 -25 83v30h48z" />
    <glyph glyph-name="sixsuperior" unicode="&#x2076;" horiz-adv-x="277" 
d="M140 800c33.333 0 58.499 -9.83301 75.499 -29.5s25.5 -47.167 25.5 -82.5v-8h-48v11c0 42 -17 63 -51 63c-36 0 -54 -23.667 -54 -71v-96c13.333 30 37 45 71 45c55.333 0 83 -35.333 83 -106v-67c0 -35.333 -8.66699 -63 -26 -83s-42.666 -30 -75.999 -30
s-58.833 10.167 -76.5 30.5s-26.5 47.833 -26.5 82.5v226c0 36 8.5 64.167 25.5 84.5s42.833 30.5 77.5 30.5zM139.999 586c-34.667 0 -52 -21.333 -52 -64v-67c0 -42 17.333 -63 52 -63s52 21 52 63v67c0 42.667 -17.333 64 -52 64z" />
    <glyph glyph-name="sevensuperior" unicode="&#x2077;" horiz-adv-x="275" 
d="M74 351l113 398h-150v46h202v-44l-115 -400h-50z" />
    <glyph glyph-name="eightsuperior" unicode="&#x2078;" horiz-adv-x="279" 
d="M139 800c34 0 60.168 -9.66602 78.501 -28.999s27.5 -46.333 27.5 -81v-15c0 -46 -16.333 -76.333 -49 -91c32.667 -14.667 49 -46 49 -94v-33c0 -34.667 -9 -61.834 -27 -81.501s-44.333 -29.5 -79 -29.5c-34 0 -60 9.83301 -78 29.5s-27 46.834 -27 81.501v33
c0 47.333 16 78.666 48 93.999c-32 14.667 -48 45 -48 91v15c0 34.667 9.16699 61.667 27.5 81s44.166 29 77.499 29zM139.001 754.001c-36.667 0 -55 -22 -55 -66v-21c0 -41.333 18.333 -62 55 -62s55 20.667 55 62v21c0 44 -18.333 66 -55 66zM139.001 559.001
c-36.667 0 -55 -21 -55 -63v-38c0 -44 18.333 -66 55 -66s55 22 55 66v38c0 42 -18.333 63 -55 63z" />
    <glyph glyph-name="ninesuperior" unicode="&#x2079;" horiz-adv-x="277" 
d="M137 800c33.333 0 58.668 -10 76.001 -30s26 -47.667 26 -83v-226c0 -76.667 -34.333 -115 -103 -115c-33.333 0 -58.5 10 -75.5 30s-25.5 47.333 -25.5 82v8h48v-11c0 -42 17.333 -63 52 -63c36 0 54 23.667 54 71v96c-13.333 -30 -37.333 -45 -72 -45
c-27.333 0 -47.833 9.33301 -61.5 28s-20.5 44.667 -20.5 78v67c0 35.333 8.66699 63 26 83s42.666 30 75.999 30zM137.002 754c-34.667 0 -52 -21 -52 -63v-67c0 -42.667 17.333 -64 52 -64s52 21.333 52 64v67c0 42 -17.333 63 -52 63z" />
    <glyph glyph-name="zeroinferior" unicode="&#x2080;" horiz-adv-x="277" 
d="M36 43v228c0 35.333 8.5 63 25.5 83s42.5 30 76.5 30s59.667 -10 77 -30s26 -47.667 26 -83v-228c0 -35.333 -8.66699 -63 -26 -83s-43 -30 -77 -30s-59.5 10 -76.5 30s-25.5 47.667 -25.5 83zM86 275v-236c0 -42 17.333 -63 52 -63s52 21 52 63v236
c0 42 -17.333 63 -52 63s-52 -21 -52 -63z" />
    <glyph glyph-name="oneinferior" unicode="&#x2081;" horiz-adv-x="189" 
d="M91 -65v366.998c-16.667 -10 -37 -16 -61 -18v37c22 0.666992 38.333 5.83398 49 15.501s19.667 23.834 27 42.501h35v-444h-50z" />
    <glyph glyph-name="twoinferior" unicode="&#x2082;" horiz-adv-x="275" 
d="M142 385c33.333 0 58.332 -9.99805 74.999 -29.998s25 -47.667 25 -83c0 -24.667 -5.16699 -48.334 -15.5 -71.001s-23 -42.5 -38 -59.5l-45 -49.5c-15 -16 -27.667 -33.167 -38 -51.5s-15.166 -36.833 -14.499 -55.5v-4h146v-46h-196v38c0 26 5.16699 50.333 15.5 73
s22.833 42.167 37.5 58.5l44.5 48c15 15.667 27.667 33.5 38 53.5s15.5 41.667 15.5 65c0 45.333 -17.333 68 -52 68c-34 0 -51 -21.667 -51 -65v-38h-48v35c0 35.333 8.33301 63.166 25 83.499s42 30.5 76 30.5z" />
    <glyph glyph-name="threeinferior" unicode="&#x2083;" horiz-adv-x="275" 
d="M138 384c33.333 0 58.333 -10 75 -30s25 -47.667 25 -83v-11c0 -46.667 -17.333 -77 -52 -91c34.667 -13.333 52 -44 52 -92v-34c0 -35.333 -8.33301 -63 -25 -83s-41.667 -30 -75 -30s-58.5 10 -75.5 30s-25.5 47.667 -25.5 83v30h48v-34c0 -42 17 -63 51 -63
c34.667 0 52 22.667 52 68v34c0 43.333 -18.333 65 -55 65h-27v46h29c16 0 28.833 5.5 38.5 16.5s14.5 25.833 14.5 44.5v20c0 45.333 -17.333 68 -52 68c-34 0 -51 -21 -51 -63v-23h-48v19c0 35.333 8.5 63 25.5 83s42.167 30 75.5 30z" />
    <glyph glyph-name="fourinferior" unicode="&#x2084;" horiz-adv-x="283" 
d="M257 22h-35v-89h-50v89h-143v46l138 309h55v-309h35v-46zM172 280l-97 -212h97v212z" />
    <glyph glyph-name="fiveinferior" unicode="&#x2085;" horiz-adv-x="275" 
d="M86 73v-32.999c0 -42 17 -63 51 -63s51 21 51 63v86c0 42 -17 63 -51 63c-13.333 0 -24.5 -4 -33.5 -12s-14.167 -19.667 -15.5 -35v-10h-48l13 248h175v-46h-131l-6 -134c14 23.333 36 35 66 35c27.333 0 47.833 -9.33301 61.5 -28s20.5 -44.334 20.5 -77.001v-88
c0 -34.667 -8.5 -62 -25.5 -82s-42.167 -30 -75.5 -30s-58.333 10 -75 30s-25 47.333 -25 82v31h48z" />
    <glyph glyph-name="sixinferior" unicode="&#x2086;" horiz-adv-x="277" 
d="M140 384c33.333 0 58.499 -9.83301 75.499 -29.5s25.5 -47.167 25.5 -82.5v-8h-48v11c0 42 -17 63 -51 63c-36 0 -54 -23.667 -54 -71v-96c13.333 30 37 45 71 45c55.333 0 83 -35.333 83 -106v-67c0 -35.333 -8.66699 -63 -26 -83s-42.666 -30 -75.999 -30
s-58.833 10.167 -76.5 30.5s-26.5 47.833 -26.5 82.5v226c0 36 8.5 64.167 25.5 84.5s42.833 30.5 77.5 30.5zM139.999 170c-34.667 0 -52 -21.333 -52 -64v-67c0 -42 17.333 -63 52 -63s52 21 52 63v67c0 42.667 -17.333 64 -52 64z" />
    <glyph glyph-name="seveninferior" unicode="&#x2087;" horiz-adv-x="275" 
d="M74 -63l113 398h-150v46h202v-44l-115 -400h-50z" />
    <glyph glyph-name="eightinferior" unicode="&#x2088;" horiz-adv-x="279" 
d="M139 384c34 0 60.168 -9.66602 78.501 -28.999s27.5 -46.333 27.5 -81v-15c0 -46 -16.333 -76.333 -49 -91c32.667 -14.667 49 -46 49 -94v-33c0 -34.667 -9 -61.834 -27 -81.501s-44.333 -29.5 -79 -29.5c-34 0 -60 9.83301 -78 29.5s-27 46.834 -27 81.501v33
c0 47.333 16 78.666 48 93.999c-32 14.667 -48 45 -48 91v15c0 34.667 9.16699 61.667 27.5 81s44.166 29 77.499 29zM139.001 338.001c-36.667 0 -55 -22 -55 -66v-21c0 -41.333 18.333 -62 55 -62s55 20.667 55 62v21c0 44 -18.333 66 -55 66zM139.001 143.001
c-36.667 0 -55 -21 -55 -63v-38c0 -44 18.333 -66 55 -66s55 22 55 66v38c0 42 -18.333 63 -55 63z" />
    <glyph glyph-name="nineinferior" unicode="&#x2089;" horiz-adv-x="277" 
d="M137 384c33.333 0 58.668 -10 76.001 -30s26 -47.667 26 -83v-226c0 -76.667 -34.333 -115 -103 -115c-33.333 0 -58.5 10 -75.5 30s-25.5 47.333 -25.5 82v8h48v-11c0 -42 17.333 -63 52 -63c36 0 54 23.667 54 71v96c-13.333 -30 -37.333 -45 -72 -45
c-27.333 0 -47.833 9.33301 -61.5 28s-20.5 44.667 -20.5 78v67c0 35.333 8.66699 63 26 83s42.666 30 75.999 30zM137.002 338c-34.667 0 -52 -21 -52 -63v-67c0 -42.667 17.333 -64 52 -64s52 21.333 52 64v67c0 42 -17.333 63 -52 63z" />
    <glyph glyph-name="Euro" unicode="&#x20ac;" horiz-adv-x="397" 
d="M57 427v104c0 55.333 12.667 98.5 38 129.5s64 46.5 116 46.5s90.667 -15.5 116 -46.5s38 -74.167 38 -129.5v-45h-73v49c0 67.333 -26.333 101 -79 101s-79 -33.667 -79 -101v-108h174v-40h-174v-69h174v-41h-174v-112c0 -67.333 26.333 -101 79 -101s79 33.667 79 101
v54h73v-50c0 -54.667 -12.667 -97.667 -38 -129s-64 -47 -116 -47s-90.667 15.667 -116 47s-38 74.333 -38 129v108h-44v41h44v69h-44v40h44z" />
    <glyph glyph-name="uni20B9" unicode="&#x20b9;" horiz-adv-x="388" 
d="M357 639l-112 0.000976562c31.333 -19.333 48.333 -53.333 51 -102h61v-61h-61c-3.33301 -46.667 -19.666 -83.834 -48.999 -111.501s-68 -41.5 -116 -41.5h-17l242 -323h-84l-241 323v60h80c71.333 0 107.666 31 108.999 93h-188v61h188c0 68 -36.333 102 -109 102h-79
v61h325v-61z" />
    <glyph glyph-name="uni2117" unicode="&#x2117;" horiz-adv-x="742" 
d="M371 704c99.333 0 181.5 -33.5 246.5 -100.5s97.5 -151.5 97.5 -253.5c0 -101.333 -32.667 -185.666 -98 -252.999s-147.333 -101 -246 -101s-180.667 33.667 -246 101s-98 151.666 -98 252.999c0 102 32.5 186.5 97.5 253.5s147.167 100.5 246.5 100.5zM371 654
c-84.667 0 -154.667 -28.833 -210 -86.5s-83 -130.167 -83 -217.5s27.667 -159.833 83 -217.5s125.333 -86.5 210 -86.5s154.667 28.833 210 86.5s83 130.167 83 217.5s-27.667 159.833 -83 217.5s-125.333 86.5 -210 86.5zM284 555h109c72 0 108 -37.667 108 -113v-46
c0 -38.667 -9 -67.167 -27 -85.5s-46.333 -27.5 -85 -27.5h-51v-156h-54v428zM338 334h48c21.333 0 36.833 5.5 46.5 16.5s14.5 28.167 14.5 51.5v34c0 46 -19 69 -57 69h-52v-171z" />
    <glyph glyph-name="trademark" unicode="&#x2122;" horiz-adv-x="583" 
d="M144 344h-50v310h-82v46h213v-46h-81v-310zM505 625l-69 -279h-48l-73 277v-279h-45v356h70l73 -278l70 278h70v-356h-48v281z" />
    <glyph glyph-name="uni2153" unicode="&#x2153;" horiz-adv-x="596" 
d="M118 256v366.998c-16.667 -10 -37 -16 -61 -18v37c22 0.666992 38.333 5.83398 49 15.501s19.667 23.834 27 42.501h35v-444h-50zM392 699.998h47l-276 -700h-47zM458 448.998c33.333 0 58.499 -10 75.499 -30s25.5 -47.667 25.5 -83v-11c0 -46.667 -17.667 -77 -53 -91
c35.333 -13.333 53 -44 53 -92v-34c0 -35.333 -8.5 -63 -25.5 -83s-42.167 -30 -75.5 -30c-66.667 0 -100 37.667 -100 113v30h48v-34c0 -42 17 -63 51 -63s51 22.667 51 68v34c0 43.333 -18.333 65 -55 65h-27v46h29c16.667 0 29.834 5.5 39.501 16.5
s14.167 25.833 13.5 44.5v20c0 45.333 -17 68 -51 68s-51 -21 -51 -63v-23h-48v19c0 75.333 33.333 113 100 113z" />
    <glyph glyph-name="uni2154" unicode="&#x2154;" horiz-adv-x="618" 
d="M142 705c33.333 0 58.333 -9.99707 75 -29.9971s25 -47.667 25 -83c0 -24.667 -5.16699 -48.334 -15.5 -71.001s-23 -42.334 -38 -59.001l-44.5 -49c-14.667 -16 -27.167 -33.167 -37.5 -51.5s-15.5 -36.833 -15.5 -55.5v-5h146v-46h-196v38
c0 26.667 5.16699 51.167 15.5 73.5s22.833 41.666 37.5 57.999l44.5 48c15 15.667 27.667 33.667 38 54s15.5 41.833 15.5 64.5c0 45.333 -17.333 68 -52 68c-34 0 -51 -21.667 -51 -65v-38h-48v36c0 35.333 8.33301 63 25 83s42 30 76 30zM476 700.003l-276 -700h-47
l276 700h47zM481 449.003c33.333 0 58.332 -10 74.999 -30s25 -47.667 25 -83v-11c0 -46.667 -17.667 -77 -53 -91c35.333 -13.333 53 -44 53 -92v-34c0 -35.333 -8.33301 -63 -25 -83s-41.667 -30 -75 -30s-58.5 10 -75.5 30s-25.5 47.667 -25.5 83v30h48v-34
c0 -42 17 -63 51 -63s51 22.667 51 68v34c0 43.333 -18.333 65 -55 65h-27v46h29c16.667 0 29.834 5.5 39.501 16.5s14.167 25.833 13.5 44.5v20c0 45.333 -17 68 -51 68s-51 -21 -51 -63v-23h-48v19c0 35.333 8.5 63 25.5 83s42.167 30 75.5 30z" />
    <glyph glyph-name="oneeighth" unicode="&#x215b;" horiz-adv-x="601" 
d="M118 256v366.998c-16.667 -10 -37 -16 -61 -18v37c22 0.666992 38.333 5.83398 49 15.501s19.667 23.834 27 42.501h35v-444h-50zM163 -0.00195312h-47l276 700h47zM462 448.998c33.333 0 59.167 -9.66797 77.5 -29.001s27.5 -46.333 27.5 -81v-15
c0 -46 -16 -76.333 -48 -91c32 -15.333 48 -46.666 48 -93.999v-33c0 -34.667 -9 -61.834 -27 -81.501s-44 -29.5 -78 -29.5c-34.667 0 -61 9.83301 -79 29.5s-27 46.834 -27 81.501v33c0 48 16.333 79.333 49 94c-32.667 14.667 -49 45 -49 91v15
c0 34.667 9.16699 61.667 27.5 81s44.5 29 78.5 29zM462.001 402.997c-36.667 0 -55 -22 -55 -66v-21c0 -41.333 18.333 -62 55 -62s55 20.667 55 62v21c0 44 -18.333 66 -55 66zM462.001 207.997c-36.667 0 -55 -21 -55 -63v-38c0 -44 18.333 -66 55 -66s55 22 55 66v38
c0 42 -18.333 63 -55 63z" />
    <glyph glyph-name="threeeighths" unicode="&#x215c;" horiz-adv-x="626" 
d="M138 705c33.333 0 58.333 -10 75 -30s25 -47.667 25 -83v-11c0 -46.667 -17.333 -77 -52 -91c34.667 -13.333 52 -44 52 -92v-34c0 -35.333 -8.33301 -63 -25 -83s-41.667 -30 -75 -30s-58.5 10 -75.5 30s-25.5 47.667 -25.5 83v30h48v-34c0 -42 17 -63 51 -63
c34.667 0 52 22.667 52 68v34c0 43.333 -18.333 65 -55 65h-27v46h29c16 0 28.833 5.5 38.5 16.5s14.5 25.833 14.5 44.5v20c0 45.333 -17.333 68 -52 68c-34 0 -51 -21 -51 -63v-23h-48v19c0 35.333 8.5 63 25.5 83s42.167 30 75.5 30zM426 700h47l-276 -700h-47zM487 449
c34 0 60 -9.66699 78 -29s27 -46.333 27 -81v-15c0 -46.667 -16 -77 -48 -91c32 -14.667 48 -46 48 -94v-33c0 -34.667 -9 -61.834 -27 -81.501s-44 -29.5 -78 -29.5s-60 9.83301 -78 29.5s-27 46.834 -27 81.501v33c0 48 16 79.333 48 94c-32 14 -48 44.333 -48 91v15
c0 34.667 9 61.667 27 81s44 29 78 29zM487 403c-36.667 0 -55 -22 -55 -66v-21c0 -41.333 18.333 -62 55 -62s55 20.667 55 62v21c0 44 -18.333 66 -55 66zM487 208c-36.667 0 -55 -21 -55 -63v-38c0 -44 18.333 -66 55 -66s55 22 55 66v38c0 42 -18.333 63 -55 63z" />
    <glyph glyph-name="fiveeighths" unicode="&#x215d;" horiz-adv-x="626" 
d="M149 0l276 700h47l-276 -700h-47zM97 653l-6 -133c14 23.333 36 35 66 35c27.333 0 47.833 -9.33301 61.5 -28s20.5 -44.667 20.5 -78v-87c0 -35.333 -8.5 -63 -25.5 -83s-42.167 -30 -75.5 -30s-58.333 10 -75 30s-25 47.667 -25 83v30h48v-33c0 -42 17 -63 51 -63
s51 21 51 63v86c0 42 -17 63 -51 63c-13.333 0 -24.5 -4 -33.5 -12s-14.167 -19.667 -15.5 -35v-10h-48l13 248h175v-46h-131zM486 449c34 0 60.168 -9.66602 78.501 -28.999s27.5 -46.333 27.5 -81v-15c0 -46 -16.333 -76.333 -49 -91c32.667 -14.667 49 -46 49 -94v-33
c0 -34.667 -9 -61.834 -27 -81.501s-44.333 -29.5 -79 -29.5c-34 0 -60 9.83301 -78 29.5s-27 46.834 -27 81.501v33c0 47.333 16 78.666 48 93.999c-32 14.667 -48 45 -48 91v15c0 34.667 9.16699 61.667 27.5 81s44.166 29 77.499 29zM486.001 403.001
c-36.667 0 -55 -22 -55 -66v-21c0 -41.333 18.333 -62 55 -62s55 20.667 55 62v21c0 44 -18.333 66 -55 66zM486.001 208.001c-36.667 0 -55 -21 -55 -63v-38c0 -44 18.333 -66 55 -66s55 22 55 66v38c0 42 -18.333 63 -55 63z" />
    <glyph glyph-name="seveneighths" unicode="&#x215e;" horiz-adv-x="594" 
d="M74 256l113 398h-150v46h202v-44l-115 -400h-50zM420 700l-276 -700h-47l276 700h47zM454 449c34 0 60.167 -9.66699 78.5 -29s27.5 -46.333 27.5 -81v-15c0 -46 -16.333 -76.333 -49 -91c32.667 -14.667 49 -46 49 -94v-33c0 -34.667 -9 -61.834 -27 -81.501
s-44.333 -29.5 -79 -29.5c-34 0 -60 9.83301 -78 29.5s-27 46.834 -27 81.501v33c0 48 16 79.333 48 94c-32 14 -48 44.333 -48 91v15c0 34.667 9 61.667 27 81s44 29 78 29zM454 403c-36.667 0 -55 -22 -55 -66v-21c0 -41.333 18.333 -62 55 -62s55 20.667 55 62v21
c0 44 -18.333 66 -55 66zM454 208c-36.667 0 -55 -21 -55 -63v-38c0 -44 18.333 -66 55 -66s55 22 55 66v38c0 42 -18.333 63 -55 63z" />
    <glyph glyph-name="minus" unicode="&#x2212;" horiz-adv-x="392" 
d="M30 378h332v-56h-332v56z" />
    <glyph glyph-name="infinity" unicode="&#x221e;" horiz-adv-x="583" 
d="M405 483h13.001c41.333 0 73.666 -10.667 96.999 -32s35 -52.333 35 -93s-11.667 -71.5 -35 -92.5s-55.666 -31.5 -96.999 -31.5h-13c-56.667 0 -93 18.333 -109 55c-16.667 -36.667 -54 -55 -112 -55h-12c-42 0 -74.667 10.667 -98 32s-35 52 -35 92
c0 40.667 11.833 71.667 35.5 93s56.167 32 97.5 32h12c57.333 0 94.666 -18.667 111.999 -56c16 37.333 52.333 56 109 56zM191.001 429h-18c-52.667 0 -79 -23.667 -79 -71c0 -46 26.333 -69.333 79 -70h18c52 0 78 23.333 78 70c0 47.333 -26 71 -78 71zM415.001 429h-18
c-51.333 0 -77 -23.667 -77 -71c0 -46 25.667 -69.333 77 -70h18c53.333 0 80 23.333 80 70c0 22.667 -6.83301 40.167 -20.5 52.5s-33.5 18.5 -59.5 18.5z" />
    <glyph glyph-name="approxequal" unicode="&#x2248;" horiz-adv-x="396" 
d="M125 492c20 0 46.501 -10.333 79.501 -31s56.833 -31 71.5 -31c11.333 0.666992 21.333 5 30 13s20 22.333 34 43l38 -38c-32.667 -50.667 -67 -76.334 -103 -77.001c-18.667 -0.666992 -44.5 9.33301 -77.5 30s-57.167 31 -72.5 31c-12.667 0 -23.834 -4 -33.501 -12
s-21.5 -22.333 -35.5 -43l-38 35c35.333 52.667 71 79.334 107 80.001zM125.001 328c20 0.666992 46.501 -9.33398 79.501 -30.001s56.833 -31 71.5 -31c8 0 15.5 2.33301 22.5 7s13.167 10.334 18.5 17.001s13 17 23 31l38 -37c-18 -28 -35 -47.833 -51 -59.5
s-33.333 -17.5 -52 -17.5c-19.333 -0.666992 -45.333 9.33301 -78 30s-56.667 31 -72 31c-12.667 0 -23.834 -4.16699 -33.501 -12.5s-21.5 -22.5 -35.5 -42.5l-38 35c35.333 52.667 71 79 107 79z" />
    <glyph glyph-name="commaaccentcomb" unicode="&#xf6c3;" horiz-adv-x="0" 
d="M137 -114l-35 -63h-29l23 56h-25v88h66v-81z" />
    <glyph glyph-name=".null" horiz-adv-x="0" 
 />
    <glyph glyph-name="nonmarkingreturn" horiz-adv-x="333" 
 />
    <glyph glyph-name="NULL" horiz-adv-x="0" 
 />
    <glyph glyph-name="CR" horiz-adv-x="155" 
 />
    <glyph glyph-name="zero.alt" horiz-adv-x="389" 
d="M34 170v361c0 54.667 13.5 97.667 40.5 129s66.833 47 119.5 47s92.667 -15.667 120 -47s41 -74.333 41 -129v-361c0 -54.667 -13.667 -97.834 -41 -129.501s-67.333 -47.5 -120 -47.5c-52 0 -91.667 15.833 -119 47.5s-41 74.834 -41 129.501zM111 535v-370
c0 -67.333 27.667 -101 83 -101s83 33.667 83 101v370c0 68 -27.667 102 -83 102s-83 -34 -83 -102z" />
    <glyph glyph-name="one.alt" horiz-adv-x="255" 
d="M123 0l-0.000976562 573c-29.333 -18 -61.666 -28 -96.999 -30v64c34.667 1.33301 60.667 10 78 26s31.333 38.333 42 67h54v-700h-77z" />
    <glyph glyph-name="two.alt" horiz-adv-x="368" 
d="M188 707c52.667 0 92 -15.6689 118 -47.002s39 -74.666 39 -129.999c0 -39.333 -8.16699 -76.666 -24.5 -111.999s-36 -66.166 -59 -92.499l-69.5 -77c-23.333 -25 -43.166 -52.167 -59.499 -81.5s-24.833 -59 -25.5 -89v-7h231v-71h-307v60
c0 41.333 8.16699 79.666 24.5 114.999s36.166 65.833 59.499 91.5l69.5 75c23 24.333 42.667 52.333 59 84s24.5 65.5 24.5 101.5c0 73.333 -27.333 110 -82 110s-82 -34.333 -82 -103v-62h-73v57c0 55.333 13 98.833 39 130.5s65.333 47.5 118 47.5z" />
    <glyph glyph-name="three.alt" horiz-adv-x="377" 
d="M189 707c52 0 91.166 -15.5 117.499 -46.5s39.5 -74.167 39.5 -129.5v-18c0 -74.667 -28.333 -122.667 -85 -144c56.667 -21.333 85 -69.666 85 -144.999v-54c0 -55.333 -13.167 -98.666 -39.5 -129.999s-65.5 -47 -117.5 -47c-52.667 0 -92.167 15.667 -118.5 47
s-39.5 74.666 -39.5 129.999v48h74v-53c0 -67.333 27.333 -101 82 -101s82 36 82 108v54c0 67.333 -29.667 102 -89 104h-42v70h47c26.667 1.33301 47.334 10.166 62.001 26.499s22 39.5 22 69.5v32c0 72.667 -27.333 109 -82 109s-82 -34 -82 -102v-36h-74v32
c0 55.333 13.167 98.5 39.5 129.5s65.833 46.5 118.5 46.5z" />
    <glyph glyph-name="four.alt" horiz-adv-x="400" 
d="M380 141h-56v-141h-77v141h-225v71l217 488h85v-488h56v-71zM247 551l-153 -339h153v339z" />
    <glyph glyph-name="five.alt" horiz-adv-x="378" 
d="M124 630l-10.999 -215c22.667 38.667 57.667 58 105 58c43.333 0 75.666 -14.667 96.999 -44s32 -70 32 -122v-137c0 -55.333 -13.167 -98.666 -39.5 -129.999s-65.833 -47 -118.5 -47c-52 0 -91.167 15.667 -117.5 47s-39.5 74.666 -39.5 129.999v47h73v-52
c0 -67.333 27.333 -101 82 -101s82 33.667 82 101v136c0 67.333 -27.333 101 -82 101c-46 0 -72 -25 -78 -75v-16h-74l20 389h276v-70h-207z" />
    <glyph glyph-name="six.alt" horiz-adv-x="386" 
d="M195 707c52 0 91.333 -15.5 118 -46.5s40 -73.833 40 -128.5v-13h-74v18c0 66.667 -27.333 100 -82 100c-57.333 0 -86 -37.667 -86 -113v-157c20.667 50 58.667 75 114 75c43.333 0 75.833 -14.667 97.5 -44s32.5 -70 32.5 -122v-106
c0 -54.667 -13.667 -97.834 -41 -129.501s-67.333 -47.5 -120 -47.5c-52 0 -91.667 15.833 -119 47.5s-41 74.834 -41 129.501v357c0 120 53.667 180 161 180zM194 371c-55.333 0 -83 -33.667 -83 -101v-105c0 -67.333 27.667 -101 83 -101s83 33.667 83 101v105
c0 67.333 -27.667 101 -83 101z" />
    <glyph glyph-name="seven.alt" horiz-adv-x="349" 
d="M79 0l173 630h-232v70h309v-68l-172 -632h-78z" />
    <glyph glyph-name="eight.alt" horiz-adv-x="393" 
d="M196 707c54 0 95.167 -15.168 123.5 -45.501s42.5 -72.833 42.5 -127.5v-22c0 -75.333 -26.667 -123.333 -80 -144c53.333 -21.333 80 -70.666 80 -147.999v-52c0 -54.667 -14.167 -97.5 -42.5 -128.5s-69.5 -46.5 -123.5 -46.5c-53.333 0 -94.166 15.5 -122.499 46.5
s-42.5 73.833 -42.5 128.5v52c0 76 27 125.333 81 148c-54 21.333 -81 69.333 -81 144v22c0 54.667 14.167 97.167 42.5 127.5s69.166 45.5 122.499 45.5zM196 636.999c-58 0 -87 -35 -87 -105v-34c0 -65.333 29 -98 87 -98c58.667 0 88 32.667 88 98v34
c0 70 -29.333 105 -88 105zM196 329.999c-58 0 -87 -33.667 -87 -101v-59c0 -70.667 29 -106 87 -106c58.667 0 88 35.333 88 106v59c0 67.333 -29.333 101 -88 101z" />
    <glyph glyph-name="nine.alt" horiz-adv-x="386" 
d="M192 707c52.667 0 92.5 -15.667 119.5 -47s40.5 -74.333 40.5 -129v-357c0 -57.333 -13.167 -101.833 -39.5 -133.5s-66.833 -47.5 -121.5 -47.5c-52 0 -91.333 15.5 -118 46.5s-40 74.167 -40 129.5v13h73v-18c0 -66.667 27.667 -100 83 -100c57.333 0 86 37.333 86 112
v157c-20.667 -49.333 -58.667 -74 -114 -74c-43.333 0 -75.833 14.5 -97.5 43.5s-32.5 69.5 -32.5 121.5v107c0 54.667 13.667 97.667 41 129s67.333 47 120 47zM192 636c-55.333 0 -83 -33.667 -83 -101v-105c0 -67.333 27.667 -101 83 -101s83 33.667 83 101v105
c0 67.333 -27.667 101 -83 101z" />
    <glyph glyph-name="Edotaaccent" horiz-adv-x="405" 
 />
    <glyph glyph-name="edotaaccent" horiz-adv-x="405" 
 />
    <glyph glyph-name="lcute" horiz-adv-x="405" 
 />
    </font>
</defs>
</svg>
